<svg xmlns="http://www.w3.org/2000/svg" xmlns:xlink="http://www.w3.org/1999/xlink" contentStyleType="text/css" data-diagram-type="CLASS" height="1282px" preserveAspectRatio="none" style="width:936px;height:1282px;background:#FFFFFF;" version="1.1" viewBox="0 0 936 1282" width="936px" zoomAndPan="magnify"><defs/><g><!--class SeatType--><g class="entity" data-entity="SeatType" data-source-line="4" data-uid="ent0002" id="entity_SeatType"><rect fill="#F1F1F1" height="85.2422" rx="2.5" ry="2.5" style="stroke:#181818;stroke-width:0.5;" width="91.9238" x="383" y="1190"/><ellipse cx="398" cy="1206" fill="#ABABAB" rx="11" ry="11" style="stroke:#181818;stroke-width:1;"/><path d="M396.8594,1206.7969 L396.8594,1209.2969 L401.1875,1209.2969 L401.1875,1208.375 Q401.1875,1207.7656 401.4219,1207.5 Q401.6719,1207.2344 402.0469,1207.2344 Q402.4219,1207.2344 402.6563,1207.5 Q402.8906,1207.7656 402.8906,1208.375 L402.8906,1211 L394.8906,1211 Q394.2656,1211 394,1210.7656 Q393.75,1210.5313 393.75,1210.1406 Q393.75,1209.7656 394.0156,1209.5313 Q394.2813,1209.2969 394.8906,1209.2969 L395.1563,1209.2969 L395.1563,1202.6406 L394.8906,1202.6406 Q394.2656,1202.6406 394,1202.4063 Q393.75,1202.1719 393.75,1201.7813 Q393.75,1201.4063 394,1201.1719 Q394.2656,1200.9375 394.8906,1200.9375 L402.5156,1200.9375 L402.5156,1203.5313 Q402.5156,1204.1406 402.2813,1204.4063 Q402.0625,1204.6563 401.6719,1204.6563 Q401.2969,1204.6563 401.0625,1204.4063 Q400.8281,1204.1406 400.8281,1203.5313 L400.8281,1202.6406 L396.8594,1202.6406 L396.8594,1205.0938 L398.3438,1205.0938 Q398.3438,1204.4375 398.4688,1204.25 Q398.7344,1203.8438 399.2031,1203.8438 Q399.5781,1203.8438 399.8125,1204.1094 Q400.0469,1204.3594 400.0469,1204.9688 L400.0469,1206.9375 Q400.0469,1207.4844 399.9219,1207.6719 Q399.6563,1208.0625 399.2031,1208.0625 Q398.7344,1208.0625 398.4688,1207.6563 Q398.3438,1207.4688 398.3438,1206.7969 L396.8594,1206.7969 Z " fill="#000000"/><text fill="#000000" font-family="sans-serif" font-size="14" lengthAdjust="spacing" textLength="59.9238" x="412" y="1211.7969">SeatType</text><line style="stroke:#181818;stroke-width:0.5;" x1="384" x2="473.9238" y1="1222" y2="1222"/><text fill="#000000" font-family="sans-serif" font-size="14" lengthAdjust="spacing" textLength="67.6826" x="389" y="1241.1074">REGULAR</text><text fill="#000000" font-family="sans-serif" font-size="14" lengthAdjust="spacing" textLength="66.1104" x="389" y="1259.7285">PREMIUM</text><line style="stroke:#181818;stroke-width:0.5;" x1="384" x2="473.9238" y1="1267.2422" y2="1267.2422"/></g><!--class BookingStatus--><g class="entity" data-entity="BookingStatus" data-source-line="9" data-uid="ent0003" id="entity_BookingStatus"><rect fill="#F1F1F1" height="103.8633" rx="2.5" ry="2.5" style="stroke:#181818;stroke-width:0.5;" width="122.2822" x="600" y="574.5"/><ellipse cx="615" cy="590.5" fill="#ABABAB" rx="11" ry="11" style="stroke:#181818;stroke-width:1;"/><path d="M613.8594,591.2969 L613.8594,593.7969 L618.1875,593.7969 L618.1875,592.875 Q618.1875,592.2656 618.4219,592 Q618.6719,591.7344 619.0469,591.7344 Q619.4219,591.7344 619.6563,592 Q619.8906,592.2656 619.8906,592.875 L619.8906,595.5 L611.8906,595.5 Q611.2656,595.5 611,595.2656 Q610.75,595.0313 610.75,594.6406 Q610.75,594.2656 611.0156,594.0313 Q611.2813,593.7969 611.8906,593.7969 L612.1563,593.7969 L612.1563,587.1406 L611.8906,587.1406 Q611.2656,587.1406 611,586.9063 Q610.75,586.6719 610.75,586.2813 Q610.75,585.9063 611,585.6719 Q611.2656,585.4375 611.8906,585.4375 L619.5156,585.4375 L619.5156,588.0313 Q619.5156,588.6406 619.2813,588.9063 Q619.0625,589.1563 618.6719,589.1563 Q618.2969,589.1563 618.0625,588.9063 Q617.8281,588.6406 617.8281,588.0313 L617.8281,587.1406 L613.8594,587.1406 L613.8594,589.5938 L615.3438,589.5938 Q615.3438,588.9375 615.4688,588.75 Q615.7344,588.3438 616.2031,588.3438 Q616.5781,588.3438 616.8125,588.6094 Q617.0469,588.8594 617.0469,589.4688 L617.0469,591.4375 Q617.0469,591.9844 616.9219,592.1719 Q616.6563,592.5625 616.2031,592.5625 Q615.7344,592.5625 615.4688,592.1563 Q615.3438,591.9688 615.3438,591.2969 L613.8594,591.2969 Z " fill="#000000"/><text fill="#000000" font-family="sans-serif" font-size="14" lengthAdjust="spacing" textLength="90.2822" x="629" y="596.2969">BookingStatus</text><line style="stroke:#181818;stroke-width:0.5;" x1="601" x2="721.2822" y1="606.5" y2="606.5"/><text fill="#000000" font-family="sans-serif" font-size="14" lengthAdjust="spacing" textLength="63.7861" x="606" y="625.6074">PENDING</text><text fill="#000000" font-family="sans-serif" font-size="14" lengthAdjust="spacing" textLength="84.7725" x="606" y="644.2285">CONFIRMED</text><text fill="#000000" font-family="sans-serif" font-size="14" lengthAdjust="spacing" textLength="84.0273" x="606" y="662.8496">CANCELLED</text><line style="stroke:#181818;stroke-width:0.5;" x1="601" x2="721.2822" y1="670.3633" y2="670.3633"/></g><!--class Movie--><g class="entity" data-entity="Movie" data-source-line="16" data-uid="ent0004" id="entity_Movie"><rect fill="#F1F1F1" height="103.8633" rx="2.5" ry="2.5" style="stroke:#181818;stroke-width:0.5;" width="133.3789" x="64.5" y="792"/><ellipse cx="108.3154" cy="808" fill="#C2C2C2" rx="11" ry="11" style="stroke:#181818;stroke-width:1;"/><path d="M111.081,803.875 Q111.2373,803.6563 111.4248,803.5469 Q111.6123,803.4375 111.831,803.4375 Q112.206,803.4375 112.4404,803.7031 Q112.6748,803.9531 112.6748,804.5625 L112.6748,806.0156 Q112.6748,806.625 112.4404,806.8906 Q112.206,807.1563 111.831,807.1563 Q111.4873,807.1563 111.2841,806.9531 Q111.081,806.7656 110.9716,806.25 Q110.9248,805.8906 110.7373,805.7031 Q110.4091,805.3281 109.7998,805.1094 Q109.1904,804.8906 108.5654,804.8906 Q107.7998,804.8906 107.1591,805.2188 Q106.5341,805.5469 106.0341,806.2969 Q105.5498,807.0469 105.5498,808.0781 L105.5498,809.1719 Q105.5498,810.4063 106.4404,811.2344 Q107.331,812.0469 108.9248,812.0469 Q109.8623,812.0469 110.5185,811.7969 Q110.9091,811.6406 111.331,811.2031 Q111.5966,810.9375 111.7373,810.8594 Q111.8935,810.7813 112.0966,810.7813 Q112.4248,810.7813 112.6748,811.0469 Q112.9404,811.2969 112.9404,811.6406 Q112.9404,811.9844 112.5966,812.3906 Q112.0966,812.9688 111.2998,813.2969 Q110.2216,813.75 108.9248,813.75 Q107.4091,813.75 106.206,813.125 Q105.2216,812.625 104.5341,811.5625 Q103.8466,810.4844 103.8466,809.2031 L103.8466,808.0469 Q103.8466,806.7188 104.456,805.5781 Q105.081,804.4219 106.1748,803.8125 Q107.2685,803.1875 108.5029,803.1875 Q109.2373,803.1875 109.8779,803.3594 Q110.5341,803.5156 111.081,803.875 Z " fill="#000000"/><text fill="#000000" font-family="sans-serif" font-size="14" lengthAdjust="spacing" textLength="37.3447" x="128.7188" y="813.7969">Movie</text><line style="stroke:#181818;stroke-width:0.5;" x1="65.5" x2="196.8789" y1="824" y2="824"/><text fill="#000000" font-family="sans-serif" font-size="14" lengthAdjust="spacing" textLength="94.1445" x="70.5" y="843.1074">-String movieId</text><text fill="#000000" font-family="sans-serif" font-size="14" lengthAdjust="spacing" textLength="108.917" x="70.5" y="861.7285">-String movieTitle</text><text fill="#000000" font-family="sans-serif" font-size="14" lengthAdjust="spacing" textLength="121.3789" x="70.5" y="880.3496">-String movieGenre</text><line style="stroke:#181818;stroke-width:0.5;" x1="65.5" x2="196.8789" y1="887.8633" y2="887.8633"/></g><!--class Theater--><g class="entity" data-entity="Theater" data-source-line="22" data-uid="ent0005" id="entity_Theater"><rect fill="#F1F1F1" height="103.8633" rx="2.5" ry="2.5" style="stroke:#181818;stroke-width:0.5;" width="138.0547" x="280" y="574.5"/><ellipse cx="321.013" cy="590.5" fill="#C2C2C2" rx="11" ry="11" style="stroke:#181818;stroke-width:1;"/><path d="M323.7786,586.375 Q323.9349,586.1563 324.1224,586.0469 Q324.3099,585.9375 324.5286,585.9375 Q324.9036,585.9375 325.138,586.2031 Q325.3724,586.4531 325.3724,587.0625 L325.3724,588.5156 Q325.3724,589.125 325.138,589.3906 Q324.9036,589.6563 324.5286,589.6563 Q324.1849,589.6563 323.9817,589.4531 Q323.7786,589.2656 323.6692,588.75 Q323.6224,588.3906 323.4349,588.2031 Q323.1067,587.8281 322.4974,587.6094 Q321.888,587.3906 321.263,587.3906 Q320.4974,587.3906 319.8567,587.7188 Q319.2317,588.0469 318.7317,588.7969 Q318.2474,589.5469 318.2474,590.5781 L318.2474,591.6719 Q318.2474,592.9063 319.138,593.7344 Q320.0286,594.5469 321.6224,594.5469 Q322.5599,594.5469 323.2161,594.2969 Q323.6067,594.1406 324.0286,593.7031 Q324.2942,593.4375 324.4349,593.3594 Q324.5911,593.2813 324.7942,593.2813 Q325.1224,593.2813 325.3724,593.5469 Q325.638,593.7969 325.638,594.1406 Q325.638,594.4844 325.2942,594.8906 Q324.7942,595.4688 323.9974,595.7969 Q322.9192,596.25 321.6224,596.25 Q320.1067,596.25 318.9036,595.625 Q317.9192,595.125 317.2317,594.0625 Q316.5442,592.9844 316.5442,591.7031 L316.5442,590.5469 Q316.5442,589.2188 317.1536,588.0781 Q317.7786,586.9219 318.8724,586.3125 Q319.9661,585.6875 321.2005,585.6875 Q321.9349,585.6875 322.5755,585.8594 Q323.2317,586.0156 323.7786,586.375 Z " fill="#000000"/><text fill="#000000" font-family="sans-serif" font-size="14" lengthAdjust="spacing" textLength="48.248" x="340.7937" y="596.2969">Theater</text><line style="stroke:#181818;stroke-width:0.5;" x1="281" x2="417.0547" y1="606.5" y2="606.5"/><text fill="#000000" font-family="sans-serif" font-size="14" lengthAdjust="spacing" textLength="100.3857" x="286" y="625.6074">-String theaterId</text><text fill="#000000" font-family="sans-serif" font-size="14" lengthAdjust="spacing" textLength="126.0547" x="286" y="644.2285">-String theaterName</text><text fill="#000000" font-family="sans-serif" font-size="14" lengthAdjust="spacing" textLength="66.124" x="286" y="662.8496">-String city</text><line style="stroke:#181818;stroke-width:0.5;" x1="281" x2="417.0547" y1="670.3633" y2="670.3633"/></g><!--class Screen--><g class="entity" data-entity="Screen" data-source-line="28" data-uid="ent0006" id="entity_Screen"><rect fill="#F1F1F1" height="85.2422" rx="2.5" ry="2.5" style="stroke:#181818;stroke-width:0.5;" width="120.9512" x="288.5" y="801.5"/><ellipse cx="323.5667" cy="817.5" fill="#C2C2C2" rx="11" ry="11" style="stroke:#181818;stroke-width:1;"/><path d="M326.3324,813.375 Q326.4886,813.1563 326.6761,813.0469 Q326.8636,812.9375 327.0824,812.9375 Q327.4574,812.9375 327.6917,813.2031 Q327.9261,813.4531 327.9261,814.0625 L327.9261,815.5156 Q327.9261,816.125 327.6917,816.3906 Q327.4574,816.6563 327.0824,816.6563 Q326.7386,816.6563 326.5355,816.4531 Q326.3324,816.2656 326.223,815.75 Q326.1761,815.3906 325.9886,815.2031 Q325.6605,814.8281 325.0511,814.6094 Q324.4417,814.3906 323.8167,814.3906 Q323.0511,814.3906 322.4105,814.7188 Q321.7855,815.0469 321.2855,815.7969 Q320.8011,816.5469 320.8011,817.5781 L320.8011,818.6719 Q320.8011,819.9063 321.6917,820.7344 Q322.5824,821.5469 324.1761,821.5469 Q325.1136,821.5469 325.7699,821.2969 Q326.1605,821.1406 326.5824,820.7031 Q326.848,820.4375 326.9886,820.3594 Q327.1449,820.2813 327.348,820.2813 Q327.6761,820.2813 327.9261,820.5469 Q328.1917,820.7969 328.1917,821.1406 Q328.1917,821.4844 327.848,821.8906 Q327.348,822.4688 326.5511,822.7969 Q325.473,823.25 324.1761,823.25 Q322.6605,823.25 321.4574,822.625 Q320.473,822.125 319.7855,821.0625 Q319.098,819.9844 319.098,818.7031 L319.098,817.5469 Q319.098,816.2188 319.7074,815.0781 Q320.3324,813.9219 321.4261,813.3125 Q322.5199,812.6875 323.7542,812.6875 Q324.4886,812.6875 325.1292,812.8594 Q325.7855,813.0156 326.3324,813.375 Z " fill="#000000"/><text fill="#000000" font-family="sans-serif" font-size="14" lengthAdjust="spacing" textLength="44.3584" x="342.026" y="823.2969">Screen</text><line style="stroke:#181818;stroke-width:0.5;" x1="289.5" x2="408.4512" y1="833.5" y2="833.5"/><text fill="#000000" font-family="sans-serif" font-size="14" lengthAdjust="spacing" textLength="98.8203" x="294.5" y="852.6074">-String screenId</text><text fill="#000000" font-family="sans-serif" font-size="14" lengthAdjust="spacing" textLength="108.9512" x="294.5" y="871.2285">-List&lt;Seat&gt; seats</text><line style="stroke:#181818;stroke-width:0.5;" x1="289.5" x2="408.4512" y1="878.7422" y2="878.7422"/></g><!--class Seat--><g class="entity" data-entity="Seat" data-source-line="33" data-uid="ent0007" id="entity_Seat"><rect fill="#F1F1F1" height="103.8633" rx="2.5" ry="2.5" style="stroke:#181818;stroke-width:0.5;" width="138.0615" x="360" y="991"/><ellipse cx="410.3809" cy="1007" fill="#C2C2C2" rx="11" ry="11" style="stroke:#181818;stroke-width:1;"/><path d="M413.1465,1002.875 Q413.3027,1002.6563 413.4902,1002.5469 Q413.6777,1002.4375 413.8965,1002.4375 Q414.2715,1002.4375 414.5059,1002.7031 Q414.7402,1002.9531 414.7402,1003.5625 L414.7402,1005.0156 Q414.7402,1005.625 414.5059,1005.8906 Q414.2715,1006.1563 413.8965,1006.1563 Q413.5527,1006.1563 413.3496,1005.9531 Q413.1465,1005.7656 413.0371,1005.25 Q412.9902,1004.8906 412.8027,1004.7031 Q412.4746,1004.3281 411.8652,1004.1094 Q411.2559,1003.8906 410.6309,1003.8906 Q409.8652,1003.8906 409.2246,1004.2188 Q408.5996,1004.5469 408.0996,1005.2969 Q407.6152,1006.0469 407.6152,1007.0781 L407.6152,1008.1719 Q407.6152,1009.4063 408.5059,1010.2344 Q409.3965,1011.0469 410.9902,1011.0469 Q411.9277,1011.0469 412.584,1010.7969 Q412.9746,1010.6406 413.3965,1010.2031 Q413.6621,1009.9375 413.8027,1009.8594 Q413.959,1009.7813 414.1621,1009.7813 Q414.4902,1009.7813 414.7402,1010.0469 Q415.0059,1010.2969 415.0059,1010.6406 Q415.0059,1010.9844 414.6621,1011.3906 Q414.1621,1011.9688 413.3652,1012.2969 Q412.2871,1012.75 410.9902,1012.75 Q409.4746,1012.75 408.2715,1012.125 Q407.2871,1011.625 406.5996,1010.5625 Q405.9121,1009.4844 405.9121,1008.2031 L405.9121,1007.0469 Q405.9121,1005.7188 406.5215,1004.5781 Q407.1465,1003.4219 408.2402,1002.8125 Q409.334,1002.1875 410.5684,1002.1875 Q411.3027,1002.1875 411.9434,1002.3594 Q412.5996,1002.5156 413.1465,1002.875 Z " fill="#000000"/><text fill="#000000" font-family="sans-serif" font-size="14" lengthAdjust="spacing" textLength="28.7998" x="430.8809" y="1012.7969">Seat</text><line style="stroke:#181818;stroke-width:0.5;" x1="361" x2="497.0615" y1="1023" y2="1023"/><text fill="#000000" font-family="sans-serif" font-size="14" lengthAdjust="spacing" textLength="83.2617" x="366" y="1042.1074">-String seatId</text><text fill="#000000" font-family="sans-serif" font-size="14" lengthAdjust="spacing" textLength="126.0615" x="366" y="1060.7285">-SeatType seatType</text><text fill="#000000" font-family="sans-serif" font-size="14" lengthAdjust="spacing" textLength="115.9717" x="366" y="1079.3496">-boolean isBooked</text><line style="stroke:#181818;stroke-width:0.5;" x1="361" x2="497.0615" y1="1086.8633" y2="1086.8633"/></g><!--class Show--><g class="entity" data-entity="Show" data-source-line="39" data-uid="ent0008" id="entity_Show"><rect fill="#F1F1F1" height="141.1055" rx="2.5" ry="2.5" style="stroke:#181818;stroke-width:0.5;" width="178.4961" x="42" y="556"/><ellipse cx="109.4878" cy="572" fill="#C2C2C2" rx="11" ry="11" style="stroke:#181818;stroke-width:1;"/><path d="M112.2534,567.875 Q112.4097,567.6563 112.5972,567.5469 Q112.7847,567.4375 113.0034,567.4375 Q113.3784,567.4375 113.6128,567.7031 Q113.8472,567.9531 113.8472,568.5625 L113.8472,570.0156 Q113.8472,570.625 113.6128,570.8906 Q113.3784,571.1563 113.0034,571.1563 Q112.6597,571.1563 112.4565,570.9531 Q112.2534,570.7656 112.144,570.25 Q112.0972,569.8906 111.9097,569.7031 Q111.5815,569.3281 110.9722,569.1094 Q110.3628,568.8906 109.7378,568.8906 Q108.9722,568.8906 108.3315,569.2188 Q107.7065,569.5469 107.2065,570.2969 Q106.7222,571.0469 106.7222,572.0781 L106.7222,573.1719 Q106.7222,574.4063 107.6128,575.2344 Q108.5034,576.0469 110.0972,576.0469 Q111.0347,576.0469 111.6909,575.7969 Q112.0815,575.6406 112.5034,575.2031 Q112.769,574.9375 112.9097,574.8594 Q113.0659,574.7813 113.269,574.7813 Q113.5972,574.7813 113.8472,575.0469 Q114.1128,575.2969 114.1128,575.6406 Q114.1128,575.9844 113.769,576.3906 Q113.269,576.9688 112.4722,577.2969 Q111.394,577.75 110.0972,577.75 Q108.5815,577.75 107.3784,577.125 Q106.394,576.625 105.7065,575.5625 Q105.019,574.4844 105.019,573.2031 L105.019,572.0469 Q105.019,570.7188 105.6284,569.5781 Q106.2534,568.4219 107.3472,567.8125 Q108.4409,567.1875 109.6753,567.1875 Q110.4097,567.1875 111.0503,567.3594 Q111.7065,567.5156 112.2534,567.875 Z " fill="#000000"/><text fill="#000000" font-family="sans-serif" font-size="14" lengthAdjust="spacing" textLength="35.0205" x="129.9878" y="577.7969">Show</text><line style="stroke:#181818;stroke-width:0.5;" x1="43" x2="219.4961" y1="588" y2="588"/><text fill="#000000" font-family="sans-serif" font-size="14" lengthAdjust="spacing" textLength="89.4824" x="48" y="607.1074">-String showId</text><text fill="#000000" font-family="sans-serif" font-size="14" lengthAdjust="spacing" textLength="83.2412" x="48" y="625.7285">-Movie movie</text><text fill="#000000" font-family="sans-serif" font-size="14" lengthAdjust="spacing" textLength="94.9307" x="48" y="644.3496">-Screen screen</text><text fill="#000000" font-family="sans-serif" font-size="14" lengthAdjust="spacing" textLength="166.4961" x="48" y="662.9707">-LocalDateTime showTime</text><text fill="#000000" font-family="sans-serif" font-size="14" lengthAdjust="spacing" textLength="156.4473" x="48" y="681.5918">-Set&lt;Seat&gt; bookedSeats</text><line style="stroke:#181818;stroke-width:0.5;" x1="43" x2="219.4961" y1="689.1055" y2="689.1055"/></g><!--class Booking--><g class="entity" data-entity="Booking" data-source-line="47" data-uid="ent0009" id="entity_Booking"><rect fill="#F1F1F1" height="159.7266" rx="2.5" ry="2.5" style="stroke:#181818;stroke-width:0.5;" width="249.3027" x="384.5" y="301"/><ellipse cx="479.605" cy="317" fill="#C2C2C2" rx="11" ry="11" style="stroke:#181818;stroke-width:1;"/><path d="M482.3706,312.875 Q482.5269,312.6563 482.7144,312.5469 Q482.9019,312.4375 483.1206,312.4375 Q483.4956,312.4375 483.73,312.7031 Q483.9644,312.9531 483.9644,313.5625 L483.9644,315.0156 Q483.9644,315.625 483.73,315.8906 Q483.4956,316.1563 483.1206,316.1563 Q482.7769,316.1563 482.5737,315.9531 Q482.3706,315.7656 482.2612,315.25 Q482.2144,314.8906 482.0269,314.7031 Q481.6987,314.3281 481.0894,314.1094 Q480.48,313.8906 479.855,313.8906 Q479.0894,313.8906 478.4487,314.2188 Q477.8237,314.5469 477.3237,315.2969 Q476.8394,316.0469 476.8394,317.0781 L476.8394,318.1719 Q476.8394,319.4063 477.73,320.2344 Q478.6206,321.0469 480.2144,321.0469 Q481.1519,321.0469 481.8081,320.7969 Q482.1987,320.6406 482.6206,320.2031 Q482.8862,319.9375 483.0269,319.8594 Q483.1831,319.7813 483.3862,319.7813 Q483.7144,319.7813 483.9644,320.0469 Q484.23,320.2969 484.23,320.6406 Q484.23,320.9844 483.8862,321.3906 Q483.3862,321.9688 482.5894,322.2969 Q481.5112,322.75 480.2144,322.75 Q478.6987,322.75 477.4956,322.125 Q476.5112,321.625 475.8237,320.5625 Q475.1362,319.4844 475.1362,318.2031 L475.1362,317.0469 Q475.1362,315.7188 475.7456,314.5781 Q476.3706,313.4219 477.4644,312.8125 Q478.5581,312.1875 479.7925,312.1875 Q480.5269,312.1875 481.1675,312.3594 Q481.8237,312.5156 482.3706,312.875 Z " fill="#000000"/><text fill="#000000" font-family="sans-serif" font-size="14" lengthAdjust="spacing" textLength="50.5928" x="500.105" y="322.7969">Booking</text><line style="stroke:#181818;stroke-width:0.5;" x1="385.5" x2="632.8027" y1="333" y2="333"/><text fill="#000000" font-family="sans-serif" font-size="14" lengthAdjust="spacing" textLength="105.8408" x="390.5" y="352.1074">-String bookingId</text><text fill="#000000" font-family="sans-serif" font-size="14" lengthAdjust="spacing" textLength="237.3027" x="390.5" y="370.7285">-BookMyShowUser bookMyShowUser</text><text fill="#000000" font-family="sans-serif" font-size="14" lengthAdjust="spacing" textLength="76.2549" x="390.5" y="389.3496">-Show show</text><text fill="#000000" font-family="sans-serif" font-size="14" lengthAdjust="spacing" textLength="108.9512" x="390.5" y="407.9707">-List&lt;Seat&gt; seats</text><text fill="#000000" font-family="sans-serif" font-size="14" lengthAdjust="spacing" textLength="125.3027" x="390.5" y="426.5918">-double totalAmount</text><text fill="#000000" font-family="sans-serif" font-size="14" lengthAdjust="spacing" textLength="187.5645" x="390.5" y="445.2129">-BookingStatus bookingStatus</text><line style="stroke:#181818;stroke-width:0.5;" x1="385.5" x2="632.8027" y1="452.7266" y2="452.7266"/></g><!--class BookMyShowUser--><g class="entity" data-entity="BookMyShowUser" data-source-line="56" data-uid="ent0010" id="entity_BookMyShowUser"><rect fill="#F1F1F1" height="85.2422" rx="2.5" ry="2.5" style="stroke:#181818;stroke-width:0.5;" width="147.1514" x="782.5" y="584"/><ellipse cx="797.5" cy="600" fill="#C2C2C2" rx="11" ry="11" style="stroke:#181818;stroke-width:1;"/><path d="M800.2656,595.875 Q800.4219,595.6563 800.6094,595.5469 Q800.7969,595.4375 801.0156,595.4375 Q801.3906,595.4375 801.625,595.7031 Q801.8594,595.9531 801.8594,596.5625 L801.8594,598.0156 Q801.8594,598.625 801.625,598.8906 Q801.3906,599.1563 801.0156,599.1563 Q800.6719,599.1563 800.4688,598.9531 Q800.2656,598.7656 800.1563,598.25 Q800.1094,597.8906 799.9219,597.7031 Q799.5938,597.3281 798.9844,597.1094 Q798.375,596.8906 797.75,596.8906 Q796.9844,596.8906 796.3438,597.2188 Q795.7188,597.5469 795.2188,598.2969 Q794.7344,599.0469 794.7344,600.0781 L794.7344,601.1719 Q794.7344,602.4063 795.625,603.2344 Q796.5156,604.0469 798.1094,604.0469 Q799.0469,604.0469 799.7031,603.7969 Q800.0938,603.6406 800.5156,603.2031 Q800.7813,602.9375 800.9219,602.8594 Q801.0781,602.7813 801.2813,602.7813 Q801.6094,602.7813 801.8594,603.0469 Q802.125,603.2969 802.125,603.6406 Q802.125,603.9844 801.7813,604.3906 Q801.2813,604.9688 800.4844,605.2969 Q799.4063,605.75 798.1094,605.75 Q796.5938,605.75 795.3906,605.125 Q794.4063,604.625 793.7188,603.5625 Q793.0313,602.4844 793.0313,601.2031 L793.0313,600.0469 Q793.0313,598.7188 793.6406,597.5781 Q794.2656,596.4219 795.3594,595.8125 Q796.4531,595.1875 797.6875,595.1875 Q798.4219,595.1875 799.0625,595.3594 Q799.7188,595.5156 800.2656,595.875 Z " fill="#000000"/><text fill="#000000" font-family="sans-serif" font-size="14" lengthAdjust="spacing" textLength="115.1514" x="811.5" y="605.7969">BookMyShowUser</text><line style="stroke:#181818;stroke-width:0.5;" x1="783.5" x2="928.6514" y1="616" y2="616"/><text fill="#000000" font-family="sans-serif" font-size="14" lengthAdjust="spacing" textLength="84.0342" x="788.5" y="635.1074">-String userId</text><text fill="#000000" font-family="sans-serif" font-size="14" lengthAdjust="spacing" textLength="107.3789" x="788.5" y="653.7285">-String username</text><line style="stroke:#181818;stroke-width:0.5;" x1="783.5" x2="928.6514" y1="661.2422" y2="661.2422"/></g><!--class BookMyShowService--><g class="entity" data-entity="BookMyShowService" data-source-line="61" data-uid="ent0011" id="entity_BookMyShowService"><rect fill="#F1F1F1" height="178.3477" rx="2.5" ry="2.5" style="stroke:#181818;stroke-width:0.5;" width="481.5947" x="7" y="17"/><ellipse cx="177.4097" cy="33" fill="#C2C2C2" rx="11" ry="11" style="stroke:#181818;stroke-width:1;"/><path d="M180.1753,28.875 Q180.3315,28.6563 180.519,28.5469 Q180.7065,28.4375 180.9253,28.4375 Q181.3003,28.4375 181.5347,28.7031 Q181.769,28.9531 181.769,29.5625 L181.769,31.0156 Q181.769,31.625 181.5347,31.8906 Q181.3003,32.1563 180.9253,32.1563 Q180.5815,32.1563 180.3784,31.9531 Q180.1753,31.7656 180.0659,31.25 Q180.019,30.8906 179.8315,30.7031 Q179.5034,30.3281 178.894,30.1094 Q178.2847,29.8906 177.6597,29.8906 Q176.894,29.8906 176.2534,30.2188 Q175.6284,30.5469 175.1284,31.2969 Q174.644,32.0469 174.644,33.0781 L174.644,34.1719 Q174.644,35.4063 175.5347,36.2344 Q176.4253,37.0469 178.019,37.0469 Q178.9565,37.0469 179.6128,36.7969 Q180.0034,36.6406 180.4253,36.2031 Q180.6909,35.9375 180.8315,35.8594 Q180.9878,35.7813 181.1909,35.7813 Q181.519,35.7813 181.769,36.0469 Q182.0347,36.2969 182.0347,36.6406 Q182.0347,36.9844 181.6909,37.3906 Q181.1909,37.9688 180.394,38.2969 Q179.3159,38.75 178.019,38.75 Q176.5034,38.75 175.3003,38.125 Q174.3159,37.625 173.6284,36.5625 Q172.9409,35.4844 172.9409,34.2031 L172.9409,33.0469 Q172.9409,31.7188 173.5503,30.5781 Q174.1753,29.4219 175.269,28.8125 Q176.3628,28.1875 177.5972,28.1875 Q178.3315,28.1875 178.9722,28.3594 Q179.6284,28.5156 180.1753,28.875 Z " fill="#000000"/><text fill="#000000" font-family="sans-serif" font-size="14" lengthAdjust="spacing" textLength="132.2754" x="197.9097" y="38.7969">BookMyShowService</text><line style="stroke:#181818;stroke-width:0.5;" x1="8" x2="487.5947" y1="49" y2="49"/><text fill="#000000" font-family="sans-serif" font-size="14" lengthAdjust="spacing" textLength="198.4268" x="13" y="68.1074">-Map&lt;String, Show&gt; showsMap</text><text fill="#000000" font-family="sans-serif" font-size="14" lengthAdjust="spacing" textLength="230.3574" x="13" y="86.7285">-Map&lt;String, Booking&gt; bookingsMap</text><line style="stroke:#181818;stroke-width:0.5;" x1="8" x2="487.5947" y1="94.2422" y2="94.2422"/><text fill="#000000" font-family="sans-serif" font-size="14" lengthAdjust="spacing" textLength="469.5947" x="13" y="113.3496">+Booking bookTickets(User user, String showId, List&lt;String&gt; seatNumbers)</text><text fill="#000000" font-family="sans-serif" font-size="14" lengthAdjust="spacing" textLength="3.8896" x="13" y="131.9707">&#160;</text><text fill="#000000" font-family="sans-serif" font-size="14" lengthAdjust="spacing" textLength="412.8018" x="13" y="150.5918">+void addShow(Movie movie, Screen screen, int numberOfShows)</text><text fill="#000000" font-family="sans-serif" font-size="14" lengthAdjust="spacing" textLength="242.4229" x="13" y="169.2129">+void onboardTheater(Theater theater)</text><text fill="#000000" font-family="sans-serif" font-size="14" lengthAdjust="spacing" textLength="373.1465" x="13" y="187.834">+void addScreenToTheater(Theater theater, Screen screen)</text></g><g class="entity" data-entity="GMN14" data-source-line="87" data-uid="ent0015" id="entity_GMN14"><path d="M549,6 L549,102 L489.08,106 L549,110 L549,206.2012 A0,0 0 0 0 549,206.2012 L780.666,206.2012 A0,0 0 0 0 780.666,206.2012 L780.666,16 L770.666,6 L549,6 A0,0 0 0 0 549,6" fill="#FAFAFA" style="stroke:#181818;stroke-width:0.5;"/><path d="M770.666,6 L770.666,16 L780.666,16 L770.666,6" fill="#FAFAFA" style="stroke:#181818;stroke-width:0.5;"/><text fill="#000000" font-family="sans-serif" font-size="13" lengthAdjust="spacing" textLength="3.6118" x="555" y="25.0283">&#160;</text><text fill="#000000" font-family="sans-serif" font-size="13" lengthAdjust="spacing" textLength="165.8262" x="555" y="42.3193">showsMap : showId -&gt; Show</text><text fill="#000000" font-family="sans-serif" font-size="13" lengthAdjust="spacing" textLength="210.666" x="555" y="59.6104">bookingsMap : bookingId -&gt; Booking</text><text fill="#000000" font-family="sans-serif" font-size="13" lengthAdjust="spacing" textLength="3.6118" x="555" y="76.9014">&#160;</text><text fill="#000000" font-family="sans-serif" font-size="13" lengthAdjust="spacing" textLength="62.1245" x="555" y="94.1924">User APIs:</text><text fill="#000000" font-family="sans-serif" font-size="13" lengthAdjust="spacing" textLength="86.9121" x="558.6118" y="111.4834">&#8226; bookTickets()</text><text fill="#000000" font-family="sans-serif" font-size="13" lengthAdjust="spacing" textLength="3.6118" x="555" y="128.7744">&#160;</text><text fill="#000000" font-family="sans-serif" font-size="13" lengthAdjust="spacing" textLength="71.5254" x="555" y="146.0654">Admin APIs:</text><text fill="#000000" font-family="sans-serif" font-size="13" lengthAdjust="spacing" textLength="71.7603" x="558.6118" y="163.3564">&#8226; addShow()</text><text fill="#000000" font-family="sans-serif" font-size="13" lengthAdjust="spacing" textLength="110.062" x="558.6118" y="180.6475">&#8226; onboardTheater()</text><text fill="#000000" font-family="sans-serif" font-size="13" lengthAdjust="spacing" textLength="138.7344" x="558.6118" y="197.9385">. addScreenToTheater()</text></g><!--reverse link BookMyShowService to Show--><g class="link" data-entity-1="BookMyShowService" data-entity-2="Show" data-source-line="82" data-uid="lnk12" id="link_BookMyShowService_Show"><path codeLine="82" d="M225.4479,206.9555 C202.4479,308.8555 167.74,462.68 146.7,555.92" fill="none" id="BookMyShowService-backto-Show" style="stroke:#181818;stroke-width:1;"/><polygon fill="none" points="228.09,195.25,222.8671,200.2221,225.4479,206.9555,230.6708,201.9835,228.09,195.25" style="stroke:#181818;stroke-width:1;"/><text fill="#000000" font-family="sans-serif" font-size="13" lengthAdjust="spacing" textLength="53.479" x="205" y="386.5283">manages</text><text fill="#000000" font-family="sans-serif" font-size="13" lengthAdjust="spacing" textLength="31.7891" x="115.7357" y="544.8028">many</text></g><!--reverse link BookMyShowService to Booking--><g class="link" data-entity-1="BookMyShowService" data-entity-2="Booking" data-source-line="83" data-uid="lnk13" id="link_BookMyShowService_Booking"><path codeLine="83" d="M340.6729,203.9334 C373.1429,237.8934 401.69,267.75 433.29,300.81" fill="none" id="BookMyShowService-backto-Booking" style="stroke:#181818;stroke-width:1;"/><polygon fill="none" points="332.38,195.26,333.6353,202.361,340.6729,203.9334,339.4176,196.8324,332.38,195.26" style="stroke:#181818;stroke-width:1;"/><text fill="#000000" font-family="sans-serif" font-size="13" lengthAdjust="spacing" textLength="53.479" x="395" y="259.0283">manages</text><text fill="#000000" font-family="sans-serif" font-size="13" lengthAdjust="spacing" textLength="31.7891" x="393.904" y="289.6882">many</text></g><!--reverse link Theater to Screen--><g class="link" data-entity-1="Theater" data-entity-2="Screen" data-source-line="101" data-uid="lnk17" id="link_Theater_Screen"><path codeLine="101" d="M349,690.57 C349,728.03 349,766.28 349,801.33" fill="none" id="Theater-backto-Screen" style="stroke:#181818;stroke-width:1;"/><polygon fill="#181818" points="349,678.57,345,684.57,349,690.57,353,684.57,349,678.57" style="stroke:#181818;stroke-width:1;"/><text fill="#000000" font-family="sans-serif" font-size="13" lengthAdjust="spacing" textLength="48.4199" x="350" y="750.0283">contains</text><text fill="#000000" font-family="sans-serif" font-size="13" lengthAdjust="spacing" textLength="7.23" x="341.5628" y="700.3863">1</text><text fill="#000000" font-family="sans-serif" font-size="13" lengthAdjust="spacing" textLength="31.7891" x="315.5965" y="790.207">many</text></g><!--reverse link Screen to Seat--><g class="link" data-entity-1="Screen" data-entity-2="Seat" data-source-line="102" data-uid="lnk18" id="link_Screen_Seat"><path codeLine="102" d="M370.4828,897.8991 C382.8128,928.2791 395.08,958.46 408.22,990.83" fill="none" id="Screen-backto-Seat" style="stroke:#181818;stroke-width:1;"/><polygon fill="#181818" points="365.97,886.78,364.52,893.8438,370.4828,897.8991,371.9328,890.8353,365.97,886.78" style="stroke:#181818;stroke-width:1;"/><text fill="#000000" font-family="sans-serif" font-size="13" lengthAdjust="spacing" textLength="48.4199" x="392" y="949.0283">contains</text><text fill="#000000" font-family="sans-serif" font-size="13" lengthAdjust="spacing" textLength="7.23" x="361.0539" y="908.6643">1</text><text fill="#000000" font-family="sans-serif" font-size="13" lengthAdjust="spacing" textLength="31.7891" x="372.3938" y="979.7345">many</text></g><!--link Show to Movie--><g class="link" data-entity-1="Show" data-entity-2="Movie" data-source-line="105" data-uid="lnk19" id="link_Show_Movie"><path codeLine="105" d="M131,697.17 C131,727.91 131,757.4 131,785.67" fill="none" id="Show-to-Movie" style="stroke:#181818;stroke-width:1;"/><polygon fill="#181818" points="131,791.67,135,782.67,131,786.67,127,782.67,131,791.67" style="stroke:#181818;stroke-width:1;"/><text fill="#000000" font-family="sans-serif" font-size="13" lengthAdjust="spacing" textLength="30.3481" x="132" y="750.0283">plays</text><text fill="#000000" font-family="sans-serif" font-size="13" lengthAdjust="spacing" textLength="7.23" x="123.6253" y="719.3723">1</text><text fill="#000000" font-family="sans-serif" font-size="13" lengthAdjust="spacing" textLength="7.23" x="123.5197" y="780.553">1</text></g><!--link Show to Screen--><g class="link" data-entity-1="Show" data-entity-2="Screen" data-source-line="106" data-uid="lnk20" id="link_Show_Screen"><path codeLine="106" d="M201.48,697.17 C236.18,731.48 272.6024,767.4825 302.4524,796.9825" fill="none" id="Show-to-Screen" style="stroke:#181818;stroke-width:1;"/><polygon fill="#181818" points="306.72,801.2,303.1303,792.0286,303.1637,797.6854,297.5069,797.7187,306.72,801.2" style="stroke:#181818;stroke-width:1;"/><text fill="#000000" font-family="sans-serif" font-size="13" lengthAdjust="spacing" textLength="14.46" x="255" y="750.0283">on</text><text fill="#000000" font-family="sans-serif" font-size="13" lengthAdjust="spacing" textLength="7.23" x="201.3736" y="719.3723">1</text><text fill="#000000" font-family="sans-serif" font-size="13" lengthAdjust="spacing" textLength="7.23" x="292.7313" y="790.3767">1</text></g><!--link Booking to BookMyShowUser--><g class="link" data-entity-1="Booking" data-entity-2="BookMyShowUser" data-source-line="107" data-uid="lnk21" id="link_Booking_BookMyShowUser"><path codeLine="107" d="M621.66,461.06 C680.04,502.02 744.0288,546.9233 791.9488,580.5533" fill="none" id="Booking-to-BookMyShowUser" style="stroke:#181818;stroke-width:1;"/><polygon fill="#181818" points="796.86,584,791.7909,575.5558,792.7673,581.1278,787.1953,582.1041,796.86,584" style="stroke:#181818;stroke-width:1;"/><text fill="#000000" font-family="sans-serif" font-size="13" lengthAdjust="spacing" textLength="13.73" x="693" y="514.0283">by</text><text fill="#000000" font-family="sans-serif" font-size="13" lengthAdjust="spacing" textLength="7.23" x="624.0378" y="482.7232">1</text><text fill="#000000" font-family="sans-serif" font-size="13" lengthAdjust="spacing" textLength="7.23" x="779.4918" y="572.5855">1</text></g><!--link Booking to Show--><g class="link" data-entity-1="Booking" data-entity-2="Show" data-source-line="108" data-uid="lnk22" id="link_Booking_Show"><path codeLine="108" d="M386.27,461.06 C332.17,495.91 274.8041,532.8609 225.2341,564.7909" fill="none" id="Booking-to-Show" style="stroke:#181818;stroke-width:1;"/><polygon fill="#181818" points="220.19,568.04,229.9223,566.5291,224.3934,565.3324,225.5901,559.8036,220.19,568.04" style="stroke:#181818;stroke-width:1;"/><text fill="#000000" font-family="sans-serif" font-size="13" lengthAdjust="spacing" textLength="15.1709" x="321" y="514.0283">for</text><text fill="#000000" font-family="sans-serif" font-size="13" lengthAdjust="spacing" textLength="7.23" x="369.2081" y="482.1679">1</text><text fill="#000000" font-family="sans-serif" font-size="13" lengthAdjust="spacing" textLength="7.23" x="228.4334" y="559.113">1</text></g><!--link Booking to Seat--><g class="link" data-entity-1="Booking" data-entity-2="Seat" data-source-line="109" data-uid="lnk23" id="link_Booking_Seat"><path codeLine="109" d="M506.69,461.23 C502.33,572.14 489.99,779.58 456,953 C453.58,965.36 451.8273,972.698 448.1973,984.928" fill="none" id="Booking-to-Seat" style="stroke:#181818;stroke-width:1;"/><polygon fill="#181818" points="446.49,990.68,452.8855,983.1902,447.9127,985.8867,445.2162,980.9139,446.49,990.68" style="stroke:#181818;stroke-width:1;"/><text fill="#000000" font-family="sans-serif" font-size="13" lengthAdjust="spacing" textLength="49.8481" x="488" y="750.0283">reserves</text><text fill="#000000" font-family="sans-serif" font-size="13" lengthAdjust="spacing" textLength="7.23" x="499.2058" y="482.6296">1</text><text fill="#000000" font-family="sans-serif" font-size="13" lengthAdjust="spacing" textLength="31.7891" x="415.8063" y="979.5644">many</text></g><!--link Seat to SeatType--><g class="link" data-entity-1="Seat" data-entity-2="SeatType" data-source-line="112" data-uid="lnk24" id="link_Seat_SeatType"><path codeLine="112" d="M429,1095.24 C429,1124.94 429,1155.88 429,1183.8" fill="none" id="Seat-to-SeatType" style="stroke:#181818;stroke-width:1;"/><polygon fill="#181818" points="429,1189.8,433,1180.8,429,1184.8,425,1180.8,429,1189.8" style="stroke:#181818;stroke-width:1;"/><text fill="#000000" font-family="sans-serif" font-size="13" lengthAdjust="spacing" textLength="24.5718" x="430" y="1148.0283">type</text></g><!--link Booking to BookingStatus--><g class="link" data-entity-1="Booking" data-entity-2="BookingStatus" data-source-line="113" data-uid="lnk25" id="link_Booking_BookingStatus"><path codeLine="113" d="M558.35,461.06 C581.58,498.27 605.4432,536.49 625.9332,569.32" fill="none" id="Booking-to-BookingStatus" style="stroke:#181818;stroke-width:1;"/><polygon fill="#181818" points="629.11,574.41,627.7381,564.6572,626.4627,570.1683,620.9515,568.8929,629.11,574.41" style="stroke:#181818;stroke-width:1;"/><text fill="#000000" font-family="sans-serif" font-size="13" lengthAdjust="spacing" textLength="34.6836" x="590" y="514.0283">status</text></g><!--SRC=[VLNTRjem5BxFKrZS53QOkejj4kgGCfgraI1593o0avXYDR6HxJ2nQTAUPO-s9zavTX8IeEq5TRxpz_cSp_OD-NhbZmJHPXbVDNbCL2M96JN9SS_8Bu-GTV2mMVXhMAtMmJBSBBtVddFx9kKB5y-neQRIrdSLHFTXz02h-LFqFLmlWtjS-z4yM2nW3P4trodD5tuS1w-GoWggDLdA0tUK9YGs2YgJ4g4mlu0IRWfsWJumeHXoSFcI7MoJgNv6uy1-pXgCQDbBcd5pFAMBCyMOw6VJ5gkJBRWsTzZQ6T7mgpkXy7aM24Z3eHc6hXSMJQKi61M4Qvm2opl9TlB7MJ90wcIkXxORpiEHTZmTIvdHuXwsc_2IsL1Sr4mQ_gcj6VTtKSkXNpjrO5qUNPP7PBZHqFcqz-d2a3rMlTuo17DPfGKZHXfQ-AMiX6bpdzIOTh_w73i4UbGhVJvtH0GE_KfypDI1PuqUbtH_vuB6TWipkmSDy8MvvZbhA5edyBeXbfA_2d6Rxzjsebl2inTczD1w8AjnVxRZkbCMSxsAgZ9bIezSQZylkJZbFaYU4vhdI7NOqSIuBuWnuS8GOJCzRT4PyhNnKgIIghm-HiFcEDM7PTGlPFCbyXNdixgZDowATR3ma_0fYX_3rIlNXOQ-xQcY9H4oPvhjoUVR3gYeU47mowSEg7Sqbp-merjQQDQnb5B8RASad0QZggx5Ii8tqFIqCYpCf8ZvJqPkaNiZZv8A-imqoQHYX0d33MVQkvIHd4p809oF0tS4fatasxwDI4xkK3kIXf6jL4XGuHqb453yUMU8t5vg62NIo1KoEKcHoSmo0Lj7g61kJpHwrFKnGwlUANoGVt_-zfHhTNXIOUlJY73K06UgilY7Qn8QmIEK4zmQxdakoxtKq5qfo13EWOIc31wfdlY3aTUeRV1nGDvr6kqqDuNX24Evq5wDdFlXzTpnWdA-rZBZ5CjvTbuOCe66u7zteAPaNz2ZlZItPI6scL_NVdP7GSUFL_rgdS2WByqzuWhEW3euRGJuS5VQIiMQqRrzOgR4u0FJf9kS9bnVgw0ETwF-1m00]--></g></svg>