<svg xmlns="http://www.w3.org/2000/svg" xmlns:xlink="http://www.w3.org/1999/xlink" contentStyleType="text/css" data-diagram-type="CLASS" height="812px" preserveAspectRatio="none" style="width:1058px;height:812px;background:#FFFFFF;" version="1.1" viewBox="0 0 1058 812" width="1058px" zoomAndPan="magnify"><defs/><g><!--cluster lld--><g class="cluster" data-entity="lld" data-source-line="3" data-uid="ent0003" id="cluster_lld"><path d="M8.5,6.0137 L25.8311,6.0137 A3.75,3.75 0 0 1 28.3311,8.5137 L35.3311,30.6348 L1048.5,30.6348 A2.5,2.5 0 0 1 1051,33.1348 L1051,802.5137 A2.5,2.5 0 0 1 1048.5,805.0137 L8.5,805.0137 A2.5,2.5 0 0 1 6,802.5137 L6,8.5137 A2.5,2.5 0 0 1 8.5,6.0137" fill="none" style="stroke:#000000;stroke-width:1.5;"/><line style="stroke:#000000;stroke-width:1.5;" x1="6" x2="35.3311" y1="30.6348" y2="30.6348"/><text fill="#000000" font-family="sans-serif" font-size="14" font-weight="bold" lengthAdjust="spacing" textLength="16.3311" x="10" y="23.1211">lld</text></g><!--cluster parkinglot--><g class="cluster" data-entity="parkinglot" data-source-line="3" data-uid="ent0004" id="cluster_parkinglot"><path d="M32.5,51.0137 L101.1689,51.0137 A3.75,3.75 0 0 1 103.6689,53.5137 L110.6689,75.6348 L1024.5,75.6348 A2.5,2.5 0 0 1 1027,78.1348 L1027,778.5137 A2.5,2.5 0 0 1 1024.5,781.0137 L32.5,781.0137 A2.5,2.5 0 0 1 30,778.5137 L30,53.5137 A2.5,2.5 0 0 1 32.5,51.0137" fill="none" style="stroke:#000000;stroke-width:1.5;"/><line style="stroke:#000000;stroke-width:1.5;" x1="30" x2="110.6689" y1="75.6348" y2="75.6348"/><text fill="#000000" font-family="sans-serif" font-size="14" font-weight="bold" lengthAdjust="spacing" textLength="67.6689" x="34" y="68.1211">parkinglot</text></g><!--class ParkingLot--><g class="entity" data-entity="ParkingLot" data-source-line="3" data-uid="ent0002" id="entity_ParkingLot"><rect fill="#F1F1F1" height="141.1055" rx="2.5" ry="2.5" style="stroke:#181818;stroke-width:0.5;" width="359.874" x="651" y="88.0137"/><ellipse cx="793.2217" cy="104.0137" fill="#ADD1B2" rx="11" ry="11" style="stroke:#181818;stroke-width:1;"/><path d="M795.9873,99.8887 Q796.1436,99.6699 796.3311,99.5605 Q796.5186,99.4512 796.7373,99.4512 Q797.1123,99.4512 797.3467,99.7168 Q797.5811,99.9668 797.5811,100.5762 L797.5811,102.0293 Q797.5811,102.6387 797.3467,102.9043 Q797.1123,103.1699 796.7373,103.1699 Q796.3936,103.1699 796.1904,102.9668 Q795.9873,102.7793 795.8779,102.2637 Q795.8311,101.9043 795.6436,101.7168 Q795.3154,101.3418 794.7061,101.123 Q794.0967,100.9043 793.4717,100.9043 Q792.7061,100.9043 792.0654,101.2324 Q791.4404,101.5605 790.9404,102.3105 Q790.4561,103.0605 790.4561,104.0918 L790.4561,105.1855 Q790.4561,106.4199 791.3467,107.248 Q792.2373,108.0605 793.8311,108.0605 Q794.7686,108.0605 795.4248,107.8105 Q795.8154,107.6543 796.2373,107.2168 Q796.5029,106.9512 796.6436,106.873 Q796.7998,106.7949 797.0029,106.7949 Q797.3311,106.7949 797.5811,107.0605 Q797.8467,107.3105 797.8467,107.6543 Q797.8467,107.998 797.5029,108.4043 Q797.0029,108.9824 796.2061,109.3105 Q795.1279,109.7637 793.8311,109.7637 Q792.3154,109.7637 791.1123,109.1387 Q790.1279,108.6387 789.4404,107.5762 Q788.7529,106.498 788.7529,105.2168 L788.7529,104.0605 Q788.7529,102.7324 789.3623,101.5918 Q789.9873,100.4355 791.0811,99.8262 Q792.1748,99.2012 793.4092,99.2012 Q794.1436,99.2012 794.7842,99.373 Q795.4404,99.5293 795.9873,99.8887 Z " fill="#000000"/><text fill="#000000" font-family="sans-serif" font-size="14" lengthAdjust="spacing" textLength="66.9307" x="813.7217" y="109.8105">ParkingLot</text><line style="stroke:#181818;stroke-width:0.5;" x1="652" x2="1009.874" y1="120.0137" y2="120.0137"/><rect fill="none" height="6" style="stroke:#C82930;stroke-width:1;" width="6" x="659" y="131.8242"/><text fill="#000000" font-family="sans-serif" font-size="14" lengthAdjust="spacing" textLength="108.1582" x="671" y="139.1211">List&lt;Floor&gt; floors</text><rect fill="none" height="6" style="stroke:#C82930;stroke-width:1;" width="6" x="659" y="150.4453"/><text fill="#000000" font-family="sans-serif" font-size="14" lengthAdjust="spacing" textLength="333.874" x="671" y="157.7422">Map&lt;VehicleType,List&lt;ParkingSpot&gt;&gt; availableSpots</text><line style="stroke:#181818;stroke-width:0.5;" x1="652" x2="1009.874" y1="165.2559" y2="165.2559"/><ellipse cx="662" cy="180.0664" fill="#84BE84" rx="3" ry="3" style="stroke:#038048;stroke-width:1;"/><text fill="#000000" font-family="sans-serif" font-size="14" lengthAdjust="spacing" textLength="169.6201" x="671" y="184.3633">Ticket parkVehicle(Vehicle)</text><ellipse cx="662" cy="198.6875" fill="#84BE84" rx="3" ry="3" style="stroke:#038048;stroke-width:1;"/><text fill="#000000" font-family="sans-serif" font-size="14" lengthAdjust="spacing" textLength="172.7373" x="671" y="202.9844">Payment exitVehicle(String)</text><ellipse cx="662" cy="217.3086" fill="#84BE84" rx="3" ry="3" style="stroke:#038048;stroke-width:1;"/><text fill="#000000" font-family="sans-serif" font-size="14" lengthAdjust="spacing" textLength="259.9023" x="671" y="221.6055">int numberOfAvailableSpots(VehicleType)</text></g><!--class Ticket--><g class="entity" data-entity="Ticket" data-source-line="12" data-uid="ent0005" id="entity_Ticket"><rect fill="#F1F1F1" height="122.4844" rx="2.5" ry="2.5" style="stroke:#181818;stroke-width:0.5;" width="190.9512" x="441.5" y="298.0137"/><ellipse cx="514.0566" cy="314.0137" fill="#ADD1B2" rx="11" ry="11" style="stroke:#181818;stroke-width:1;"/><path d="M516.8223,309.8887 Q516.9785,309.6699 517.166,309.5605 Q517.3535,309.4512 517.5723,309.4512 Q517.9473,309.4512 518.1816,309.7168 Q518.416,309.9668 518.416,310.5762 L518.416,312.0293 Q518.416,312.6387 518.1816,312.9043 Q517.9473,313.1699 517.5723,313.1699 Q517.2285,313.1699 517.0254,312.9668 Q516.8223,312.7793 516.7129,312.2637 Q516.666,311.9043 516.4785,311.7168 Q516.1504,311.3418 515.541,311.123 Q514.9316,310.9043 514.3066,310.9043 Q513.541,310.9043 512.9004,311.2324 Q512.2754,311.5605 511.7754,312.3105 Q511.291,313.0605 511.291,314.0918 L511.291,315.1855 Q511.291,316.4199 512.1816,317.248 Q513.0723,318.0605 514.666,318.0605 Q515.6035,318.0605 516.2598,317.8105 Q516.6504,317.6543 517.0723,317.2168 Q517.3379,316.9512 517.4785,316.873 Q517.6348,316.7949 517.8379,316.7949 Q518.166,316.7949 518.416,317.0605 Q518.6816,317.3105 518.6816,317.6543 Q518.6816,317.998 518.3379,318.4043 Q517.8379,318.9824 517.041,319.3105 Q515.9629,319.7637 514.666,319.7637 Q513.1504,319.7637 511.9473,319.1387 Q510.9629,318.6387 510.2754,317.5762 Q509.5879,316.498 509.5879,315.2168 L509.5879,314.0605 Q509.5879,312.7324 510.1973,311.5918 Q510.8223,310.4355 511.916,309.8262 Q513.0098,309.2012 514.2441,309.2012 Q514.9785,309.2012 515.6191,309.373 Q516.2754,309.5293 516.8223,309.8887 Z " fill="#000000"/><text fill="#000000" font-family="sans-serif" font-size="14" lengthAdjust="spacing" textLength="37.3379" x="534.5566" y="319.8105">Ticket</text><line style="stroke:#181818;stroke-width:0.5;" x1="442.5" x2="631.4512" y1="330.0137" y2="330.0137"/><rect fill="none" height="6" style="stroke:#C82930;stroke-width:1;" width="6" x="449.5" y="341.8242"/><text fill="#000000" font-family="sans-serif" font-size="14" lengthAdjust="spacing" textLength="84.8135" x="461.5" y="349.1211">String ticketId</text><rect fill="none" height="6" style="stroke:#C82930;stroke-width:1;" width="6" x="449.5" y="360.4453"/><text fill="#000000" font-family="sans-serif" font-size="14" lengthAdjust="spacing" textLength="93.3857" x="461.5" y="367.7422">Vehicle vehicle</text><rect fill="none" height="6" style="stroke:#C82930;stroke-width:1;" width="6" x="449.5" y="379.0664"/><text fill="#000000" font-family="sans-serif" font-size="14" lengthAdjust="spacing" textLength="154.875" x="461.5" y="386.3633">ParkingSpot parkingSpot</text><rect fill="none" height="6" style="stroke:#C82930;stroke-width:1;" width="6" x="449.5" y="397.6875"/><text fill="#000000" font-family="sans-serif" font-size="14" lengthAdjust="spacing" textLength="164.9512" x="461.5" y="404.9844">LocalDateTime timeStamp</text><line style="stroke:#181818;stroke-width:0.5;" x1="442.5" x2="631.4512" y1="412.498" y2="412.498"/></g><!--class Vehicle--><g class="entity" data-entity="Vehicle" data-source-line="19" data-uid="ent0006" id="entity_Vehicle"><rect fill="#F1F1F1" height="85.2422" rx="2.5" ry="2.5" style="stroke:#181818;stroke-width:0.5;" width="181.6338" x="500" y="680.0137"/><ellipse cx="563.6084" cy="696.0137" fill="#ADD1B2" rx="11" ry="11" style="stroke:#181818;stroke-width:1;"/><path d="M566.374,691.8887 Q566.5303,691.6699 566.7178,691.5605 Q566.9053,691.4512 567.124,691.4512 Q567.499,691.4512 567.7334,691.7168 Q567.9678,691.9668 567.9678,692.5762 L567.9678,694.0293 Q567.9678,694.6387 567.7334,694.9043 Q567.499,695.1699 567.124,695.1699 Q566.7803,695.1699 566.5771,694.9668 Q566.374,694.7793 566.2646,694.2637 Q566.2178,693.9043 566.0303,693.7168 Q565.7021,693.3418 565.0928,693.123 Q564.4834,692.9043 563.8584,692.9043 Q563.0928,692.9043 562.4521,693.2324 Q561.8271,693.5605 561.3271,694.3105 Q560.8428,695.0605 560.8428,696.0918 L560.8428,697.1855 Q560.8428,698.4199 561.7334,699.248 Q562.624,700.0605 564.2178,700.0605 Q565.1553,700.0605 565.8115,699.8105 Q566.2021,699.6543 566.624,699.2168 Q566.8896,698.9512 567.0303,698.873 Q567.1865,698.7949 567.3896,698.7949 Q567.7178,698.7949 567.9678,699.0605 Q568.2334,699.3105 568.2334,699.6543 Q568.2334,699.998 567.8896,700.4043 Q567.3896,700.9824 566.5928,701.3105 Q565.5146,701.7637 564.2178,701.7637 Q562.7021,701.7637 561.499,701.1387 Q560.5146,700.6387 559.8271,699.5762 Q559.1396,698.498 559.1396,697.2168 L559.1396,696.0605 Q559.1396,694.7324 559.749,693.5918 Q560.374,692.4355 561.4678,691.8262 Q562.5615,691.2012 563.7959,691.2012 Q564.5303,691.2012 565.1709,691.373 Q565.8271,691.5293 566.374,691.8887 Z " fill="#000000"/><text fill="#000000" font-family="sans-serif" font-size="14" lengthAdjust="spacing" textLength="45.917" x="584.1084" y="701.8105">Vehicle</text><line style="stroke:#181818;stroke-width:0.5;" x1="501" x2="680.6338" y1="712.0137" y2="712.0137"/><rect fill="none" height="6" style="stroke:#C82930;stroke-width:1;" width="6" x="508" y="723.8242"/><text fill="#000000" font-family="sans-serif" font-size="14" lengthAdjust="spacing" textLength="115.9512" x="520" y="731.1211">String licensePlate</text><rect fill="none" height="6" style="stroke:#C82930;stroke-width:1;" width="6" x="508" y="742.4453"/><text fill="#000000" font-family="sans-serif" font-size="14" lengthAdjust="spacing" textLength="155.6338" x="520" y="749.7422">VehicleType vehicleType</text><line style="stroke:#181818;stroke-width:0.5;" x1="501" x2="680.6338" y1="757.2559" y2="757.2559"/></g><!--class Payment--><g class="entity" data-entity="Payment" data-source-line="24" data-uid="ent0007" id="entity_Payment"><rect fill="#F1F1F1" height="122.4844" rx="2.5" ry="2.5" style="stroke:#181818;stroke-width:0.5;" width="218.2129" x="383" y="97.5137"/><ellipse cx="460.2324" cy="113.5137" fill="#ADD1B2" rx="11" ry="11" style="stroke:#181818;stroke-width:1;"/><path d="M462.998,109.3887 Q463.1543,109.1699 463.3418,109.0605 Q463.5293,108.9512 463.748,108.9512 Q464.123,108.9512 464.3574,109.2168 Q464.5918,109.4668 464.5918,110.0762 L464.5918,111.5293 Q464.5918,112.1387 464.3574,112.4043 Q464.123,112.6699 463.748,112.6699 Q463.4043,112.6699 463.2012,112.4668 Q462.998,112.2793 462.8887,111.7637 Q462.8418,111.4043 462.6543,111.2168 Q462.3262,110.8418 461.7168,110.623 Q461.1074,110.4043 460.4824,110.4043 Q459.7168,110.4043 459.0762,110.7324 Q458.4512,111.0605 457.9512,111.8105 Q457.4668,112.5605 457.4668,113.5918 L457.4668,114.6855 Q457.4668,115.9199 458.3574,116.748 Q459.248,117.5605 460.8418,117.5605 Q461.7793,117.5605 462.4355,117.3105 Q462.8262,117.1543 463.248,116.7168 Q463.5137,116.4512 463.6543,116.373 Q463.8105,116.2949 464.0137,116.2949 Q464.3418,116.2949 464.5918,116.5605 Q464.8574,116.8105 464.8574,117.1543 Q464.8574,117.498 464.5137,117.9043 Q464.0137,118.4824 463.2168,118.8105 Q462.1387,119.2637 460.8418,119.2637 Q459.3262,119.2637 458.123,118.6387 Q457.1387,118.1387 456.4512,117.0762 Q455.7637,115.998 455.7637,114.7168 L455.7637,113.5605 Q455.7637,112.2324 456.373,111.0918 Q456.998,109.9355 458.0918,109.3262 Q459.1855,108.7012 460.4199,108.7012 Q461.1543,108.7012 461.7949,108.873 Q462.4512,109.0293 462.998,109.3887 Z " fill="#000000"/><text fill="#000000" font-family="sans-serif" font-size="14" lengthAdjust="spacing" textLength="55.248" x="480.7324" y="119.3105">Payment</text><line style="stroke:#181818;stroke-width:0.5;" x1="384" x2="600.2129" y1="129.5137" y2="129.5137"/><rect fill="none" height="6" style="stroke:#C82930;stroke-width:1;" width="6" x="391" y="141.3242"/><text fill="#000000" font-family="sans-serif" font-size="14" lengthAdjust="spacing" textLength="73.9033" x="403" y="148.6211">Ticket ticket</text><rect fill="none" height="6" style="stroke:#C82930;stroke-width:1;" width="6" x="391" y="159.9453"/><text fill="#000000" font-family="sans-serif" font-size="14" lengthAdjust="spacing" textLength="94.9512" x="403" y="167.2422">Double amount</text><polygon fill="none" points="394,177.5664,390,183.5664,398,183.5664" style="stroke:#1963A0;stroke-width:1;"/><text fill="#000000" font-family="sans-serif" font-size="14" lengthAdjust="spacing" textLength="120.6201" x="403" y="185.8633">String transactionId</text><polygon fill="none" points="394,196.1875,390,202.1875,398,202.1875" style="stroke:#1963A0;stroke-width:1;"/><text fill="#000000" font-family="sans-serif" font-size="14" lengthAdjust="spacing" textLength="192.2129" x="403" y="204.4844">PaymentStatus paymentStatus</text><line style="stroke:#181818;stroke-width:0.5;" x1="384" x2="600.2129" y1="211.998" y2="211.998"/></g><!--class ParkingSpot--><g class="entity" data-entity="ParkingSpot" data-source-line="31" data-uid="ent0008" id="entity_ParkingSpot"><rect fill="#F1F1F1" height="122.4844" rx="2.5" ry="2.5" style="stroke:#181818;stroke-width:0.5;" width="181.6338" x="604" y="489.0137"/><ellipse cx="652.4326" cy="505.0137" fill="#ADD1B2" rx="11" ry="11" style="stroke:#181818;stroke-width:1;"/><path d="M655.1982,500.8887 Q655.3545,500.6699 655.542,500.5605 Q655.7295,500.4512 655.9482,500.4512 Q656.3232,500.4512 656.5576,500.7168 Q656.792,500.9668 656.792,501.5762 L656.792,503.0293 Q656.792,503.6387 656.5576,503.9043 Q656.3232,504.1699 655.9482,504.1699 Q655.6045,504.1699 655.4014,503.9668 Q655.1982,503.7793 655.0889,503.2637 Q655.042,502.9043 654.8545,502.7168 Q654.5264,502.3418 653.917,502.123 Q653.3076,501.9043 652.6826,501.9043 Q651.917,501.9043 651.2764,502.2324 Q650.6514,502.5605 650.1514,503.3105 Q649.667,504.0605 649.667,505.0918 L649.667,506.1855 Q649.667,507.4199 650.5576,508.248 Q651.4482,509.0605 653.042,509.0605 Q653.9795,509.0605 654.6357,508.8105 Q655.0264,508.6543 655.4482,508.2168 Q655.7139,507.9512 655.8545,507.873 Q656.0107,507.7949 656.2139,507.7949 Q656.542,507.7949 656.792,508.0605 Q657.0576,508.3105 657.0576,508.6543 Q657.0576,508.998 656.7139,509.4043 Q656.2139,509.9824 655.417,510.3105 Q654.3389,510.7637 653.042,510.7637 Q651.5264,510.7637 650.3232,510.1387 Q649.3389,509.6387 648.6514,508.5762 Q647.9639,507.498 647.9639,506.2168 L647.9639,505.0605 Q647.9639,503.7324 648.5732,502.5918 Q649.1982,501.4355 650.292,500.8262 Q651.3857,500.2012 652.6201,500.2012 Q653.3545,500.2012 653.9951,500.373 Q654.6514,500.5293 655.1982,500.8887 Z " fill="#000000"/><text fill="#000000" font-family="sans-serif" font-size="14" lengthAdjust="spacing" textLength="76.2686" x="672.9326" y="510.8105">ParkingSpot</text><line style="stroke:#181818;stroke-width:0.5;" x1="605" x2="784.6338" y1="521.0137" y2="521.0137"/><rect fill="none" height="6" style="stroke:#C82930;stroke-width:1;" width="6" x="612" y="532.8242"/><text fill="#000000" font-family="sans-serif" font-size="14" lengthAdjust="spacing" textLength="94.9307" x="624" y="540.1211">int spotNumber</text><rect fill="none" height="6" style="stroke:#C82930;stroke-width:1;" width="6" x="612" y="551.4453"/><text fill="#000000" font-family="sans-serif" font-size="14" lengthAdjust="spacing" textLength="155.6338" x="624" y="558.7422">VehicleType vehicleType</text><polygon fill="none" points="615,569.0664,611,575.0664,619,575.0664" style="stroke:#1963A0;stroke-width:1;"/><text fill="#000000" font-family="sans-serif" font-size="14" lengthAdjust="spacing" textLength="122.9717" x="624" y="577.3633">boolean isOccupied</text><rect fill="none" height="6" style="stroke:#C82930;stroke-width:1;" width="6" x="612" y="588.6875"/><text fill="#000000" font-family="sans-serif" font-size="14" lengthAdjust="spacing" textLength="139.2959" x="624" y="595.9844">Vehicle currentVehicle</text><line style="stroke:#181818;stroke-width:0.5;" x1="605" x2="784.6338" y1="603.498" y2="603.498"/></g><!--class PaymentStatus--><g class="entity" data-entity="PaymentStatus" data-source-line="38" data-uid="ent0009" id="entity_PaymentStatus"><rect fill="#F1F1F1" height="103.8633" rx="2.5" ry="2.5" style="stroke:#181818;stroke-width:0.5;" width="126.9375" x="205.5" y="106.5137"/><ellipse cx="220.5" cy="122.5137" fill="#EB937F" rx="11" ry="11" style="stroke:#181818;stroke-width:1;"/><path d="M219.3594,123.3105 L219.3594,125.8105 L223.6875,125.8105 L223.6875,124.8887 Q223.6875,124.2793 223.9219,124.0137 Q224.1719,123.748 224.5469,123.748 Q224.9219,123.748 225.1563,124.0137 Q225.3906,124.2793 225.3906,124.8887 L225.3906,127.5137 L217.3906,127.5137 Q216.7656,127.5137 216.5,127.2793 Q216.25,127.0449 216.25,126.6543 Q216.25,126.2793 216.5156,126.0449 Q216.7813,125.8105 217.3906,125.8105 L217.6563,125.8105 L217.6563,119.1543 L217.3906,119.1543 Q216.7656,119.1543 216.5,118.9199 Q216.25,118.6855 216.25,118.2949 Q216.25,117.9199 216.5,117.6855 Q216.7656,117.4512 217.3906,117.4512 L225.0156,117.4512 L225.0156,120.0449 Q225.0156,120.6543 224.7813,120.9199 Q224.5625,121.1699 224.1719,121.1699 Q223.7969,121.1699 223.5625,120.9199 Q223.3281,120.6543 223.3281,120.0449 L223.3281,119.1543 L219.3594,119.1543 L219.3594,121.6074 L220.8438,121.6074 Q220.8438,120.9512 220.9688,120.7637 Q221.2344,120.3574 221.7031,120.3574 Q222.0781,120.3574 222.3125,120.623 Q222.5469,120.873 222.5469,121.4824 L222.5469,123.4512 Q222.5469,123.998 222.4219,124.1855 Q222.1563,124.5762 221.7031,124.5762 Q221.2344,124.5762 220.9688,124.1699 Q220.8438,123.9824 220.8438,123.3105 L219.3594,123.3105 Z " fill="#000000"/><text fill="#000000" font-family="sans-serif" font-size="14" lengthAdjust="spacing" textLength="94.9375" x="234.5" y="128.3105">PaymentStatus</text><line style="stroke:#181818;stroke-width:0.5;" x1="206.5" x2="331.4375" y1="138.5137" y2="138.5137"/><ellipse cx="216.5" cy="153.3242" fill="none" rx="3" ry="3" style="stroke:#038048;stroke-width:1;"/><text fill="#000000" font-family="sans-serif" font-size="14" lengthAdjust="spacing" textLength="67.6826" x="225.5" y="157.6211">SUCCESS</text><ellipse cx="216.5" cy="171.9453" fill="none" rx="3" ry="3" style="stroke:#038048;stroke-width:1;"/><text fill="#000000" font-family="sans-serif" font-size="14" lengthAdjust="spacing" textLength="49.0137" x="225.5" y="176.2422">FAILED</text><ellipse cx="216.5" cy="190.5664" fill="none" rx="3" ry="3" style="stroke:#038048;stroke-width:1;"/><text fill="#000000" font-family="sans-serif" font-size="14" lengthAdjust="spacing" textLength="63.7861" x="225.5" y="194.8633">PENDING</text><line style="stroke:#181818;stroke-width:0.5;" x1="206.5" x2="331.4375" y1="202.377" y2="202.377"/></g><!--class VehicleType--><g class="entity" data-entity="VehicleType" data-source-line="44" data-uid="ent0010" id="entity_VehicleType"><rect fill="#F1F1F1" height="103.8633" rx="2.5" ry="2.5" style="stroke:#181818;stroke-width:0.5;" width="109.041" x="46.5" y="106.5137"/><ellipse cx="61.5" cy="122.5137" fill="#EB937F" rx="11" ry="11" style="stroke:#181818;stroke-width:1;"/><path d="M60.3594,123.3105 L60.3594,125.8105 L64.6875,125.8105 L64.6875,124.8887 Q64.6875,124.2793 64.9219,124.0137 Q65.1719,123.748 65.5469,123.748 Q65.9219,123.748 66.1563,124.0137 Q66.3906,124.2793 66.3906,124.8887 L66.3906,127.5137 L58.3906,127.5137 Q57.7656,127.5137 57.5,127.2793 Q57.25,127.0449 57.25,126.6543 Q57.25,126.2793 57.5156,126.0449 Q57.7813,125.8105 58.3906,125.8105 L58.6563,125.8105 L58.6563,119.1543 L58.3906,119.1543 Q57.7656,119.1543 57.5,118.9199 Q57.25,118.6855 57.25,118.2949 Q57.25,117.9199 57.5,117.6855 Q57.7656,117.4512 58.3906,117.4512 L66.0156,117.4512 L66.0156,120.0449 Q66.0156,120.6543 65.7813,120.9199 Q65.5625,121.1699 65.1719,121.1699 Q64.7969,121.1699 64.5625,120.9199 Q64.3281,120.6543 64.3281,120.0449 L64.3281,119.1543 L60.3594,119.1543 L60.3594,121.6074 L61.8438,121.6074 Q61.8438,120.9512 61.9688,120.7637 Q62.2344,120.3574 62.7031,120.3574 Q63.0781,120.3574 63.3125,120.623 Q63.5469,120.873 63.5469,121.4824 L63.5469,123.4512 Q63.5469,123.998 63.4219,124.1855 Q63.1563,124.5762 62.7031,124.5762 Q62.2344,124.5762 61.9688,124.1699 Q61.8438,123.9824 61.8438,123.3105 L60.3594,123.3105 Z " fill="#000000"/><text fill="#000000" font-family="sans-serif" font-size="14" lengthAdjust="spacing" textLength="77.041" x="75.5" y="128.3105">VehicleType</text><line style="stroke:#181818;stroke-width:0.5;" x1="47.5" x2="154.541" y1="138.5137" y2="138.5137"/><ellipse cx="57.5" cy="153.3242" fill="none" rx="3" ry="3" style="stroke:#038048;stroke-width:1;"/><text fill="#000000" font-family="sans-serif" font-size="14" lengthAdjust="spacing" textLength="31.9033" x="66.5" y="157.6211">BIKE</text><ellipse cx="57.5" cy="171.9453" fill="none" rx="3" ry="3" style="stroke:#038048;stroke-width:1;"/><text fill="#000000" font-family="sans-serif" font-size="14" lengthAdjust="spacing" textLength="29.5586" x="66.5" y="176.2422">CAR</text><ellipse cx="57.5" cy="190.5664" fill="none" rx="3" ry="3" style="stroke:#038048;stroke-width:1;"/><text fill="#000000" font-family="sans-serif" font-size="14" lengthAdjust="spacing" textLength="48.2207" x="66.5" y="194.8633">TRUCK</text><line style="stroke:#181818;stroke-width:0.5;" x1="47.5" x2="154.541" y1="202.377" y2="202.377"/></g><!--class Floor--><g class="entity" data-entity="Floor" data-source-line="50" data-uid="ent0011" id="entity_Floor"><rect fill="#F1F1F1" height="85.2422" rx="2.5" ry="2.5" style="stroke:#181818;stroke-width:0.5;" width="226.0127" x="703" y="316.5137"/><ellipse cx="795.8081" cy="332.5137" fill="#ADD1B2" rx="11" ry="11" style="stroke:#181818;stroke-width:1;"/><path d="M798.5737,328.3887 Q798.73,328.1699 798.9175,328.0605 Q799.105,327.9512 799.3237,327.9512 Q799.6987,327.9512 799.9331,328.2168 Q800.1675,328.4668 800.1675,329.0762 L800.1675,330.5293 Q800.1675,331.1387 799.9331,331.4043 Q799.6987,331.6699 799.3237,331.6699 Q798.98,331.6699 798.7769,331.4668 Q798.5737,331.2793 798.4644,330.7637 Q798.4175,330.4043 798.23,330.2168 Q797.9019,329.8418 797.2925,329.623 Q796.6831,329.4043 796.0581,329.4043 Q795.2925,329.4043 794.6519,329.7324 Q794.0269,330.0605 793.5269,330.8105 Q793.0425,331.5605 793.0425,332.5918 L793.0425,333.6855 Q793.0425,334.9199 793.9331,335.748 Q794.8237,336.5605 796.4175,336.5605 Q797.355,336.5605 798.0112,336.3105 Q798.4019,336.1543 798.8237,335.7168 Q799.0894,335.4512 799.23,335.373 Q799.3862,335.2949 799.5894,335.2949 Q799.9175,335.2949 800.1675,335.5605 Q800.4331,335.8105 800.4331,336.1543 Q800.4331,336.498 800.0894,336.9043 Q799.5894,337.4824 798.7925,337.8105 Q797.7144,338.2637 796.4175,338.2637 Q794.9019,338.2637 793.6987,337.6387 Q792.7144,337.1387 792.0269,336.0762 Q791.3394,334.998 791.3394,333.7168 L791.3394,332.5605 Q791.3394,331.2324 791.9487,330.0918 Q792.5737,328.9355 793.6675,328.3262 Q794.7612,327.7012 795.9956,327.7012 Q796.73,327.7012 797.3706,327.873 Q798.0269,328.0293 798.5737,328.3887 Z " fill="#000000"/><text fill="#000000" font-family="sans-serif" font-size="14" lengthAdjust="spacing" textLength="31.8965" x="816.3081" y="338.3105">Floor</text><line style="stroke:#181818;stroke-width:0.5;" x1="704" x2="928.0127" y1="348.5137" y2="348.5137"/><rect fill="none" height="6" style="stroke:#C82930;stroke-width:1;" width="6" x="711" y="360.3242"/><text fill="#000000" font-family="sans-serif" font-size="14" lengthAdjust="spacing" textLength="95.7031" x="723" y="367.6211">int floorNumber</text><rect fill="none" height="6" style="stroke:#C82930;stroke-width:1;" width="6" x="711" y="378.9453"/><text fill="#000000" font-family="sans-serif" font-size="14" lengthAdjust="spacing" textLength="200.0127" x="723" y="386.2422">List&lt;ParkingSpot&gt; parkingSpots</text><line style="stroke:#181818;stroke-width:0.5;" x1="704" x2="928.0127" y1="393.7559" y2="393.7559"/></g><!--reverse link ParkingLot to Floor--><g class="link" data-entity-1="ParkingLot" data-entity-2="Floor" data-source-line="60" data-uid="lnk12" id="link_ParkingLot_Floor"><path codeLine="60" d="M824.8279,241.1797 C822.6379,270.2297 821.06,291.0237 819.16,316.2337" fill="none" id="ParkingLot-backto-Floor" style="stroke:#181818;stroke-width:1;"/><polygon fill="#181818" points="825.73,229.2137,821.2903,234.896,824.8279,241.1797,829.2676,235.4974,825.73,229.2137" style="stroke:#181818;stroke-width:1;"/><text fill="#000000" font-family="sans-serif" font-size="13" lengthAdjust="spacing" textLength="20.96" x="824" y="269.042">has</text><text fill="#000000" font-family="sans-serif" font-size="13" lengthAdjust="spacing" textLength="7.23" x="817.8842" y="251.0474">1</text><text fill="#000000" font-family="sans-serif" font-size="13" lengthAdjust="spacing" textLength="5.0591" x="814.2689" y="305.0931">*</text></g><!--reverse link Floor to ParkingSpot--><g class="link" data-entity-1="Floor" data-entity-2="ParkingSpot" data-source-line="61" data-uid="lnk13" id="link_Floor_ParkingSpot"><path codeLine="61" d="M782.6763,412.0677 C766.3063,437.6177 751.61,460.5937 733.49,488.9037" fill="none" id="Floor-backto-ParkingSpot" style="stroke:#181818;stroke-width:1;"/><polygon fill="#181818" points="789.15,401.9637,782.5451,404.8578,782.6763,412.0677,789.2812,409.1736,789.15,401.9637" style="stroke:#181818;stroke-width:1;"/><text fill="#000000" font-family="sans-serif" font-size="13" lengthAdjust="spacing" textLength="48.4199" x="760" y="460.042">contains</text><text fill="#000000" font-family="sans-serif" font-size="13" lengthAdjust="spacing" textLength="7.23" x="777.5193" y="423.874">1</text><text fill="#000000" font-family="sans-serif" font-size="13" lengthAdjust="spacing" textLength="5.0591" x="732.6759" y="477.8722">*</text></g><!--link ParkingSpot to Vehicle--><g class="link" data-entity-1="ParkingSpot" data-entity-2="Vehicle" data-source-line="62" data-uid="lnk14" id="link_ParkingSpot_Vehicle"><path codeLine="62" d="M658.33,611.1237 C644.47,633.8437 629.02,659.1837 616.41,679.8537" fill="none" id="ParkingSpot-Vehicle" style="stroke:#181818;stroke-width:1;"/><text fill="#000000" font-family="sans-serif" font-size="13" lengthAdjust="spacing" textLength="69.3799" x="644" y="651.042">occupied by</text><text fill="#000000" font-family="sans-serif" font-size="13" lengthAdjust="spacing" textLength="21.6836" x="631.6451" y="633.6239">0..1</text><text fill="#000000" font-family="sans-serif" font-size="13" lengthAdjust="spacing" textLength="21.6836" x="597.8699" y="668.7323">0..1</text></g><!--link Ticket to Vehicle--><g class="link" data-entity-1="Ticket" data-entity-2="Vehicle" data-source-line="63" data-uid="lnk15" id="link_Ticket_Vehicle"><path codeLine="63" d="M540.33,420.2237 C543.79,471.3037 550.37,546.3637 562,611.0137 C566.14,634.0437 572.63,659.3237 578.42,679.8837" fill="none" id="Ticket-Vehicle" style="stroke:#181818;stroke-width:1;"/><text fill="#000000" font-family="sans-serif" font-size="13" lengthAdjust="spacing" textLength="15.1709" x="563" y="555.542">for</text><text fill="#000000" font-family="sans-serif" font-size="13" lengthAdjust="spacing" textLength="7.23" x="533.3263" y="442.7361">1</text><text fill="#000000" font-family="sans-serif" font-size="13" lengthAdjust="spacing" textLength="7.23" x="568.9048" y="668.767">1</text></g><!--link Ticket to ParkingSpot--><g class="link" data-entity-1="Ticket" data-entity-2="ParkingSpot" data-source-line="64" data-uid="lnk16" id="link_Ticket_ParkingSpot"><path codeLine="64" d="M587.21,420.0737 C605.55,442.0137 626.29,466.8237 644.65,488.7837" fill="none" id="Ticket-ParkingSpot" style="stroke:#181818;stroke-width:1;"/><text fill="#000000" font-family="sans-serif" font-size="13" lengthAdjust="spacing" textLength="10.8418" x="621" y="460.042">at</text><text fill="#000000" font-family="sans-serif" font-size="13" lengthAdjust="spacing" textLength="7.23" x="585.9198" y="442.5678">1</text><text fill="#000000" font-family="sans-serif" font-size="13" lengthAdjust="spacing" textLength="7.23" x="631.4581" y="477.7383">1</text></g><!--link Payment to Ticket--><g class="link" data-entity-1="Payment" data-entity-2="Ticket" data-source-line="65" data-uid="lnk17" id="link_Payment_Ticket"><path codeLine="65" d="M505.62,219.6137 C511.24,244.3737 517.73,273.0037 523.35,297.7837" fill="none" id="Payment-Ticket" style="stroke:#181818;stroke-width:1;"/><text fill="#000000" font-family="sans-serif" font-size="13" lengthAdjust="spacing" textLength="15.1709" x="518" y="269.042">for</text><text fill="#000000" font-family="sans-serif" font-size="13" lengthAdjust="spacing" textLength="7.23" x="499.8544" y="242.1127">1</text><text fill="#000000" font-family="sans-serif" font-size="13" lengthAdjust="spacing" textLength="7.23" x="514.3831" y="286.7383">1</text></g><!--SRC=[VLFVRnen37xFNs7TIw4Tg7lO2wgG63ycL4OHH_SUGXWHkIHASgoe6d_xdBiS1AqqBx4T-xC_ss6IEWTIRhg6shrGlwNstKKjphI7TzA1cN3-QIArjdtOXikXyISrJx_uJZ39LqV3lrHECJ0tslVxG0zKIBgMFEYEFC1Ai3tt43B5q5Qys_YweCU2Am_yJVZcEVSMySAhm1TL5cjkNxQ3A-1MKaQR_2M4i8z8nUI1K8qAlh9CDsY9472eRxGaLC1SvD0EpQWSKSzNek08Kl3SqyA4p1ycRh2Jp58mhXnVI4IvP0y4cWg2V1EnwLH0ZBHgBgYFT8cD0LheKdboEdErL3dAlD0A2P-QPcFbldH8CD4-INjfIKWTHk9GcLTZ-OJ72TPQIquL2FV2M6a4JvlEIcinUrH3UewJla4wLloEAm7vwt0uplCWJWRJsNWKfCLuFfhEVzo2IMkiGBvFdyVX7WwMuLejNuVFDrjG_O8p-UepdDd_zmFIlQcwUZSHRw0Ft4fgJBK7TCsb8mwzq9SMeFI6EsxWssDYnD7jev7SBJak3KxHxOHnqABMwZ-kJP8lcttDuBxJWUm-WxhU7koe8u2drbEFTAWzO5fvAbJjd3vbZzqkHeMWMcg6rmCT9mhhOnKMDpABxbU-Msrl-5pNGNsie5xqn2z6rb3_0000]--></g></svg>