<svg xmlns="http://www.w3.org/2000/svg" xmlns:xlink="http://www.w3.org/1999/xlink" contentStyleType="text/css" data-diagram-type="CLASS" height="1287px" preserveAspectRatio="none" style="width:929px;height:1287px;background:#FFFFFF;" version="1.1" viewBox="0 0 929 1287" width="929px" zoomAndPan="magnify"><defs><filter height="300%" id="fkhnf4y6e23ou" width="300%" x="-1" y="-1"><feGaussianBlur result="blurOut" stdDeviation="2"/><feColorMatrix in="blurOut" result="blurOut2" type="matrix" values="0 0 0 0 0 0 0 0 0 0 0 0 0 0 0 0 0 0 .4 0"/><feOffset dx="4" dy="4" in="blurOut2" result="blurOut3"/><feBlend in="SourceGraphic" in2="blurOut3" mode="normal"/></filter></defs><g><!--cluster lld--><g class="cluster" data-entity="lld" data-source-line="1" data-uid="ent0003" id="cluster_lld"><path d="M8.5,6.0137 L25.8311,6.0137 A3.75,3.75 0 0 1 28.3311,8.5137 L35.3311,30.6348 L919.5,30.6348 A2.5,2.5 0 0 1 922,33.1348 L922,1277.5137 A2.5,2.5 0 0 1 919.5,1280.0137 L8.5,1280.0137 A2.5,2.5 0 0 1 6,1277.5137 L6,8.5137 A2.5,2.5 0 0 1 8.5,6.0137" fill="none" filter="url(#fkhnf4y6e23ou)" style="stroke:#000000;stroke-width:1.5;"/><line style="stroke:#000000;stroke-width:1.5;" x1="6" x2="35.3311" y1="30.6348" y2="30.6348"/><text fill="#000000" font-family="sans-serif" font-size="14" font-weight="bold" lengthAdjust="spacing" textLength="16.3311" x="10" y="23.1211">lld</text></g><!--cluster parkinglot--><g class="cluster" data-entity="parkinglot" data-source-line="1" data-uid="ent0004" id="cluster_parkinglot"><path d="M32.5,51.0137 L101.1689,51.0137 A3.75,3.75 0 0 1 103.6689,53.5137 L110.6689,75.6348 L895.5,75.6348 A2.5,2.5 0 0 1 898,78.1348 L898,1253.5137 A2.5,2.5 0 0 1 895.5,1256.0137 L32.5,1256.0137 A2.5,2.5 0 0 1 30,1253.5137 L30,53.5137 A2.5,2.5 0 0 1 32.5,51.0137" fill="none" filter="url(#fkhnf4y6e23ou)" style="stroke:#000000;stroke-width:1.5;"/><line style="stroke:#000000;stroke-width:1.5;" x1="30" x2="110.6689" y1="75.6348" y2="75.6348"/><text fill="#000000" font-family="sans-serif" font-size="14" font-weight="bold" lengthAdjust="spacing" textLength="67.6689" x="34" y="68.1211">parkinglot</text></g><!--class VehicleType--><g class="entity" data-entity="VehicleType" data-source-line="1" data-uid="ent0002" id="entity_VehicleType"><rect fill="#F1F1F1" filter="url(#fkhnf4y6e23ou)" height="103.8633" rx="2.5" ry="2.5" style="stroke:#181818;stroke-width:0.5;" width="118.9619" x="515.5" y="1136.0137"/><ellipse cx="534.9644" cy="1152.0137" fill="#EB937F" rx="11" ry="11" style="stroke:#181818;stroke-width:1;"/><path d="M533.8238,1152.8105 L533.8238,1155.3105 L538.1519,1155.3105 L538.1519,1154.3887 Q538.1519,1153.7793 538.3863,1153.5137 Q538.6363,1153.248 539.0113,1153.248 Q539.3863,1153.248 539.6207,1153.5137 Q539.855,1153.7793 539.855,1154.3887 L539.855,1157.0137 L531.855,1157.0137 Q531.23,1157.0137 530.9644,1156.7793 Q530.7144,1156.5449 530.7144,1156.1543 Q530.7144,1155.7793 530.98,1155.5449 Q531.2457,1155.3105 531.855,1155.3105 L532.1207,1155.3105 L532.1207,1148.6543 L531.855,1148.6543 Q531.23,1148.6543 530.9644,1148.4199 Q530.7144,1148.1855 530.7144,1147.7949 Q530.7144,1147.4199 530.9644,1147.1855 Q531.23,1146.9512 531.855,1146.9512 L539.48,1146.9512 L539.48,1149.5449 Q539.48,1150.1543 539.2457,1150.4199 Q539.0269,1150.6699 538.6363,1150.6699 Q538.2613,1150.6699 538.0269,1150.4199 Q537.7925,1150.1543 537.7925,1149.5449 L537.7925,1148.6543 L533.8238,1148.6543 L533.8238,1151.1074 L535.3082,1151.1074 Q535.3082,1150.4512 535.4332,1150.2637 Q535.6988,1149.8574 536.1675,1149.8574 Q536.5425,1149.8574 536.7769,1150.123 Q537.0113,1150.373 537.0113,1150.9824 L537.0113,1152.9512 Q537.0113,1153.498 536.8863,1153.6855 Q536.6207,1154.0762 536.1675,1154.0762 Q535.6988,1154.0762 535.4332,1153.6699 Q535.3082,1153.4824 535.3082,1152.8105 L533.8238,1152.8105 Z " fill="#000000"/><text fill="#000000" font-family="sans-serif" font-size="14" lengthAdjust="spacing" textLength="77.041" x="549.9565" y="1157.8105">VehicleType</text><line style="stroke:#181818;stroke-width:0.5;" x1="516.5" x2="633.4619" y1="1168.0137" y2="1168.0137"/><text fill="#000000" font-family="sans-serif" font-size="14" lengthAdjust="spacing" textLength="106.9619" x="521.5" y="1187.1211">+MOTORCYCLE</text><text fill="#000000" font-family="sans-serif" font-size="14" lengthAdjust="spacing" textLength="78.1758" x="521.5" y="1205.7422">+COMPACT</text><text fill="#000000" font-family="sans-serif" font-size="14" lengthAdjust="spacing" textLength="55.6377" x="521.5" y="1224.3633">+LARGE</text><line style="stroke:#181818;stroke-width:0.5;" x1="516.5" x2="633.4619" y1="1231.877" y2="1231.877"/></g><!--class Payment--><g class="entity" data-entity="Payment" data-source-line="7" data-uid="ent0005" id="entity_Payment"><rect fill="#F1F1F1" filter="url(#fkhnf4y6e23ou)" height="252.832" rx="2.5" ry="2.5" style="stroke:#181818;stroke-width:0.5;" width="242.7266" x="638.5" y="603.0137"/><ellipse cx="727.9893" cy="619.0137" fill="#ADD1B2" rx="11" ry="11" style="stroke:#181818;stroke-width:1;"/><path d="M730.7549,614.8887 Q730.9111,614.6699 731.0986,614.5605 Q731.2861,614.4512 731.5049,614.4512 Q731.8799,614.4512 732.1143,614.7168 Q732.3486,614.9668 732.3486,615.5762 L732.3486,617.0293 Q732.3486,617.6387 732.1143,617.9043 Q731.8799,618.1699 731.5049,618.1699 Q731.1611,618.1699 730.958,617.9668 Q730.7549,617.7793 730.6455,617.2637 Q730.5986,616.9043 730.4111,616.7168 Q730.083,616.3418 729.4736,616.123 Q728.8643,615.9043 728.2393,615.9043 Q727.4736,615.9043 726.833,616.2324 Q726.208,616.5605 725.708,617.3105 Q725.2236,618.0605 725.2236,619.0918 L725.2236,620.1855 Q725.2236,621.4199 726.1143,622.248 Q727.0049,623.0605 728.5986,623.0605 Q729.5361,623.0605 730.1924,622.8105 Q730.583,622.6543 731.0049,622.2168 Q731.2705,621.9512 731.4111,621.873 Q731.5674,621.7949 731.7705,621.7949 Q732.0986,621.7949 732.3486,622.0605 Q732.6143,622.3105 732.6143,622.6543 Q732.6143,622.998 732.2705,623.4043 Q731.7705,623.9824 730.9736,624.3105 Q729.8955,624.7637 728.5986,624.7637 Q727.083,624.7637 725.8799,624.1387 Q724.8955,623.6387 724.208,622.5762 Q723.5205,621.498 723.5205,620.2168 L723.5205,619.0605 Q723.5205,617.7324 724.1299,616.5918 Q724.7549,615.4355 725.8486,614.8262 Q726.9424,614.2012 728.1768,614.2012 Q728.9111,614.2012 729.5518,614.373 Q730.208,614.5293 730.7549,614.8887 Z " fill="#000000"/><text fill="#000000" font-family="sans-serif" font-size="14" lengthAdjust="spacing" textLength="55.248" x="748.4893" y="624.8105">Payment</text><line style="stroke:#181818;stroke-width:0.5;" x1="639.5" x2="880.2266" y1="635.0137" y2="635.0137"/><text fill="#000000" font-family="sans-serif" font-size="14" lengthAdjust="spacing" textLength="110.4961" x="644.5" y="654.1211">-String paymentId</text><text fill="#000000" font-family="sans-serif" font-size="14" lengthAdjust="spacing" textLength="78.5654" x="644.5" y="672.7422">-Ticket ticket</text><text fill="#000000" font-family="sans-serif" font-size="14" lengthAdjust="spacing" textLength="99.6133" x="644.5" y="691.3633">-Double amount</text><text fill="#000000" font-family="sans-serif" font-size="14" lengthAdjust="spacing" textLength="196.875" x="644.5" y="709.9844">-PaymentStatus paymentStatus</text><text fill="#000000" font-family="sans-serif" font-size="14" lengthAdjust="spacing" textLength="187.5098" x="644.5" y="728.6055">-LocalDateTime paymentTime</text><line style="stroke:#181818;stroke-width:0.5;" x1="639.5" x2="880.2266" y1="736.1191" y2="736.1191"/><text fill="#000000" font-family="sans-serif" font-size="14" lengthAdjust="spacing" textLength="144.3477" x="644.5" y="755.2266">+String getPaymentId()</text><text fill="#000000" font-family="sans-serif" font-size="14" lengthAdjust="spacing" textLength="115.5273" x="644.5" y="773.8477">+Ticket getTicket()</text><text fill="#000000" font-family="sans-serif" font-size="14" lengthAdjust="spacing" textLength="133.4648" x="644.5" y="792.4688">+Double getAmount()</text><text fill="#000000" font-family="sans-serif" font-size="14" lengthAdjust="spacing" textLength="230.7266" x="644.5" y="811.0898">+PaymentStatus getPaymentStatus()</text><text fill="#000000" font-family="sans-serif" font-size="14" lengthAdjust="spacing" textLength="221.3613" x="644.5" y="829.7109">+LocalDateTime getPaymentTime()</text><text fill="#000000" font-family="sans-serif" font-size="14" lengthAdjust="spacing" textLength="147.4307" x="644.5" y="848.332">+void markAsSuccess()</text></g><!--class SpotType--><g class="entity" data-entity="SpotType" data-source-line="22" data-uid="ent0006" id="entity_SpotType"><rect fill="#F1F1F1" filter="url(#fkhnf4y6e23ou)" height="103.8633" rx="2.5" ry="2.5" style="stroke:#181818;stroke-width:0.5;" width="118.9619" x="317.5" y="944.0137"/><ellipse cx="344.6671" cy="960.0137" fill="#EB937F" rx="11" ry="11" style="stroke:#181818;stroke-width:1;"/><path d="M343.5265,960.8105 L343.5265,963.3105 L347.8546,963.3105 L347.8546,962.3887 Q347.8546,961.7793 348.089,961.5137 Q348.339,961.248 348.714,961.248 Q349.089,961.248 349.3234,961.5137 Q349.5578,961.7793 349.5578,962.3887 L349.5578,965.0137 L341.5578,965.0137 Q340.9328,965.0137 340.6671,964.7793 Q340.4171,964.5449 340.4171,964.1543 Q340.4171,963.7793 340.6828,963.5449 Q340.9484,963.3105 341.5578,963.3105 L341.8234,963.3105 L341.8234,956.6543 L341.5578,956.6543 Q340.9328,956.6543 340.6671,956.4199 Q340.4171,956.1855 340.4171,955.7949 Q340.4171,955.4199 340.6671,955.1855 Q340.9328,954.9512 341.5578,954.9512 L349.1828,954.9512 L349.1828,957.5449 Q349.1828,958.1543 348.9484,958.4199 Q348.7296,958.6699 348.339,958.6699 Q347.964,958.6699 347.7296,958.4199 Q347.4953,958.1543 347.4953,957.5449 L347.4953,956.6543 L343.5265,956.6543 L343.5265,959.1074 L345.0109,959.1074 Q345.0109,958.4512 345.1359,958.2637 Q345.4015,957.8574 345.8703,957.8574 Q346.2453,957.8574 346.4796,958.123 Q346.714,958.373 346.714,958.9824 L346.714,960.9512 Q346.714,961.498 346.589,961.6855 Q346.3234,962.0762 345.8703,962.0762 Q345.4015,962.0762 345.1359,961.6699 Q345.0109,961.4824 345.0109,960.8105 L343.5265,960.8105 Z " fill="#000000"/><text fill="#000000" font-family="sans-serif" font-size="14" lengthAdjust="spacing" textLength="59.9238" x="361.3709" y="965.8105">SpotType</text><line style="stroke:#181818;stroke-width:0.5;" x1="318.5" x2="435.4619" y1="976.0137" y2="976.0137"/><text fill="#000000" font-family="sans-serif" font-size="14" lengthAdjust="spacing" textLength="106.9619" x="323.5" y="995.1211">+MOTORCYCLE</text><text fill="#000000" font-family="sans-serif" font-size="14" lengthAdjust="spacing" textLength="78.1758" x="323.5" y="1013.7422">+COMPACT</text><text fill="#000000" font-family="sans-serif" font-size="14" lengthAdjust="spacing" textLength="55.6377" x="323.5" y="1032.3633">+LARGE</text><line style="stroke:#181818;stroke-width:0.5;" x1="318.5" x2="435.4619" y1="1039.877" y2="1039.877"/></g><!--class PaymentStatus--><g class="entity" data-entity="PaymentStatus" data-source-line="28" data-uid="ent0007" id="entity_PaymentStatus"><rect fill="#F1F1F1" filter="url(#fkhnf4y6e23ou)" height="103.8633" rx="2.5" ry="2.5" style="stroke:#181818;stroke-width:0.5;" width="126.9375" x="713.5" y="944.0137"/><ellipse cx="728.5" cy="960.0137" fill="#EB937F" rx="11" ry="11" style="stroke:#181818;stroke-width:1;"/><path d="M727.3594,960.8105 L727.3594,963.3105 L731.6875,963.3105 L731.6875,962.3887 Q731.6875,961.7793 731.9219,961.5137 Q732.1719,961.248 732.5469,961.248 Q732.9219,961.248 733.1563,961.5137 Q733.3906,961.7793 733.3906,962.3887 L733.3906,965.0137 L725.3906,965.0137 Q724.7656,965.0137 724.5,964.7793 Q724.25,964.5449 724.25,964.1543 Q724.25,963.7793 724.5156,963.5449 Q724.7813,963.3105 725.3906,963.3105 L725.6563,963.3105 L725.6563,956.6543 L725.3906,956.6543 Q724.7656,956.6543 724.5,956.4199 Q724.25,956.1855 724.25,955.7949 Q724.25,955.4199 724.5,955.1855 Q724.7656,954.9512 725.3906,954.9512 L733.0156,954.9512 L733.0156,957.5449 Q733.0156,958.1543 732.7813,958.4199 Q732.5625,958.6699 732.1719,958.6699 Q731.7969,958.6699 731.5625,958.4199 Q731.3281,958.1543 731.3281,957.5449 L731.3281,956.6543 L727.3594,956.6543 L727.3594,959.1074 L728.8438,959.1074 Q728.8438,958.4512 728.9688,958.2637 Q729.2344,957.8574 729.7031,957.8574 Q730.0781,957.8574 730.3125,958.123 Q730.5469,958.373 730.5469,958.9824 L730.5469,960.9512 Q730.5469,961.498 730.4219,961.6855 Q730.1563,962.0762 729.7031,962.0762 Q729.2344,962.0762 728.9688,961.6699 Q728.8438,961.4824 728.8438,960.8105 L727.3594,960.8105 Z " fill="#000000"/><text fill="#000000" font-family="sans-serif" font-size="14" lengthAdjust="spacing" textLength="94.9375" x="742.5" y="965.8105">PaymentStatus</text><line style="stroke:#181818;stroke-width:0.5;" x1="714.5" x2="839.4375" y1="976.0137" y2="976.0137"/><text fill="#000000" font-family="sans-serif" font-size="14" lengthAdjust="spacing" textLength="75.8584" x="719.5" y="995.1211">+SUCCESS</text><text fill="#000000" font-family="sans-serif" font-size="14" lengthAdjust="spacing" textLength="57.1895" x="719.5" y="1013.7422">+FAILED</text><text fill="#000000" font-family="sans-serif" font-size="14" lengthAdjust="spacing" textLength="71.9619" x="719.5" y="1032.3633">+PENDING</text><line style="stroke:#181818;stroke-width:0.5;" x1="714.5" x2="839.4375" y1="1039.877" y2="1039.877"/></g><!--class Ticket--><g class="entity" data-entity="Ticket" data-source-line="34" data-uid="ent0008" id="entity_Ticket"><rect fill="#F1F1F1" filter="url(#fkhnf4y6e23ou)" height="196.9688" rx="2.5" ry="2.5" style="stroke:#181818;stroke-width:0.5;" width="210.7891" x="670.5" y="327.0137"/><ellipse cx="752.9756" cy="343.0137" fill="#ADD1B2" rx="11" ry="11" style="stroke:#181818;stroke-width:1;"/><path d="M755.7412,338.8887 Q755.8975,338.6699 756.085,338.5605 Q756.2725,338.4512 756.4912,338.4512 Q756.8662,338.4512 757.1006,338.7168 Q757.335,338.9668 757.335,339.5762 L757.335,341.0293 Q757.335,341.6387 757.1006,341.9043 Q756.8662,342.1699 756.4912,342.1699 Q756.1475,342.1699 755.9443,341.9668 Q755.7412,341.7793 755.6318,341.2637 Q755.585,340.9043 755.3975,340.7168 Q755.0693,340.3418 754.46,340.123 Q753.8506,339.9043 753.2256,339.9043 Q752.46,339.9043 751.8193,340.2324 Q751.1943,340.5605 750.6943,341.3105 Q750.21,342.0605 750.21,343.0918 L750.21,344.1855 Q750.21,345.4199 751.1006,346.248 Q751.9912,347.0605 753.585,347.0605 Q754.5225,347.0605 755.1787,346.8105 Q755.5693,346.6543 755.9912,346.2168 Q756.2568,345.9512 756.3975,345.873 Q756.5537,345.7949 756.7568,345.7949 Q757.085,345.7949 757.335,346.0605 Q757.6006,346.3105 757.6006,346.6543 Q757.6006,346.998 757.2568,347.4043 Q756.7568,347.9824 755.96,348.3105 Q754.8818,348.7637 753.585,348.7637 Q752.0693,348.7637 750.8662,348.1387 Q749.8818,347.6387 749.1943,346.5762 Q748.5068,345.498 748.5068,344.2168 L748.5068,343.0605 Q748.5068,341.7324 749.1162,340.5918 Q749.7412,339.4355 750.835,338.8262 Q751.9287,338.2012 753.1631,338.2012 Q753.8975,338.2012 754.5381,338.373 Q755.1943,338.5293 755.7412,338.8887 Z " fill="#000000"/><text fill="#000000" font-family="sans-serif" font-size="14" lengthAdjust="spacing" textLength="37.3379" x="773.4756" y="348.8105">Ticket</text><line style="stroke:#181818;stroke-width:0.5;" x1="671.5" x2="880.2891" y1="359.0137" y2="359.0137"/><text fill="#000000" font-family="sans-serif" font-size="14" lengthAdjust="spacing" textLength="89.4756" x="676.5" y="378.1211">-String ticketId</text><text fill="#000000" font-family="sans-serif" font-size="14" lengthAdjust="spacing" textLength="98.0479" x="676.5" y="396.7422">-Vehicle vehicle</text><text fill="#000000" font-family="sans-serif" font-size="14" lengthAdjust="spacing" textLength="159.5371" x="676.5" y="415.3633">-ParkingSpot parkingSpot</text><text fill="#000000" font-family="sans-serif" font-size="14" lengthAdjust="spacing" textLength="164.9375" x="676.5" y="433.9844">-LocalDateTime entryTime</text><line style="stroke:#181818;stroke-width:0.5;" x1="671.5" x2="880.2891" y1="441.498" y2="441.498"/><text fill="#000000" font-family="sans-serif" font-size="14" lengthAdjust="spacing" textLength="126.4375" x="676.5" y="460.6055">+String getTicketId()</text><text fill="#000000" font-family="sans-serif" font-size="14" lengthAdjust="spacing" textLength="132.6855" x="676.5" y="479.2266">+Vehicle getVehicle()</text><text fill="#000000" font-family="sans-serif" font-size="14" lengthAdjust="spacing" textLength="193.3887" x="676.5" y="497.8477">+ParkingSpot getParkingSpot()</text><text fill="#000000" font-family="sans-serif" font-size="14" lengthAdjust="spacing" textLength="198.7891" x="676.5" y="516.4688">+LocalDateTime getEntryTime()</text></g><!--class ParkingFeeCalculator--><g class="entity" data-entity="ParkingFeeCalculator" data-source-line="46" data-uid="ent0009" id="entity_ParkingFeeCalculator"><rect fill="#F1F1F1" filter="url(#fkhnf4y6e23ou)" height="66.6211" rx="2.5" ry="2.5" style="stroke:#181818;stroke-width:0.5;" width="290.1885" x="345" y="392.0137"/><ellipse cx="418.5342" cy="408.0137" fill="#ADD1B2" rx="11" ry="11" style="stroke:#181818;stroke-width:1;"/><path d="M421.2998,403.8887 Q421.4561,403.6699 421.6436,403.5605 Q421.8311,403.4512 422.0498,403.4512 Q422.4248,403.4512 422.6592,403.7168 Q422.8936,403.9668 422.8936,404.5762 L422.8936,406.0293 Q422.8936,406.6387 422.6592,406.9043 Q422.4248,407.1699 422.0498,407.1699 Q421.7061,407.1699 421.5029,406.9668 Q421.2998,406.7793 421.1904,406.2637 Q421.1436,405.9043 420.9561,405.7168 Q420.6279,405.3418 420.0186,405.123 Q419.4092,404.9043 418.7842,404.9043 Q418.0186,404.9043 417.3779,405.2324 Q416.7529,405.5605 416.2529,406.3105 Q415.7686,407.0605 415.7686,408.0918 L415.7686,409.1855 Q415.7686,410.4199 416.6592,411.248 Q417.5498,412.0605 419.1436,412.0605 Q420.0811,412.0605 420.7373,411.8105 Q421.1279,411.6543 421.5498,411.2168 Q421.8154,410.9512 421.9561,410.873 Q422.1123,410.7949 422.3154,410.7949 Q422.6436,410.7949 422.8936,411.0605 Q423.1592,411.3105 423.1592,411.6543 Q423.1592,411.998 422.8154,412.4043 Q422.3154,412.9824 421.5186,413.3105 Q420.4404,413.7637 419.1436,413.7637 Q417.6279,413.7637 416.4248,413.1387 Q415.4404,412.6387 414.7529,411.5762 Q414.0654,410.498 414.0654,409.2168 L414.0654,408.0605 Q414.0654,406.7324 414.6748,405.5918 Q415.2998,404.4355 416.3936,403.8262 Q417.4873,403.2012 418.7217,403.2012 Q419.4561,403.2012 420.0967,403.373 Q420.7529,403.5293 421.2998,403.8887 Z " fill="#000000"/><text fill="#000000" font-family="sans-serif" font-size="14" lengthAdjust="spacing" textLength="134.6201" x="439.0342" y="413.8105">ParkingFeeCalculator</text><line style="stroke:#181818;stroke-width:0.5;" x1="346" x2="634.1885" y1="424.0137" y2="424.0137"/><line style="stroke:#181818;stroke-width:0.5;" x1="346" x2="634.1885" y1="432.0137" y2="432.0137"/><text fill="#000000" font-family="sans-serif" font-size="14" lengthAdjust="spacing" textLength="278.1885" x="351" y="451.1211">+double calculateFee(Ticket,LocalDateTime)</text></g><!--class ParkingSpot--><g class="entity" data-entity="ParkingSpot" data-source-line="50" data-uid="ent0010" id="entity_ParkingSpot"><rect fill="#F1F1F1" filter="url(#fkhnf4y6e23ou)" height="215.5898" rx="2.5" ry="2.5" style="stroke:#181818;stroke-width:0.5;" width="180.4922" x="307" y="621.5137"/><ellipse cx="354.8618" cy="637.5137" fill="#ADD1B2" rx="11" ry="11" style="stroke:#181818;stroke-width:1;"/><path d="M357.6274,633.3887 Q357.7837,633.1699 357.9712,633.0605 Q358.1587,632.9512 358.3774,632.9512 Q358.7524,632.9512 358.9868,633.2168 Q359.2212,633.4668 359.2212,634.0762 L359.2212,635.5293 Q359.2212,636.1387 358.9868,636.4043 Q358.7524,636.6699 358.3774,636.6699 Q358.0337,636.6699 357.8306,636.4668 Q357.6274,636.2793 357.5181,635.7637 Q357.4712,635.4043 357.2837,635.2168 Q356.9556,634.8418 356.3462,634.623 Q355.7368,634.4043 355.1118,634.4043 Q354.3462,634.4043 353.7056,634.7324 Q353.0806,635.0605 352.5806,635.8105 Q352.0962,636.5605 352.0962,637.5918 L352.0962,638.6855 Q352.0962,639.9199 352.9868,640.748 Q353.8774,641.5605 355.4712,641.5605 Q356.4087,641.5605 357.0649,641.3105 Q357.4556,641.1543 357.8774,640.7168 Q358.1431,640.4512 358.2837,640.373 Q358.4399,640.2949 358.6431,640.2949 Q358.9712,640.2949 359.2212,640.5605 Q359.4868,640.8105 359.4868,641.1543 Q359.4868,641.498 359.1431,641.9043 Q358.6431,642.4824 357.8462,642.8105 Q356.7681,643.2637 355.4712,643.2637 Q353.9556,643.2637 352.7524,642.6387 Q351.7681,642.1387 351.0806,641.0762 Q350.3931,639.998 350.3931,638.7168 L350.3931,637.5605 Q350.3931,636.2324 351.0024,635.0918 Q351.6274,633.9355 352.7212,633.3262 Q353.8149,632.7012 355.0493,632.7012 Q355.7837,632.7012 356.4243,632.873 Q357.0806,633.0293 357.6274,633.3887 Z " fill="#000000"/><text fill="#000000" font-family="sans-serif" font-size="14" lengthAdjust="spacing" textLength="76.2686" x="375.3618" y="643.3105">ParkingSpot</text><line style="stroke:#181818;stroke-width:0.5;" x1="308" x2="486.4922" y1="653.5137" y2="653.5137"/><text fill="#000000" font-family="sans-serif" font-size="14" lengthAdjust="spacing" textLength="99.5928" x="313" y="672.6211">-int spotNumber</text><text fill="#000000" font-family="sans-serif" font-size="14" lengthAdjust="spacing" textLength="126.0615" x="313" y="691.2422">-SpotType spotType</text><text fill="#000000" font-family="sans-serif" font-size="14" lengthAdjust="spacing" textLength="143.958" x="313" y="709.8633">-Vehicle currentVehicle</text><line style="stroke:#181818;stroke-width:0.5;" x1="308" x2="486.4922" y1="717.377" y2="717.377"/><text fill="#000000" font-family="sans-serif" font-size="14" lengthAdjust="spacing" textLength="134.2305" x="313" y="736.4844">+int getSpotNumber()</text><text fill="#000000" font-family="sans-serif" font-size="14" lengthAdjust="spacing" textLength="160.6992" x="313" y="755.1055">+SpotType getSpotType()</text><text fill="#000000" font-family="sans-serif" font-size="14" lengthAdjust="spacing" textLength="138.1406" x="313" y="773.7266">+boolean isAvailable()</text><text fill="#000000" font-family="sans-serif" font-size="14" lengthAdjust="spacing" textLength="168.4922" x="313" y="792.3477">+boolean canPark(Vehicle)</text><text fill="#000000" font-family="sans-serif" font-size="14" lengthAdjust="spacing" textLength="120.2236" x="313" y="810.9688">+void park(Vehicle)</text><text fill="#000000" font-family="sans-serif" font-size="14" lengthAdjust="spacing" textLength="110.1133" x="313" y="829.5898">+Vehicle unpark()</text></g><!--class ParkingLot--><g class="entity" data-entity="ParkingLot" data-source-line="63" data-uid="ent0011" id="entity_ParkingLot"><rect fill="#F1F1F1" filter="url(#fkhnf4y6e23ou)" height="159.7266" rx="2.5" ry="2.5" style="stroke:#181818;stroke-width:0.5;" width="291.7539" x="344" y="88.0137"/><ellipse cx="452.1616" cy="104.0137" fill="#ADD1B2" rx="11" ry="11" style="stroke:#181818;stroke-width:1;"/><path d="M454.9272,99.8887 Q455.0835,99.6699 455.271,99.5605 Q455.4585,99.4512 455.6772,99.4512 Q456.0522,99.4512 456.2866,99.7168 Q456.521,99.9668 456.521,100.5762 L456.521,102.0293 Q456.521,102.6387 456.2866,102.9043 Q456.0522,103.1699 455.6772,103.1699 Q455.3335,103.1699 455.1304,102.9668 Q454.9272,102.7793 454.8179,102.2637 Q454.771,101.9043 454.5835,101.7168 Q454.2554,101.3418 453.646,101.123 Q453.0366,100.9043 452.4116,100.9043 Q451.646,100.9043 451.0054,101.2324 Q450.3804,101.5605 449.8804,102.3105 Q449.396,103.0605 449.396,104.0918 L449.396,105.1855 Q449.396,106.4199 450.2866,107.248 Q451.1772,108.0605 452.771,108.0605 Q453.7085,108.0605 454.3647,107.8105 Q454.7554,107.6543 455.1772,107.2168 Q455.4429,106.9512 455.5835,106.873 Q455.7397,106.7949 455.9429,106.7949 Q456.271,106.7949 456.521,107.0605 Q456.7866,107.3105 456.7866,107.6543 Q456.7866,107.998 456.4429,108.4043 Q455.9429,108.9824 455.146,109.3105 Q454.0679,109.7637 452.771,109.7637 Q451.2554,109.7637 450.0522,109.1387 Q449.0679,108.6387 448.3804,107.5762 Q447.6929,106.498 447.6929,105.2168 L447.6929,104.0605 Q447.6929,102.7324 448.3022,101.5918 Q448.9272,100.4355 450.021,99.8262 Q451.1147,99.2012 452.3491,99.2012 Q453.0835,99.2012 453.7241,99.373 Q454.3804,99.5293 454.9272,99.8887 Z " fill="#000000"/><text fill="#000000" font-family="sans-serif" font-size="14" lengthAdjust="spacing" textLength="66.9307" x="472.6616" y="109.8105">ParkingLot</text><line style="stroke:#181818;stroke-width:0.5;" x1="345" x2="634.7539" y1="120.0137" y2="120.0137"/><text fill="#000000" font-family="sans-serif" font-size="14" lengthAdjust="spacing" textLength="112.8203" x="350" y="139.1211">-List&lt;Floor&gt; floors</text><text fill="#000000" font-family="sans-serif" font-size="14" lengthAdjust="spacing" textLength="210.8477" x="350" y="157.7422">-Map&lt;String,Ticket&gt; activeTickets</text><text fill="#000000" font-family="sans-serif" font-size="14" lengthAdjust="spacing" textLength="279.7539" x="350" y="176.3633">~ParkingFeeCalculator parkingFeeCalculator</text><line style="stroke:#181818;stroke-width:0.5;" x1="345" x2="634.7539" y1="183.877" y2="183.877"/><text fill="#000000" font-family="sans-serif" font-size="14" lengthAdjust="spacing" textLength="177.7959" x="350" y="202.9844">+Ticket parkVehicle(Vehicle)</text><text fill="#000000" font-family="sans-serif" font-size="14" lengthAdjust="spacing" textLength="265.7471" x="350" y="221.6055">+double exitVehicle(String,LocalDateTime)</text><text fill="#000000" font-family="sans-serif" font-size="14" lengthAdjust="spacing" textLength="162.2578" x="350" y="240.2266">+void findAvailableSpots()</text></g><!--class Floor--><g class="entity" data-entity="Floor" data-source-line="73" data-uid="ent0012" id="entity_Floor"><rect fill="#F1F1F1" filter="url(#fkhnf4y6e23ou)" height="141.1055" rx="2.5" ry="2.5" style="stroke:#181818;stroke-width:0.5;" width="263.7607" x="46" y="355.0137"/><ellipse cx="157.6821" cy="371.0137" fill="#ADD1B2" rx="11" ry="11" style="stroke:#181818;stroke-width:1;"/><path d="M160.4478,366.8887 Q160.604,366.6699 160.7915,366.5605 Q160.979,366.4512 161.1978,366.4512 Q161.5728,366.4512 161.8071,366.7168 Q162.0415,366.9668 162.0415,367.5762 L162.0415,369.0293 Q162.0415,369.6387 161.8071,369.9043 Q161.5728,370.1699 161.1978,370.1699 Q160.854,370.1699 160.6509,369.9668 Q160.4478,369.7793 160.3384,369.2637 Q160.2915,368.9043 160.104,368.7168 Q159.7759,368.3418 159.1665,368.123 Q158.5571,367.9043 157.9321,367.9043 Q157.1665,367.9043 156.5259,368.2324 Q155.9009,368.5605 155.4009,369.3105 Q154.9165,370.0605 154.9165,371.0918 L154.9165,372.1855 Q154.9165,373.4199 155.8071,374.248 Q156.6978,375.0605 158.2915,375.0605 Q159.229,375.0605 159.8853,374.8105 Q160.2759,374.6543 160.6978,374.2168 Q160.9634,373.9512 161.104,373.873 Q161.2603,373.7949 161.4634,373.7949 Q161.7915,373.7949 162.0415,374.0605 Q162.3071,374.3105 162.3071,374.6543 Q162.3071,374.998 161.9634,375.4043 Q161.4634,375.9824 160.6665,376.3105 Q159.5884,376.7637 158.2915,376.7637 Q156.7759,376.7637 155.5728,376.1387 Q154.5884,375.6387 153.9009,374.5762 Q153.2134,373.498 153.2134,372.2168 L153.2134,371.0605 Q153.2134,369.7324 153.8228,368.5918 Q154.4478,367.4355 155.5415,366.8262 Q156.6353,366.2012 157.8696,366.2012 Q158.604,366.2012 159.2446,366.373 Q159.9009,366.5293 160.4478,366.8887 Z " fill="#000000"/><text fill="#000000" font-family="sans-serif" font-size="14" lengthAdjust="spacing" textLength="31.8965" x="178.1821" y="376.8105">Floor</text><line style="stroke:#181818;stroke-width:0.5;" x1="47" x2="308.7607" y1="387.0137" y2="387.0137"/><text fill="#000000" font-family="sans-serif" font-size="14" lengthAdjust="spacing" textLength="100.3652" x="52" y="406.1211">-int floorNumber</text><text fill="#000000" font-family="sans-serif" font-size="14" lengthAdjust="spacing" textLength="204.6748" x="52" y="424.7422">-List&lt;ParkingSpot&gt; parkingSpots</text><line style="stroke:#181818;stroke-width:0.5;" x1="47" x2="308.7607" y1="432.2559" y2="432.2559"/><text fill="#000000" font-family="sans-serif" font-size="14" lengthAdjust="spacing" textLength="137.3271" x="52" y="451.3633">+int getFloorNumber()</text><text fill="#000000" font-family="sans-serif" font-size="14" lengthAdjust="spacing" textLength="238.5264" x="52" y="469.9844">+List&lt;ParkingSpot&gt; getParkingSpots()</text><text fill="#000000" font-family="sans-serif" font-size="14" lengthAdjust="spacing" textLength="251.7607" x="52" y="488.6055">+ParkingSpot findAvailableSpot(Vehicle)</text></g><!--class Vehicle--><g class="entity" data-entity="Vehicle" data-source-line="82" data-uid="ent0013" id="entity_Vehicle"><rect fill="#F1F1F1" filter="url(#fkhnf4y6e23ou)" height="122.4844" rx="2.5" ry="2.5" style="stroke:#181818;stroke-width:0.5;" width="206.9336" x="471.5" y="935.0137"/><ellipse cx="547.7583" cy="951.0137" fill="#ADD1B2" rx="11" ry="11" style="stroke:#181818;stroke-width:1;"/><path d="M550.5239,946.8887 Q550.6802,946.6699 550.8677,946.5605 Q551.0552,946.4512 551.2739,946.4512 Q551.6489,946.4512 551.8833,946.7168 Q552.1177,946.9668 552.1177,947.5762 L552.1177,949.0293 Q552.1177,949.6387 551.8833,949.9043 Q551.6489,950.1699 551.2739,950.1699 Q550.9302,950.1699 550.7271,949.9668 Q550.5239,949.7793 550.4146,949.2637 Q550.3677,948.9043 550.1802,948.7168 Q549.8521,948.3418 549.2427,948.123 Q548.6333,947.9043 548.0083,947.9043 Q547.2427,947.9043 546.6021,948.2324 Q545.9771,948.5605 545.4771,949.3105 Q544.9927,950.0605 544.9927,951.0918 L544.9927,952.1855 Q544.9927,953.4199 545.8833,954.248 Q546.7739,955.0605 548.3677,955.0605 Q549.3052,955.0605 549.9614,954.8105 Q550.3521,954.6543 550.7739,954.2168 Q551.0396,953.9512 551.1802,953.873 Q551.3364,953.7949 551.5396,953.7949 Q551.8677,953.7949 552.1177,954.0605 Q552.3833,954.3105 552.3833,954.6543 Q552.3833,954.998 552.0396,955.4043 Q551.5396,955.9824 550.7427,956.3105 Q549.6646,956.7637 548.3677,956.7637 Q546.8521,956.7637 545.6489,956.1387 Q544.6646,955.6387 543.9771,954.5762 Q543.2896,953.498 543.2896,952.2168 L543.2896,951.0605 Q543.2896,949.7324 543.8989,948.5918 Q544.5239,947.4355 545.6177,946.8262 Q546.7114,946.2012 547.9458,946.2012 Q548.6802,946.2012 549.3208,946.373 Q549.9771,946.5293 550.5239,946.8887 Z " fill="#000000"/><text fill="#000000" font-family="sans-serif" font-size="14" lengthAdjust="spacing" textLength="45.917" x="568.2583" y="956.8105">Vehicle</text><line style="stroke:#181818;stroke-width:0.5;" x1="472.5" x2="677.4336" y1="967.0137" y2="967.0137"/><text fill="#000000" font-family="sans-serif" font-size="14" lengthAdjust="spacing" textLength="120.6133" x="477.5" y="986.1211">-String licensePlate</text><text fill="#000000" font-family="sans-serif" font-size="14" lengthAdjust="spacing" textLength="160.2959" x="477.5" y="1004.7422">-VehicleType vehicleType</text><line style="stroke:#181818;stroke-width:0.5;" x1="472.5" x2="677.4336" y1="1012.2559" y2="1012.2559"/><text fill="#000000" font-family="sans-serif" font-size="14" lengthAdjust="spacing" textLength="157.5889" x="477.5" y="1031.3633">+String getLicensePlate()</text><text fill="#000000" font-family="sans-serif" font-size="14" lengthAdjust="spacing" textLength="194.9336" x="477.5" y="1049.9844">+VehicleType getVehicleType()</text></g><!--reverse link ParkingLot to Floor--><g class="link" data-entity-1="ParkingLot" data-entity-2="Floor" data-source-line="97" data-uid="lnk14" id="link_ParkingLot_Floor"><path codeLine="97" d="M384.136,255.7068 C342.436,289.8568 303.36,321.8537 263.04,354.8737" fill="none" id="ParkingLot-backto-Floor" style="stroke:#181818;stroke-width:1;"/><polygon fill="#181818" points="393.42,248.1037,386.2436,248.8105,384.136,255.7068,391.3124,254.9999,393.42,248.1037" style="stroke:#181818;stroke-width:1;"/><text fill="#000000" font-family="sans-serif" font-size="13" lengthAdjust="spacing" textLength="48.4199" x="353" y="293.042">contains</text><text fill="#000000" font-family="sans-serif" font-size="13" lengthAdjust="spacing" textLength="7.23" x="377.8398" y="269.7694">1</text><text fill="#000000" font-family="sans-serif" font-size="13" lengthAdjust="spacing" textLength="31.7891" x="239.2643" y="343.7502">many</text></g><!--reverse link Floor to ParkingSpot--><g class="link" data-entity-1="Floor" data-entity-2="ParkingSpot" data-source-line="98" data-uid="lnk15" id="link_Floor_ParkingSpot"><path codeLine="98" d="M235.5628,505.8896 C262.4628,542.9996 289.1,579.7237 319.26,621.3137" fill="none" id="Floor-backto-ParkingSpot" style="stroke:#181818;stroke-width:1;"/><polygon fill="#181818" points="228.52,496.1737,228.8028,503.3792,235.5628,505.8896,235.28,498.684,228.52,496.1737" style="stroke:#181818;stroke-width:1;"/><text fill="#000000" font-family="sans-serif" font-size="13" lengthAdjust="spacing" textLength="48.4199" x="281" y="569.042">contains</text><text fill="#000000" font-family="sans-serif" font-size="13" lengthAdjust="spacing" textLength="7.23" x="226.3931" y="518.3749">1</text><text fill="#000000" font-family="sans-serif" font-size="13" lengthAdjust="spacing" textLength="31.7891" x="281.7145" y="610.1612">many</text></g><!--link ParkingSpot to Vehicle--><g class="link" data-entity-1="ParkingSpot" data-entity-2="Vehicle" data-source-line="101" data-uid="lnk16" id="link_ParkingSpot_Vehicle"><path codeLine="101" d="M469.14,837.7137 C491.4,870.7937 511.7806,901.0655 531.1106,929.7955" fill="none" id="ParkingSpot-to-Vehicle" style="stroke:#181818;stroke-width:1;"/><polygon fill="#181818" points="534.46,934.7737,532.7547,925.0736,531.6689,930.6252,526.1172,929.5394,534.46,934.7737" style="stroke:#181818;stroke-width:1;"/><text fill="#000000" font-family="sans-serif" font-size="13" lengthAdjust="spacing" textLength="31.0781" x="513" y="901.042">holds</text><text fill="#000000" font-family="sans-serif" font-size="13" lengthAdjust="spacing" textLength="21.6836" x="452.0949" y="859.2405">0..1</text><text fill="#000000" font-family="sans-serif" font-size="13" lengthAdjust="spacing" textLength="21.6836" x="507.6019" y="923.7271">0..1</text></g><!--link Ticket to Vehicle--><g class="link" data-entity-1="Ticket" data-entity-2="Vehicle" data-source-line="104" data-uid="lnk17" id="link_Ticket_Vehicle"><path codeLine="104" d="M670.08,511.3437 C644.05,537.8137 619.29,569.0737 604,603.0137 C554.96,711.9037 558.8309,849.1317 566.5609,928.8517" fill="none" id="Ticket-to-Vehicle" style="stroke:#181818;stroke-width:1;"/><polygon fill="#181818" points="567.14,934.8237,570.2527,925.4796,566.6574,929.847,562.2901,926.2517,567.14,934.8237" style="stroke:#181818;stroke-width:1;"/><text fill="#000000" font-family="sans-serif" font-size="13" lengthAdjust="spacing" textLength="15.1709" x="605" y="735.042">for</text></g><!--link Ticket to ParkingSpot--><g class="link" data-entity-1="Ticket" data-entity-2="ParkingSpot" data-source-line="105" data-uid="lnk18" id="link_Ticket_ParkingSpot"><path codeLine="105" d="M670.26,514.9537 C664.56,518.2337 658.79,521.2837 653,524.0137 C595.03,551.3037 564.92,517.8937 512,554.0137 C486.83,571.1937 469.1109,590.8865 452.2109,616.3165" fill="none" id="Ticket-to-ParkingSpot" style="stroke:#181818;stroke-width:1;"/><polygon fill="#181818" points="448.89,621.3137,457.2028,616.0319,451.6575,617.1494,450.54,611.604,448.89,621.3137" style="stroke:#181818;stroke-width:1;"/><text fill="#000000" font-family="sans-serif" font-size="13" lengthAdjust="spacing" textLength="56.3608" x="513" y="569.042">issued for</text></g><!--link Ticket to Payment--><g class="link" data-entity-1="Ticket" data-entity-2="Payment" data-source-line="106" data-uid="lnk19" id="link_Ticket_Payment"><path codeLine="106" d="M770.83,524.1437 C769.5,549.2237 768.367,570.5621 766.977,596.8321" fill="none" id="Ticket-to-Payment" style="stroke:#181818;stroke-width:1;"/><polygon fill="#181818" points="766.66,602.8237,771.13,594.0476,766.9242,597.8307,763.1411,593.6249,766.66,602.8237" style="stroke:#181818;stroke-width:1;"/><text fill="#000000" font-family="sans-serif" font-size="13" lengthAdjust="spacing" textLength="57.8208" x="769" y="569.042">generates</text></g><!--link ParkingLot to ParkingFeeCalculator--><g class="link" data-entity-1="ParkingLot" data-entity-2="ParkingFeeCalculator" data-source-line="109" data-uid="lnk20" id="link_ParkingLot_ParkingFeeCalculator"><path codeLine="109" d="M490,248.1037 C490,296.4737 490,349.7737 490,385.8237" fill="none" id="ParkingLot-to-ParkingFeeCalculator" style="stroke:#181818;stroke-width:1;"/><polygon fill="#181818" points="490,391.8237,494,382.8237,490,386.8237,486,382.8237,490,391.8237" style="stroke:#181818;stroke-width:1;"/><text fill="#000000" font-family="sans-serif" font-size="13" lengthAdjust="spacing" textLength="27.46" x="491" y="293.042">uses</text></g><!--link ParkingLot to Ticket--><g class="link" data-entity-1="ParkingLot" data-entity-2="Ticket" data-source-line="110" data-uid="lnk21" id="link_ParkingLot_Ticket"><path codeLine="110" d="M578.53,248.1037 C607.57,274.0437 635.6554,299.1365 665.8354,326.0965" fill="none" id="ParkingLot-to-Ticket" style="stroke:#181818;stroke-width:1;"/><polygon fill="#181818" points="670.31,330.0937,666.2629,321.1148,666.5811,326.7627,660.9333,327.0809,670.31,330.0937" style="stroke:#181818;stroke-width:1;"/><text fill="#000000" font-family="sans-serif" font-size="13" lengthAdjust="spacing" textLength="53.479" x="634" y="293.042">manages</text></g><!--link ParkingSpot to SpotType--><g class="link" data-entity-1="ParkingSpot" data-entity-2="SpotType" data-source-line="113" data-uid="lnk22" id="link_ParkingSpot_SpotType"><path codeLine="113" d="M388.89,837.7137 C386.12,874.3737 383.6023,907.7207 381.3223,937.8807" fill="none" id="ParkingSpot-to-SpotType" style="stroke:#181818;stroke-width:1;"/><polygon fill="#181818" points="380.87,943.8637,385.5371,935.1908,381.2469,938.8779,377.5598,934.5878,380.87,943.8637" style="stroke:#181818;stroke-width:1;"/><text fill="#000000" font-family="sans-serif" font-size="13" lengthAdjust="spacing" textLength="27.46" x="386" y="901.042">uses</text></g><!--link Vehicle to VehicleType--><g class="link" data-entity-1="Vehicle" data-entity-2="VehicleType" data-source-line="114" data-uid="lnk23" id="link_Vehicle_VehicleType"><path codeLine="114" d="M575,1057.1337 C575,1082.4637 575,1105.6337 575,1129.9137" fill="none" id="Vehicle-to-VehicleType" style="stroke:#181818;stroke-width:1;"/><polygon fill="#181818" points="575,1135.9137,579,1126.9137,575,1130.9137,571,1126.9137,575,1135.9137" style="stroke:#181818;stroke-width:1;"/><text fill="#000000" font-family="sans-serif" font-size="13" lengthAdjust="spacing" textLength="27.46" x="576" y="1102.042">uses</text></g><!--link Payment to PaymentStatus--><g class="link" data-entity-1="Payment" data-entity-2="PaymentStatus" data-source-line="115" data-uid="lnk24" id="link_Payment_PaymentStatus"><path codeLine="115" d="M768.08,856.1837 C770.07,887.2337 771.7145,912.7861 773.3345,937.9461" fill="none" id="Payment-to-PaymentStatus" style="stroke:#181818;stroke-width:1;"/><polygon fill="#181818" points="773.72,943.9337,777.1334,934.6953,773.3987,938.944,769.15,935.2093,773.72,943.9337" style="stroke:#181818;stroke-width:1;"/><text fill="#000000" font-family="sans-serif" font-size="13" lengthAdjust="spacing" textLength="27.46" x="772" y="901.042">uses</text></g><!--SRC=[bLLRRzem57xFhx1uMRiLrBrC4wkG49SAYRQeOPFsQ9n3iUhOKUpGiMdxxJk-9760TjeJvtxvlcC2iig94DcWeEKpbqz2cS4ts74cO7qeWFnAFX1ozx1-U9nydondLfiytAt6axKLb-F7srdoEqcOe5eVrrdHGmxIO8q-IKs9Lb9uqo93qvgpPp34k1_KfwhQ220qLvMqUaXF3JMLhZEzXjwbObHCgO4rpw7sMXdd2isUmApgVXUNQ0yTqUubPmnjqJXsdPsnsxijv0qkf3j06s9L5x1NF2CvmZ7MQSKOQ9k7M2Lm1lEqKEP_03zNepkqAvH-dKncQMh5-NYnd4sjj9hTJnVtjw_o5c2AQFCSETR2SP2z_tKykKox0IbQ-OGZ7Aqyd32q3gKTP7Lnj0SniD5sS40twdacPdMd0FWhr-d4ES242bO9QbJfGClyGR1W1Oouy5DUTJfTld7uxRmMHOwFGADoN-KRA2siDTiw216mh2fBX2geE8_DngNIfe1RkYaHN5PsZerI0gWaN8_tb0kw4LqxezBETn4QD9TQ71dhUIhfFFz6SXcsNN9jRkP2gN94jlR7FjSxMjnuqgyybYD2cU5xy9fE_f2pX1HdZErBjjxwKABH0uFmWpTd57eV4HXMttAPDM1PCFLRwxhL6bxTXWsnRlU8_b7y8dHBvhpDyYTyajUzStto3avcRW5uTVAQqkXb2yv0QbZPGs-Fq1tMlfKxBtOPfSIljhx6IFKmlXkNfNhHv14mXIkfTxpGYSQfS3QQ4waoq52GJzTVpbW_TwnwHpFrOYVPKg4XTkLAAhOh5Vu7cBBgk1mQOuChR2e32wPaody2kSRPS2-5rPZA2wMv7I-9xhdtiKVUz_kabrDvw15F_H2ZfQ5SwiGRZg9Ycg9On45hnJYDcxYWtlLWW2Nw_L4jramDoKw9pEQ6YwTHYM2oQMty5jz7vEZEmhMk83kDyT_f8R8deKHQRSC8XKg39ihieFGuIOpMCKnHf-xp7RhSuz3GUuXVHqcVNBUP_PvLscdnp3Qy-QiBrUfbeyLZTxrEj5hu98Q0v2y0]--></g></svg>