<svg xmlns="http://www.w3.org/2000/svg" xmlns:xlink="http://www.w3.org/1999/xlink" contentStyleType="text/css" data-diagram-type="CLASS" height="1387px" preserveAspectRatio="none" style="width:711px;height:1387px;background:#FFFFFF;" version="1.1" viewBox="0 0 711 1387" width="711px" zoomAndPan="magnify"><defs/><g><!--cluster lld--><g class="cluster" data-entity="lld" data-source-line="1" data-uid="ent0003" id="cluster_lld"><path d="M36.14,6.0137 L53.4711,6.0137 A3.75,3.75 0 0 1 55.9711,8.5137 L62.9711,30.6348 L702.14,30.6348 A2.5,2.5 0 0 1 704.64,33.1348 L704.64,1377.5137 A2.5,2.5 0 0 1 702.14,1380.0137 L36.14,1380.0137 A2.5,2.5 0 0 1 33.64,1377.5137 L33.64,8.5137 A2.5,2.5 0 0 1 36.14,6.0137" fill="none" style="stroke:#000000;stroke-width:1.5;"/><line style="stroke:#000000;stroke-width:1.5;" x1="33.64" x2="62.9711" y1="30.6348" y2="30.6348"/><text fill="#000000" font-family="sans-serif" font-size="14" font-weight="bold" lengthAdjust="spacing" textLength="16.3311" x="37.64" y="23.1211">lld</text></g><!--cluster splitwise--><g class="cluster" data-entity="splitwise" data-source-line="1" data-uid="ent0004" id="cluster_splitwise"><path d="M60.14,51.0137 L120.2709,51.0137 A3.75,3.75 0 0 1 122.7709,53.5137 L129.7709,75.6348 L678.14,75.6348 A2.5,2.5 0 0 1 680.64,78.1348 L680.64,1353.5137 A2.5,2.5 0 0 1 678.14,1356.0137 L60.14,1356.0137 A2.5,2.5 0 0 1 57.64,1353.5137 L57.64,53.5137 A2.5,2.5 0 0 1 60.14,51.0137" fill="none" style="stroke:#000000;stroke-width:1.5;"/><line style="stroke:#000000;stroke-width:1.5;" x1="57.64" x2="129.7709" y1="75.6348" y2="75.6348"/><text fill="#000000" font-family="sans-serif" font-size="14" font-weight="bold" lengthAdjust="spacing" textLength="59.1309" x="61.64" y="68.1211">splitwise</text></g><!--class SplitType--><g class="entity" data-entity="SplitType" data-source-line="1" data-uid="ent0002" id="entity_SplitType"><rect fill="#F1F1F1" height="66.6211" rx="2.5" ry="2.5" style="stroke:#181818;stroke-width:0.5;" width="90.3584" x="135.64" y="940.5137"/><ellipse cx="150.64" cy="956.5137" fill="#ABABAB" rx="11" ry="11" style="stroke:#181818;stroke-width:1;"/><path d="M149.4994,957.3105 L149.4994,959.8105 L153.8275,959.8105 L153.8275,958.8887 Q153.8275,958.2793 154.0619,958.0137 Q154.3119,957.748 154.6869,957.748 Q155.0619,957.748 155.2963,958.0137 Q155.5306,958.2793 155.5306,958.8887 L155.5306,961.5137 L147.5306,961.5137 Q146.9056,961.5137 146.64,961.2793 Q146.39,961.0449 146.39,960.6543 Q146.39,960.2793 146.6556,960.0449 Q146.9213,959.8105 147.5306,959.8105 L147.7963,959.8105 L147.7963,953.1543 L147.5306,953.1543 Q146.9056,953.1543 146.64,952.9199 Q146.39,952.6855 146.39,952.2949 Q146.39,951.9199 146.64,951.6855 Q146.9056,951.4512 147.5306,951.4512 L155.1556,951.4512 L155.1556,954.0449 Q155.1556,954.6543 154.9213,954.9199 Q154.7025,955.1699 154.3119,955.1699 Q153.9369,955.1699 153.7025,954.9199 Q153.4681,954.6543 153.4681,954.0449 L153.4681,953.1543 L149.4994,953.1543 L149.4994,955.6074 L150.9838,955.6074 Q150.9838,954.9512 151.1088,954.7637 Q151.3744,954.3574 151.8431,954.3574 Q152.2181,954.3574 152.4525,954.623 Q152.6869,954.873 152.6869,955.4824 L152.6869,957.4512 Q152.6869,957.998 152.5619,958.1855 Q152.2963,958.5762 151.8431,958.5762 Q151.3744,958.5762 151.1088,958.1699 Q150.9838,957.9824 150.9838,957.3105 L149.4994,957.3105 Z " fill="#000000"/><text fill="#000000" font-family="sans-serif" font-size="14" lengthAdjust="spacing" textLength="58.3584" x="164.64" y="962.3105">SplitType</text><line style="stroke:#181818;stroke-width:0.5;" x1="136.64" x2="224.9984" y1="972.5137" y2="972.5137"/><text fill="#000000" font-family="sans-serif" font-size="14" lengthAdjust="spacing" textLength="55.6377" x="141.64" y="991.6211">+EQUAL</text><line style="stroke:#181818;stroke-width:0.5;" x1="136.64" x2="224.9984" y1="999.1348" y2="999.1348"/></g><!--class User--><g class="entity" data-entity="User" data-source-line="5" data-uid="ent0005" id="entity_User"><rect fill="#F1F1F1" height="178.3477" rx="2.5" ry="2.5" style="stroke:#181818;stroke-width:0.5;" width="154.0029" x="268.64" y="1162.0137"/><ellipse cx="326.6122" cy="1178.0137" fill="#C2C2C2" rx="11" ry="11" style="stroke:#181818;stroke-width:1;"/><path d="M329.3778,1173.8887 Q329.534,1173.6699 329.7215,1173.5605 Q329.909,1173.4512 330.1278,1173.4512 Q330.5028,1173.4512 330.7372,1173.7168 Q330.9715,1173.9668 330.9715,1174.5762 L330.9715,1176.0293 Q330.9715,1176.6387 330.7372,1176.9043 Q330.5028,1177.1699 330.1278,1177.1699 Q329.784,1177.1699 329.5809,1176.9668 Q329.3778,1176.7793 329.2684,1176.2637 Q329.2215,1175.9043 329.034,1175.7168 Q328.7059,1175.3418 328.0965,1175.123 Q327.4872,1174.9043 326.8622,1174.9043 Q326.0965,1174.9043 325.4559,1175.2324 Q324.8309,1175.5605 324.3309,1176.3105 Q323.8465,1177.0605 323.8465,1178.0918 L323.8465,1179.1855 Q323.8465,1180.4199 324.7372,1181.248 Q325.6278,1182.0605 327.2215,1182.0605 Q328.159,1182.0605 328.8153,1181.8105 Q329.2059,1181.6543 329.6278,1181.2168 Q329.8934,1180.9512 330.034,1180.873 Q330.1903,1180.7949 330.3934,1180.7949 Q330.7215,1180.7949 330.9715,1181.0605 Q331.2372,1181.3105 331.2372,1181.6543 Q331.2372,1181.998 330.8934,1182.4043 Q330.3934,1182.9824 329.5965,1183.3105 Q328.5184,1183.7637 327.2215,1183.7637 Q325.7059,1183.7637 324.5028,1183.1387 Q323.5184,1182.6387 322.8309,1181.5762 Q322.1434,1180.498 322.1434,1179.2168 L322.1434,1178.0605 Q322.1434,1176.7324 322.7528,1175.5918 Q323.3778,1174.4355 324.4715,1173.8262 Q325.5653,1173.2012 326.7997,1173.2012 Q327.534,1173.2012 328.1747,1173.373 Q328.8309,1173.5293 329.3778,1173.8887 Z " fill="#000000"/><text fill="#000000" font-family="sans-serif" font-size="14" lengthAdjust="spacing" textLength="29.5586" x="347.1122" y="1183.8105">User</text><line style="stroke:#181818;stroke-width:0.5;" x1="269.64" x2="421.6429" y1="1194.0137" y2="1194.0137"/><text fill="#000000" font-family="sans-serif" font-size="14" lengthAdjust="spacing" textLength="84.0342" x="274.64" y="1213.1211">-String userId</text><text fill="#000000" font-family="sans-serif" font-size="14" lengthAdjust="spacing" textLength="107.3789" x="274.64" y="1231.7422">-String username</text><text fill="#000000" font-family="sans-serif" font-size="14" lengthAdjust="spacing" textLength="78.5791" x="274.64" y="1250.3633">-String email</text><line style="stroke:#181818;stroke-width:0.5;" x1="269.64" x2="421.6429" y1="1257.877" y2="1257.877"/><text fill="#000000" font-family="sans-serif" font-size="14" lengthAdjust="spacing" textLength="118.6582" x="274.64" y="1276.9844">+String getUserId()</text><text fill="#000000" font-family="sans-serif" font-size="14" lengthAdjust="spacing" textLength="142.0029" x="274.64" y="1295.6055">+String getUsername()</text><text fill="#000000" font-family="sans-serif" font-size="14" lengthAdjust="spacing" textLength="112.4307" x="274.64" y="1314.2266">+String getEmail()</text><text fill="#000000" font-family="sans-serif" font-size="14" lengthAdjust="spacing" textLength="106.21" x="274.64" y="1332.8477">+String toString()</text></g><!--class Expense--><g class="entity" data-entity="Expense" data-source-line="16" data-uid="ent0006" id="entity_Expense"><rect fill="#F1F1F1" height="252.832" rx="2.5" ry="2.5" style="stroke:#181818;stroke-width:0.5;" width="169.5684" x="319.64" y="533.0137"/><ellipse cx="372.933" cy="549.0137" fill="#C2C2C2" rx="11" ry="11" style="stroke:#181818;stroke-width:1;"/><path d="M375.6986,544.8887 Q375.8548,544.6699 376.0423,544.5605 Q376.2298,544.4512 376.4486,544.4512 Q376.8236,544.4512 377.058,544.7168 Q377.2923,544.9668 377.2923,545.5762 L377.2923,547.0293 Q377.2923,547.6387 377.058,547.9043 Q376.8236,548.1699 376.4486,548.1699 Q376.1048,548.1699 375.9017,547.9668 Q375.6986,547.7793 375.5892,547.2637 Q375.5423,546.9043 375.3548,546.7168 Q375.0267,546.3418 374.4173,546.123 Q373.808,545.9043 373.183,545.9043 Q372.4173,545.9043 371.7767,546.2324 Q371.1517,546.5605 370.6517,547.3105 Q370.1673,548.0605 370.1673,549.0918 L370.1673,550.1855 Q370.1673,551.4199 371.058,552.248 Q371.9486,553.0605 373.5423,553.0605 Q374.4798,553.0605 375.1361,552.8105 Q375.5267,552.6543 375.9486,552.2168 Q376.2142,551.9512 376.3548,551.873 Q376.5111,551.7949 376.7142,551.7949 Q377.0423,551.7949 377.2923,552.0605 Q377.558,552.3105 377.558,552.6543 Q377.558,552.998 377.2142,553.4043 Q376.7142,553.9824 375.9173,554.3105 Q374.8392,554.7637 373.5423,554.7637 Q372.0267,554.7637 370.8236,554.1387 Q369.8392,553.6387 369.1517,552.5762 Q368.4642,551.498 368.4642,550.2168 L368.4642,549.0605 Q368.4642,547.7324 369.0736,546.5918 Q369.6986,545.4355 370.7923,544.8262 Q371.8861,544.2012 373.1205,544.2012 Q373.8548,544.2012 374.4955,544.373 Q375.1517,544.5293 375.6986,544.8887 Z " fill="#000000"/><text fill="#000000" font-family="sans-serif" font-size="14" lengthAdjust="spacing" textLength="54.4824" x="393.433" y="554.8105">Expense</text><line style="stroke:#181818;stroke-width:0.5;" x1="320.64" x2="488.2084" y1="565.0137" y2="565.0137"/><text fill="#000000" font-family="sans-serif" font-size="14" lengthAdjust="spacing" textLength="109.7305" x="325.64" y="584.1211">-String expenseId</text><text fill="#000000" font-family="sans-serif" font-size="14" lengthAdjust="spacing" textLength="112.8271" x="325.64" y="602.7422">-String description</text><text fill="#000000" font-family="sans-serif" font-size="14" lengthAdjust="spacing" textLength="97.2891" x="325.64" y="621.3633">-double amount</text><text fill="#000000" font-family="sans-serif" font-size="14" lengthAdjust="spacing" textLength="80.917" x="325.64" y="639.9844">-User paidBy</text><text fill="#000000" font-family="sans-serif" font-size="14" lengthAdjust="spacing" textLength="83.2686" x="325.64" y="658.6055">-Group group</text><text fill="#000000" font-family="sans-serif" font-size="14" lengthAdjust="spacing" textLength="122.9307" x="325.64" y="677.2266">-SplitType splitType</text><text fill="#000000" font-family="sans-serif" font-size="14" lengthAdjust="spacing" textLength="129.9512" x="325.64" y="695.8477">-LocalDateTime date</text><line style="stroke:#181818;stroke-width:0.5;" x1="320.64" x2="488.2084" y1="703.3613" y2="703.3613"/><text fill="#000000" font-family="sans-serif" font-size="14" lengthAdjust="spacing" textLength="131.1406" x="325.64" y="722.4688">+double getAmount()</text><text fill="#000000" font-family="sans-serif" font-size="14" lengthAdjust="spacing" textLength="114.7686" x="325.64" y="741.0898">+User getPaidBy()</text><text fill="#000000" font-family="sans-serif" font-size="14" lengthAdjust="spacing" textLength="118.6719" x="325.64" y="759.7109">+Group getGroup()</text><text fill="#000000" font-family="sans-serif" font-size="14" lengthAdjust="spacing" textLength="157.5684" x="325.64" y="778.332">+SplitType getSplitType()</text></g><!--class Group--><g class="entity" data-entity="Group" data-source-line="31" data-uid="ent0007" id="entity_Group"><rect fill="#F1F1F1" height="178.3477" rx="2.5" ry="2.5" style="stroke:#181818;stroke-width:0.5;" width="217.8027" x="446.64" y="885.0137"/><ellipse cx="531.8363" cy="901.0137" fill="#C2C2C2" rx="11" ry="11" style="stroke:#181818;stroke-width:1;"/><path d="M534.6019,896.8887 Q534.7582,896.6699 534.9457,896.5605 Q535.1332,896.4512 535.3519,896.4512 Q535.7269,896.4512 535.9613,896.7168 Q536.1957,896.9668 536.1957,897.5762 L536.1957,899.0293 Q536.1957,899.6387 535.9613,899.9043 Q535.7269,900.1699 535.3519,900.1699 Q535.0082,900.1699 534.805,899.9668 Q534.6019,899.7793 534.4925,899.2637 Q534.4457,898.9043 534.2582,898.7168 Q533.93,898.3418 533.3207,898.123 Q532.7113,897.9043 532.0863,897.9043 Q531.3207,897.9043 530.68,898.2324 Q530.055,898.5605 529.555,899.3105 Q529.0707,900.0605 529.0707,901.0918 L529.0707,902.1855 Q529.0707,903.4199 529.9613,904.248 Q530.8519,905.0605 532.4457,905.0605 Q533.3832,905.0605 534.0394,904.8105 Q534.43,904.6543 534.8519,904.2168 Q535.1175,903.9512 535.2582,903.873 Q535.4144,903.7949 535.6175,903.7949 Q535.9457,903.7949 536.1957,904.0605 Q536.4613,904.3105 536.4613,904.6543 Q536.4613,904.998 536.1175,905.4043 Q535.6175,905.9824 534.8207,906.3105 Q533.7425,906.7637 532.4457,906.7637 Q530.93,906.7637 529.7269,906.1387 Q528.7425,905.6387 528.055,904.5762 Q527.3675,903.498 527.3675,902.2168 L527.3675,901.0605 Q527.3675,899.7324 527.9769,898.5918 Q528.6019,897.4355 529.6957,896.8262 Q530.7894,896.2012 532.0238,896.2012 Q532.7582,896.2012 533.3988,896.373 Q534.055,896.5293 534.6019,896.8887 Z " fill="#000000"/><text fill="#000000" font-family="sans-serif" font-size="14" lengthAdjust="spacing" textLength="38.9102" x="552.3363" y="906.8105">Group</text><line style="stroke:#181818;stroke-width:0.5;" x1="447.64" x2="663.4427" y1="917.0137" y2="917.0137"/><text fill="#000000" font-family="sans-serif" font-size="14" lengthAdjust="spacing" textLength="92.6064" x="452.64" y="936.1211">-String groupId</text><text fill="#000000" font-family="sans-serif" font-size="14" lengthAdjust="spacing" textLength="118.2754" x="452.64" y="954.7422">-String groupName</text><text fill="#000000" font-family="sans-serif" font-size="14" lengthAdjust="spacing" textLength="170.3994" x="452.64" y="973.3633">-List&lt;User&gt; groupMembers</text><line style="stroke:#181818;stroke-width:0.5;" x1="447.64" x2="663.4427" y1="980.877" y2="980.877"/><text fill="#000000" font-family="sans-serif" font-size="14" lengthAdjust="spacing" textLength="128.0098" x="452.64" y="999.9844">+String getGroupId()</text><text fill="#000000" font-family="sans-serif" font-size="14" lengthAdjust="spacing" textLength="153.6787" x="452.64" y="1018.6055">+String getGroupName()</text><text fill="#000000" font-family="sans-serif" font-size="14" lengthAdjust="spacing" textLength="205.8027" x="452.64" y="1037.2266">+List&lt;User&gt; getGroupMembers()</text><text fill="#000000" font-family="sans-serif" font-size="14" lengthAdjust="spacing" textLength="151.334" x="452.64" y="1055.8477">+void addMember(User)</text></g><!--class SplitwiseService--><g class="entity" data-entity="SplitwiseService" data-source-line="42" data-uid="ent0008" id="entity_SplitwiseService"><rect fill="#F1F1F1" height="345.9375" rx="2.5" ry="2.5" style="stroke:#181818;stroke-width:0.5;" width="391.3877" x="115.14" y="88.0137"/><ellipse cx="255.6219" cy="104.0137" fill="#C2C2C2" rx="11" ry="11" style="stroke:#181818;stroke-width:1;"/><path d="M258.3876,99.8887 Q258.5438,99.6699 258.7313,99.5605 Q258.9188,99.4512 259.1376,99.4512 Q259.5126,99.4512 259.7469,99.7168 Q259.9813,99.9668 259.9813,100.5762 L259.9813,102.0293 Q259.9813,102.6387 259.7469,102.9043 Q259.5126,103.1699 259.1376,103.1699 Q258.7938,103.1699 258.5907,102.9668 Q258.3876,102.7793 258.2782,102.2637 Q258.2313,101.9043 258.0438,101.7168 Q257.7157,101.3418 257.1063,101.123 Q256.4969,100.9043 255.8719,100.9043 Q255.1063,100.9043 254.4657,101.2324 Q253.8407,101.5605 253.3407,102.3105 Q252.8563,103.0605 252.8563,104.0918 L252.8563,105.1855 Q252.8563,106.4199 253.7469,107.248 Q254.6376,108.0605 256.2313,108.0605 Q257.1688,108.0605 257.8251,107.8105 Q258.2157,107.6543 258.6376,107.2168 Q258.9032,106.9512 259.0438,106.873 Q259.2001,106.7949 259.4032,106.7949 Q259.7313,106.7949 259.9813,107.0605 Q260.2469,107.3105 260.2469,107.6543 Q260.2469,107.998 259.9032,108.4043 Q259.4032,108.9824 258.6063,109.3105 Q257.5282,109.7637 256.2313,109.7637 Q254.7157,109.7637 253.5126,109.1387 Q252.5282,108.6387 251.8407,107.5762 Q251.1532,106.498 251.1532,105.2168 L251.1532,104.0605 Q251.1532,102.7324 251.7626,101.5918 Q252.3876,100.4355 253.4813,99.8262 Q254.5751,99.2012 255.8094,99.2012 Q256.5438,99.2012 257.1844,99.373 Q257.8407,99.5293 258.3876,99.8887 Z " fill="#000000"/><text fill="#000000" font-family="sans-serif" font-size="14" lengthAdjust="spacing" textLength="101.9238" x="276.1219" y="109.8105">SplitwiseService</text><line style="stroke:#181818;stroke-width:0.5;" x1="116.14" x2="505.5277" y1="120.0137" y2="120.0137"/><text fill="#000000" font-family="sans-serif" font-size="14" lengthAdjust="spacing" textLength="176.627" x="121.14" y="139.1211">-Map&lt;String,User&gt; userMap</text><text fill="#000000" font-family="sans-serif" font-size="14" lengthAdjust="spacing" textLength="194.5508" x="121.14" y="157.7422">-Map&lt;String,Group&gt; groupMap</text><text fill="#000000" font-family="sans-serif" font-size="14" lengthAdjust="spacing" textLength="175.8887" x="121.14" y="176.3633">-List&lt;Expense&gt; expenseList</text><text fill="#000000" font-family="sans-serif" font-size="14" lengthAdjust="spacing" textLength="333.874" x="121.14" y="194.9844">-Map&lt;String,Map&lt;String,Double&gt;&gt; balanceSheetMap</text><text fill="#000000" font-family="sans-serif" font-size="14" lengthAdjust="spacing" textLength="100.3789" x="121.14" y="213.6055">-int userCounter</text><text fill="#000000" font-family="sans-serif" font-size="14" lengthAdjust="spacing" textLength="108.9512" x="121.14" y="232.2266">-int groupCounter</text><text fill="#000000" font-family="sans-serif" font-size="14" lengthAdjust="spacing" textLength="126.0752" x="121.14" y="250.8477">-int expenseCounter</text><line style="stroke:#181818;stroke-width:0.5;" x1="116.14" x2="505.5277" y1="258.3613" y2="258.3613"/><text fill="#000000" font-family="sans-serif" font-size="14" lengthAdjust="spacing" textLength="174.6924" x="121.14" y="277.4688">+Group createGroup(String)</text><text fill="#000000" font-family="sans-serif" font-size="14" lengthAdjust="spacing" textLength="180.8994" x="121.14" y="296.0898">+User addUser(String,String)</text><text fill="#000000" font-family="sans-serif" font-size="14" lengthAdjust="spacing" textLength="254.0576" x="121.14" y="314.7109">+void addMemberToGroup(String,String)</text><text fill="#000000" font-family="sans-serif" font-size="14" lengthAdjust="spacing" textLength="379.3877" x="121.14" y="333.332">+Expense addExpense(String,double,String,String,SplitType)</text><text fill="#000000" font-family="sans-serif" font-size="14" lengthAdjust="spacing" textLength="255.2744" x="121.14" y="351.9531">-void updateBalanceSheetMap(Expense)</text><text fill="#000000" font-family="sans-serif" font-size="14" lengthAdjust="spacing" textLength="219.4541" x="121.14" y="370.5742">-void addDebt(String,String,double)</text><text fill="#000000" font-family="sans-serif" font-size="14" lengthAdjust="spacing" textLength="152.9063" x="121.14" y="389.1953">+void showAllBalances()</text><text fill="#000000" font-family="sans-serif" font-size="14" lengthAdjust="spacing" textLength="196.4785" x="121.14" y="407.8164">+void showUserBalance(String)</text><text fill="#000000" font-family="sans-serif" font-size="14" lengthAdjust="spacing" textLength="175.4648" x="121.14" y="426.4375">+void settleUp(String,String)</text></g><!--reverse link Group to User--><g class="link" data-entity-1="Group" data-entity-2="User" data-source-line="71" data-uid="lnk9" id="link_Group_User"><path codeLine="71" d="M481.0447,1072.6991 C456.9247,1104.2691 437.04,1130.3237 412.93,1161.8937" fill="none" id="Group-backto-User" style="stroke:#181818;stroke-width:1;"/><polygon fill="#181818" points="488.33,1063.1637,481.5089,1065.503,481.0447,1072.6991,487.8659,1070.3598,488.33,1063.1637" style="stroke:#181818;stroke-width:1;"/><text fill="#000000" font-family="sans-serif" font-size="13" lengthAdjust="spacing" textLength="48.4199" x="457.64" y="1118.042">contains</text><text fill="#000000" font-family="sans-serif" font-size="13" lengthAdjust="spacing" textLength="7.23" x="475.4837" y="1085.2763">1</text><text fill="#000000" font-family="sans-serif" font-size="13" lengthAdjust="spacing" textLength="19.5127" x="398.7368" y="1150.8355">0..*</text></g><!--link Expense to User--><g class="link" data-entity-1="Expense" data-entity-2="User" data-source-line="74" data-uid="lnk10" id="link_Expense_User"><path codeLine="74" d="M387.35,786.2537 C383.22,818.4137 379.03,852.9637 375.64,885.0137 C365.67,979.3837 357.5659,1081.7995 352.1759,1155.7895" fill="none" id="Expense-to-User" style="stroke:#181818;stroke-width:1;"/><polygon fill="#181818" points="351.74,1161.7737,356.3833,1153.0881,352.1033,1156.7869,348.4045,1152.5068,351.74,1161.7737" style="stroke:#181818;stroke-width:1;"/><text fill="#000000" font-family="sans-serif" font-size="13" lengthAdjust="spacing" textLength="39.749" x="376.64" y="979.542">paidBy</text><text fill="#000000" font-family="sans-serif" font-size="13" lengthAdjust="spacing" textLength="7.23" x="379.2311" y="807.6905">1</text><text fill="#000000" font-family="sans-serif" font-size="13" lengthAdjust="spacing" textLength="7.23" x="344.9647" y="1150.7056">1</text></g><!--link Expense to Group--><g class="link" data-entity-1="Expense" data-entity-2="Group" data-source-line="75" data-uid="lnk11" id="link_Expense_Group"><path codeLine="75" d="M465.4,786.2637 C481.39,819.3437 495.6689,848.9116 510.4689,879.5316" fill="none" id="Expense-to-Group" style="stroke:#181818;stroke-width:1;"/><polygon fill="#181818" points="513.08,884.9337,512.7648,875.0899,510.9041,880.4319,505.562,878.5713,513.08,884.9337" style="stroke:#181818;stroke-width:1;"/><text fill="#000000" font-family="sans-serif" font-size="13" lengthAdjust="spacing" textLength="59.9917" x="494.64" y="841.042">belongs to</text><text fill="#000000" font-family="sans-serif" font-size="13" lengthAdjust="spacing" textLength="7.23" x="461.5495" y="807.701">1</text><text fill="#000000" font-family="sans-serif" font-size="13" lengthAdjust="spacing" textLength="7.23" x="502.2833" y="873.8788">1</text></g><!--reverse link SplitwiseService to User--><g class="link" data-entity-1="SplitwiseService" data-entity-2="User" data-source-line="78" data-uid="lnk12" id="link_SplitwiseService_User"><path codeLine="78" d="M194.1698,444.8088 C101.8698,611.9788 6,859.0737 105.64,1063.0137 C139.26,1131.8337 211.79,1182.6837 268.37,1213.8437" fill="none" id="SplitwiseService-backto-User" style="stroke:#181818;stroke-width:1;"/><polygon fill="none" points="199.97,434.3037,193.5682,437.6228,194.1698,444.8088,200.5716,441.4896,199.97,434.3037" style="stroke:#181818;stroke-width:1;"/><text fill="#000000" font-family="sans-serif" font-size="13" lengthAdjust="spacing" textLength="53.479" x="67.64" y="841.042">manages</text><text fill="#000000" font-family="sans-serif" font-size="13" lengthAdjust="spacing" textLength="5.0591" x="255.5204" y="1206.3736">*</text></g><!--reverse link SplitwiseService to Group--><g class="link" data-entity-1="SplitwiseService" data-entity-2="Group" data-source-line="79" data-uid="lnk13" id="link_SplitwiseService_Group"><path codeLine="79" d="M469.6768,443.9848 C491.5168,475.2848 504.74,499.0037 519.64,533.0137 C576,661.6437 577.29,704.7837 569.64,845.0137 C568.93,857.9637 567.83,871.6137 566.54,884.9837" fill="none" id="SplitwiseService-backto-Group" style="stroke:#181818;stroke-width:1;"/><polygon fill="none" points="462.81,434.1437,462.963,441.3532,469.6768,443.9848,469.5238,436.7753,462.81,434.1437" style="stroke:#181818;stroke-width:1;"/><text fill="#000000" font-family="sans-serif" font-size="13" lengthAdjust="spacing" textLength="53.479" x="573.64" y="665.042">manages</text><text fill="#000000" font-family="sans-serif" font-size="13" lengthAdjust="spacing" textLength="5.0591" x="562.2729" y="873.6281">*</text></g><!--reverse link SplitwiseService to Expense--><g class="link" data-entity-1="SplitwiseService" data-entity-2="Expense" data-source-line="80" data-uid="lnk14" id="link_SplitwiseService_Expense"><path codeLine="80" d="M354.2267,445.8704 C362.0767,479.0004 367.4,501.4337 374.82,532.7437" fill="none" id="SplitwiseService-backto-Expense" style="stroke:#181818;stroke-width:1;"/><polygon fill="none" points="351.46,434.1937,348.9511,440.9543,354.2267,445.8704,356.7356,439.1098,351.46,434.1937" style="stroke:#181818;stroke-width:1;"/><text fill="#000000" font-family="sans-serif" font-size="13" lengthAdjust="spacing" textLength="35.4009" x="363.64" y="489.042">stores</text><text fill="#000000" font-family="sans-serif" font-size="13" lengthAdjust="spacing" textLength="5.0591" x="367.8655" y="521.543">*</text></g><!--link SplitwiseService to SplitType--><g class="link" data-entity-1="SplitwiseService" data-entity-2="SplitType" data-source-line="83" data-uid="lnk15" id="link_SplitwiseService_SplitType"><path codeLine="83" d="M278.83,434.0337 C272.78,466.8937 266.5,501.0137 260.64,533.0137 C232.73,685.3737 200.809,861.5797 187.599,934.5397" fill="none" id="SplitwiseService-to-SplitType" style="stroke:#181818;stroke-width:1;"/><polygon fill="#181818" points="186.53,940.4437,192.0695,932.3003,187.4208,935.5237,184.1974,930.875,186.53,940.4437" style="stroke:#181818;stroke-width:1;"/><text fill="#000000" font-family="sans-serif" font-size="13" lengthAdjust="spacing" textLength="27.46" x="261.64" y="665.042">uses</text></g><!--link User to User--><g class="link" data-entity-1="User" data-entity-2="User" data-source-line="86" data-uid="lnk16" id="link_User_User"><path codeLine="86" d="M422.76,1225.3837 C455.13,1223.5337 482.64,1232.0837 482.64,1251.0137 C482.64,1269.9437 455.13,1278.4937 422.76,1276.6437" fill="none" id="User-User" style="stroke:#181818;stroke-width:1;stroke-dasharray:7,7;"/><text fill="#000000" font-family="sans-serif" font-size="13" lengthAdjust="spacing" textLength="137.2871" x="488.64" y="1256.542">owes (via balance map)</text><text fill="#000000" font-family="sans-serif" font-size="13" lengthAdjust="spacing" textLength="7.23" x="430.7072" y="1219.0495">1</text><text fill="#000000" font-family="sans-serif" font-size="13" lengthAdjust="spacing" textLength="7.23" x="430.7072" y="1275.3554">1</text></g><!--link Expense to SplitType--><g class="link" data-entity-1="Expense" data-entity-2="SplitType" data-source-line="89" data-uid="lnk17" id="link_Expense_SplitType"><path codeLine="89" d="M319.64,779.1037 C278.17,836.9437 234.9556,897.2372 207.6156,935.3772" fill="none" id="Expense-to-SplitType" style="stroke:#181818;stroke-width:1;"/><polygon fill="#181818" points="204.12,940.2537,212.6145,935.2693,207.033,936.1899,206.1125,930.6085,204.12,940.2537" style="stroke:#181818;stroke-width:1;"/></g><!--SRC=[XLNRSjem47ttL-pmKaY1ILyw7IPbXYGqPOPSMiC727i3ciYIHnAGjDD_x-fYOmDfUS3IqUxPinVPABS5294FJIcutNE3mzIj5cybmk_a8y3qnt8oJ_uaIIQOCKUsIuEQp0QGMitb6hQqd-NjlMG57X0i61V46xThj4llq-sTWCxn29uwxoPcLLWGHXBFQfo-bYWDDcLYW9fASpIPvgNbIXAOg-rA8B12RQMblS-pP3o_VgFTdLRR4jRktn7KzJBLYj2vofYuPHONl438QK6Y8oqbCl7CFXFFJT2Jf_TG383MBqA-THI2wyq_qWuSZQIztcRA7dW8tPbpOw-Sad60xx5OeJQjujy5WgEMt5Ki7c_onBD8vOztYkV0yZnWNMVuVWPfjKfHxtWMEdZFogiGl1_2k14Zi7ta0rUf-4ClB8x2k1e01xOT6yjRtwpn65PCC9bXka6qWOnBw-FUk2QYZeYFrePYd0giEfjff848pGtHwa6WuhXdXFk7qtRf5ghftJ2hffqiuxAo2SFNRtdqwqdgaM8VObkwORrkvzoDNBKLqT_YohRZnn2rMhDH-uaGaQin0Ux0PHbFkaTP6hHMuF8aEngK3z_uAwWTQi7AqasWO2iK9Z4lN9PCimAaegkC9No-R82QoHS7Vcc2PiDojNSapqmOR9mKIgfienNTNAktpHC_fnDBWbPRYxDCoPJ_GhWaPV3rp0z-JkUJnUpn8Vq-UqhFcZXNob2HZXjLbCfm_n8AazBvr86BmG0wbyFXHIUCo0Weh6LS6kSwCKPbd3aVarJTTsw3mTW_eqzyUvsp2A56G9Ka5OPUgbvJl7K5asoD1fWGWDAIEjfq9-krnhKFsqjERgfoaWzw8yNxTfM2_nfMyaTWhDBeAq1134pfGtRgvZ8yl3b7xjAQa9ju1dQe7Emug-uvYIYXIoFs1fpQeIsZY_oiDDJilSJdvKet73PhhFQkD4TSFHVmqNzPc1X1IhCFTiDidOiJTL1PTwYbFKd-0W00]--></g></svg>