<svg xmlns="http://www.w3.org/2000/svg" xmlns:xlink="http://www.w3.org/1999/xlink" contentStyleType="text/css" data-diagram-type="CLASS" height="1593px" preserveAspectRatio="none" style="width:1144px;height:1593px;background:#FFFFFF;" version="1.1" viewBox="0 0 1144 1593" width="1144px" zoomAndPan="magnify"><defs><filter height="300%" id="fc5gbnyie0sej" width="300%" x="-1" y="-1"><feGaussianBlur result="blurOut" stdDeviation="2"/><feColorMatrix in="blurOut" result="blurOut2" type="matrix" values="0 0 0 0 0 0 0 0 0 0 0 0 0 0 0 0 0 0 .4 0"/><feOffset dx="4" dy="4" in="blurOut2" result="blurOut3"/><feBlend in="SourceGraphic" in2="blurOut3" mode="normal"/></filter></defs><g><!--cluster lld--><g class="cluster" data-entity="lld" data-source-line="1" data-uid="ent0003" id="cluster_lld"><path d="M8.5,6.0137 L25.8311,6.0137 A3.75,3.75 0 0 1 28.3311,8.5137 L35.3311,30.6348 L931.5,30.6348 A2.5,2.5 0 0 1 934,33.1348 L934,1584.0137 A2.5,2.5 0 0 1 931.5,1586.5137 L8.5,1586.5137 A2.5,2.5 0 0 1 6,1584.0137 L6,8.5137 A2.5,2.5 0 0 1 8.5,6.0137" fill="none" filter="url(#fc5gbnyie0sej)" style="stroke:#000000;stroke-width:1.5;"/><line style="stroke:#000000;stroke-width:1.5;" x1="6" x2="35.3311" y1="30.6348" y2="30.6348"/><text fill="#000000" font-family="sans-serif" font-size="14" font-weight="bold" lengthAdjust="spacing" textLength="16.3311" x="10" y="23.1211">lld</text></g><!--cluster cabbooking--><g class="cluster" data-entity="cabbooking" data-source-line="1" data-uid="ent0004" id="cluster_cabbooking"><path d="M32.5,51.0137 L112.0586,51.0137 A3.75,3.75 0 0 1 114.5586,53.5137 L121.5586,75.6348 L907.5,75.6348 A2.5,2.5 0 0 1 910,78.1348 L910,1560.0137 A2.5,2.5 0 0 1 907.5,1562.5137 L32.5,1562.5137 A2.5,2.5 0 0 1 30,1560.0137 L30,53.5137 A2.5,2.5 0 0 1 32.5,51.0137" fill="none" filter="url(#fc5gbnyie0sej)" style="stroke:#000000;stroke-width:1.5;"/><line style="stroke:#000000;stroke-width:1.5;" x1="30" x2="121.5586" y1="75.6348" y2="75.6348"/><text fill="#000000" font-family="sans-serif" font-size="14" font-weight="bold" lengthAdjust="spacing" textLength="78.5586" x="34" y="68.1211">cabbooking</text></g><!--class Driver--><g class="entity" data-entity="Driver" data-source-line="1" data-uid="ent0002" id="entity_Driver"><rect fill="#F1F1F1" filter="url(#fc5gbnyie0sej)" height="271.4531" rx="2.5" ry="2.5" style="stroke:#181818;stroke-width:0.5;" width="213.5781" x="46" y="891.5137"/><ellipse cx="129.8735" cy="907.5137" fill="#ADD1B2" rx="11" ry="11" style="stroke:#181818;stroke-width:1;"/><path d="M132.6392,903.3887 Q132.7954,903.1699 132.9829,903.0605 Q133.1704,902.9512 133.3892,902.9512 Q133.7642,902.9512 133.9985,903.2168 Q134.2329,903.4668 134.2329,904.0762 L134.2329,905.5293 Q134.2329,906.1387 133.9985,906.4043 Q133.7642,906.6699 133.3892,906.6699 Q133.0454,906.6699 132.8423,906.4668 Q132.6392,906.2793 132.5298,905.7637 Q132.4829,905.4043 132.2954,905.2168 Q131.9673,904.8418 131.3579,904.623 Q130.7485,904.4043 130.1235,904.4043 Q129.3579,904.4043 128.7173,904.7324 Q128.0923,905.0605 127.5923,905.8105 Q127.1079,906.5605 127.1079,907.5918 L127.1079,908.6855 Q127.1079,909.9199 127.9985,910.748 Q128.8892,911.5605 130.4829,911.5605 Q131.4204,911.5605 132.0767,911.3105 Q132.4673,911.1543 132.8892,910.7168 Q133.1548,910.4512 133.2954,910.373 Q133.4517,910.2949 133.6548,910.2949 Q133.9829,910.2949 134.2329,910.5605 Q134.4985,910.8105 134.4985,911.1543 Q134.4985,911.498 134.1548,911.9043 Q133.6548,912.4824 132.8579,912.8105 Q131.7798,913.2637 130.4829,913.2637 Q128.9673,913.2637 127.7642,912.6387 Q126.7798,912.1387 126.0923,911.0762 Q125.4048,909.998 125.4048,908.7168 L125.4048,907.5605 Q125.4048,906.2324 126.0142,905.0918 Q126.6392,903.9355 127.7329,903.3262 Q128.8267,902.7012 130.061,902.7012 Q130.7954,902.7012 131.436,902.873 Q132.0923,903.0293 132.6392,903.3887 Z " fill="#000000"/><text fill="#000000" font-family="sans-serif" font-size="14" lengthAdjust="spacing" textLength="37.3311" x="150.3735" y="913.3105">Driver</text><line style="stroke:#181818;stroke-width:0.5;" x1="47" x2="258.5781" y1="923.5137" y2="923.5137"/><rect fill="none" height="6" style="stroke:#C82930;stroke-width:1;" width="6" x="54" y="935.3242"/><text fill="#000000" font-family="sans-serif" font-size="14" lengthAdjust="spacing" textLength="87.1445" x="66" y="942.6211">String driverId</text><rect fill="none" height="6" style="stroke:#C82930;stroke-width:1;" width="6" x="54" y="953.9453"/><text fill="#000000" font-family="sans-serif" font-size="14" lengthAdjust="spacing" textLength="112.8135" x="66" y="961.2422">String driverName</text><rect fill="none" height="6" style="stroke:#C82930;stroke-width:1;" width="6" x="54" y="972.5664"/><text fill="#000000" font-family="sans-serif" font-size="14" lengthAdjust="spacing" textLength="93.3857" x="66" y="979.8633">Vehicle vehicle</text><rect fill="none" height="6" style="stroke:#C82930;stroke-width:1;" width="6" x="54" y="991.1875"/><text fill="#000000" font-family="sans-serif" font-size="14" lengthAdjust="spacing" textLength="153.3232" x="66" y="998.4844">Location currentLocation</text><rect fill="none" height="6" style="stroke:#C82930;stroke-width:1;" width="6" x="54" y="1009.8086"/><text fill="#000000" font-family="sans-serif" font-size="14" lengthAdjust="spacing" textLength="120.6406" x="66" y="1017.1055">boolean isAvailable</text><line style="stroke:#181818;stroke-width:0.5;" x1="47" x2="258.5781" y1="1024.6191" y2="1024.6191"/><ellipse cx="57" cy="1039.4297" fill="#84BE84" rx="3" ry="3" style="stroke:#038048;stroke-width:1;"/><text fill="#000000" font-family="sans-serif" font-size="14" lengthAdjust="spacing" textLength="118.2549" x="66" y="1043.7266">String getDriverId()</text><ellipse cx="57" cy="1058.0508" fill="#84BE84" rx="3" ry="3" style="stroke:#038048;stroke-width:1;"/><text fill="#000000" font-family="sans-serif" font-size="14" lengthAdjust="spacing" textLength="143.9238" x="66" y="1062.3477">String getDriverName()</text><ellipse cx="57" cy="1076.6719" fill="#84BE84" rx="3" ry="3" style="stroke:#038048;stroke-width:1;"/><text fill="#000000" font-family="sans-serif" font-size="14" lengthAdjust="spacing" textLength="124.5098" x="66" y="1080.9688">Vehicle getVehicle()</text><ellipse cx="57" cy="1095.293" fill="#84BE84" rx="3" ry="3" style="stroke:#038048;stroke-width:1;"/><text fill="#000000" font-family="sans-serif" font-size="14" lengthAdjust="spacing" textLength="185.2197" x="66" y="1099.5898">Location getCurrentLocation()</text><ellipse cx="57" cy="1113.9141" fill="#84BE84" rx="3" ry="3" style="stroke:#038048;stroke-width:1;"/><text fill="#000000" font-family="sans-serif" font-size="14" lengthAdjust="spacing" textLength="129.9648" x="66" y="1118.2109">boolean isAvailable()</text><ellipse cx="57" cy="1132.5352" fill="#84BE84" rx="3" ry="3" style="stroke:#038048;stroke-width:1;"/><text fill="#000000" font-family="sans-serif" font-size="14" lengthAdjust="spacing" textLength="164.2129" x="66" y="1136.832">void setAvailable(boolean)</text><ellipse cx="57" cy="1151.1563" fill="#84BE84" rx="3" ry="3" style="stroke:#038048;stroke-width:1;"/><text fill="#000000" font-family="sans-serif" font-size="14" lengthAdjust="spacing" textLength="187.5781" x="66" y="1155.4531">void updateLocation(Location)</text></g><!--class Location--><g class="entity" data-entity="Location" data-source-line="17" data-uid="ent0005" id="entity_Location"><rect fill="#F1F1F1" filter="url(#fc5gbnyie0sej)" height="178.3477" rx="2.5" ry="2.5" style="stroke:#181818;stroke-width:0.5;" width="202.668" x="295.5" y="938.0137"/><ellipse cx="366.1187" cy="954.0137" fill="#ADD1B2" rx="11" ry="11" style="stroke:#181818;stroke-width:1;"/><path d="M368.8843,949.8887 Q369.0405,949.6699 369.228,949.5605 Q369.4155,949.4512 369.6343,949.4512 Q370.0093,949.4512 370.2437,949.7168 Q370.478,949.9668 370.478,950.5762 L370.478,952.0293 Q370.478,952.6387 370.2437,952.9043 Q370.0093,953.1699 369.6343,953.1699 Q369.2905,953.1699 369.0874,952.9668 Q368.8843,952.7793 368.7749,952.2637 Q368.728,951.9043 368.5405,951.7168 Q368.2124,951.3418 367.603,951.123 Q366.9937,950.9043 366.3687,950.9043 Q365.603,950.9043 364.9624,951.2324 Q364.3374,951.5605 363.8374,952.3105 Q363.353,953.0605 363.353,954.0918 L363.353,955.1855 Q363.353,956.4199 364.2437,957.248 Q365.1343,958.0605 366.728,958.0605 Q367.6655,958.0605 368.3218,957.8105 Q368.7124,957.6543 369.1343,957.2168 Q369.3999,956.9512 369.5405,956.873 Q369.6968,956.7949 369.8999,956.7949 Q370.228,956.7949 370.478,957.0605 Q370.7437,957.3105 370.7437,957.6543 Q370.7437,957.998 370.3999,958.4043 Q369.8999,958.9824 369.103,959.3105 Q368.0249,959.7637 366.728,959.7637 Q365.2124,959.7637 364.0093,959.1387 Q363.0249,958.6387 362.3374,957.5762 Q361.6499,956.498 361.6499,955.2168 L361.6499,954.0605 Q361.6499,952.7324 362.2593,951.5918 Q362.8843,950.4355 363.978,949.8262 Q365.0718,949.2012 366.3062,949.2012 Q367.0405,949.2012 367.6812,949.373 Q368.3374,949.5293 368.8843,949.8887 Z " fill="#000000"/><text fill="#000000" font-family="sans-serif" font-size="14" lengthAdjust="spacing" textLength="52.9307" x="386.6187" y="959.8105">Location</text><line style="stroke:#181818;stroke-width:0.5;" x1="296.5" x2="497.168" y1="970.0137" y2="970.0137"/><rect fill="none" height="6" style="stroke:#C82930;stroke-width:1;" width="6" x="303.5" y="981.8242"/><text fill="#000000" font-family="sans-serif" font-size="14" lengthAdjust="spacing" textLength="68.4824" x="315.5" y="989.1211">String area</text><rect fill="none" height="6" style="stroke:#C82930;stroke-width:1;" width="6" x="303.5" y="1000.4453"/><text fill="#000000" font-family="sans-serif" font-size="14" lengthAdjust="spacing" textLength="91.0752" x="315.5" y="1007.7422">double latitude</text><rect fill="none" height="6" style="stroke:#C82930;stroke-width:1;" width="6" x="303.5" y="1019.0664"/><text fill="#000000" font-family="sans-serif" font-size="14" lengthAdjust="spacing" textLength="102.7578" x="315.5" y="1026.3633">double longitude</text><line style="stroke:#181818;stroke-width:0.5;" x1="296.5" x2="497.168" y1="1033.877" y2="1033.877"/><ellipse cx="306.5" cy="1048.6875" fill="#84BE84" rx="3" ry="3" style="stroke:#038048;stroke-width:1;"/><text fill="#000000" font-family="sans-serif" font-size="14" lengthAdjust="spacing" textLength="98.8203" x="315.5" y="1052.9844">String getArea()</text><ellipse cx="306.5" cy="1067.3086" fill="#84BE84" rx="3" ry="3" style="stroke:#038048;stroke-width:1;"/><text fill="#000000" font-family="sans-serif" font-size="14" lengthAdjust="spacing" textLength="124.5371" x="315.5" y="1071.6055">double getLatitude()</text><ellipse cx="306.5" cy="1085.9297" fill="#84BE84" rx="3" ry="3" style="stroke:#038048;stroke-width:1;"/><text fill="#000000" font-family="sans-serif" font-size="14" lengthAdjust="spacing" textLength="136.2197" x="315.5" y="1090.2266">double getLongitude()</text><ellipse cx="306.5" cy="1104.5508" fill="#84BE84" rx="3" ry="3" style="stroke:#038048;stroke-width:1;"/><text fill="#000000" font-family="sans-serif" font-size="14" lengthAdjust="spacing" textLength="176.668" x="315.5" y="1108.8477">double distanceTo(Location)</text></g><!--class Vehicle--><g class="entity" data-entity="Vehicle" data-source-line="28" data-uid="ent0006" id="entity_Vehicle"><rect fill="#F1F1F1" filter="url(#fc5gbnyie0sej)" height="122.4844" rx="2.5" ry="2.5" style="stroke:#181818;stroke-width:0.5;" width="212.7578" x="46.5" y="1241.5137"/><ellipse cx="125.6704" cy="1257.5137" fill="#ADD1B2" rx="11" ry="11" style="stroke:#181818;stroke-width:1;"/><path d="M128.436,1253.3887 Q128.5923,1253.1699 128.7798,1253.0605 Q128.9673,1252.9512 129.186,1252.9512 Q129.561,1252.9512 129.7954,1253.2168 Q130.0298,1253.4668 130.0298,1254.0762 L130.0298,1255.5293 Q130.0298,1256.1387 129.7954,1256.4043 Q129.561,1256.6699 129.186,1256.6699 Q128.8423,1256.6699 128.6392,1256.4668 Q128.436,1256.2793 128.3267,1255.7637 Q128.2798,1255.4043 128.0923,1255.2168 Q127.7642,1254.8418 127.1548,1254.623 Q126.5454,1254.4043 125.9204,1254.4043 Q125.1548,1254.4043 124.5142,1254.7324 Q123.8892,1255.0605 123.3892,1255.8105 Q122.9048,1256.5605 122.9048,1257.5918 L122.9048,1258.6855 Q122.9048,1259.9199 123.7954,1260.748 Q124.686,1261.5605 126.2798,1261.5605 Q127.2173,1261.5605 127.8735,1261.3105 Q128.2642,1261.1543 128.686,1260.7168 Q128.9517,1260.4512 129.0923,1260.373 Q129.2485,1260.2949 129.4517,1260.2949 Q129.7798,1260.2949 130.0298,1260.5605 Q130.2954,1260.8105 130.2954,1261.1543 Q130.2954,1261.498 129.9517,1261.9043 Q129.4517,1262.4824 128.6548,1262.8105 Q127.5767,1263.2637 126.2798,1263.2637 Q124.7642,1263.2637 123.561,1262.6387 Q122.5767,1262.1387 121.8892,1261.0762 Q121.2017,1259.998 121.2017,1258.7168 L121.2017,1257.5605 Q121.2017,1256.2324 121.811,1255.0918 Q122.436,1253.9355 123.5298,1253.3262 Q124.6235,1252.7012 125.8579,1252.7012 Q126.5923,1252.7012 127.2329,1252.873 Q127.8892,1253.0293 128.436,1253.3887 Z " fill="#000000"/><text fill="#000000" font-family="sans-serif" font-size="14" lengthAdjust="spacing" textLength="45.917" x="146.1704" y="1263.3105">Vehicle</text><line style="stroke:#181818;stroke-width:0.5;" x1="47.5" x2="258.2578" y1="1273.5137" y2="1273.5137"/><rect fill="none" height="6" style="stroke:#C82930;stroke-width:1;" width="6" x="54.5" y="1285.3242"/><text fill="#000000" font-family="sans-serif" font-size="14" lengthAdjust="spacing" textLength="133.834" x="66.5" y="1292.6211">String vehicleNumber</text><rect fill="none" height="6" style="stroke:#C82930;stroke-width:1;" width="6" x="54.5" y="1303.9453"/><text fill="#000000" font-family="sans-serif" font-size="14" lengthAdjust="spacing" textLength="155.6338" x="66.5" y="1311.2422">VehicleType vehicleType</text><line style="stroke:#181818;stroke-width:0.5;" x1="47.5" x2="258.2578" y1="1318.7559" y2="1318.7559"/><ellipse cx="57.5" cy="1333.5664" fill="#84BE84" rx="3" ry="3" style="stroke:#038048;stroke-width:1;"/><text fill="#000000" font-family="sans-serif" font-size="14" lengthAdjust="spacing" textLength="164.958" x="66.5" y="1337.8633">String getVehicleNumber()</text><ellipse cx="57.5" cy="1352.1875" fill="#84BE84" rx="3" ry="3" style="stroke:#038048;stroke-width:1;"/><text fill="#000000" font-family="sans-serif" font-size="14" lengthAdjust="spacing" textLength="186.7578" x="66.5" y="1356.4844">VehicleType getVehicleType()</text></g><!--class RideStatus--><g class="entity" data-entity="RideStatus" data-source-line="36" data-uid="ent0007" id="entity_RideStatus"><rect fill="#F1F1F1" filter="url(#fc5gbnyie0sej)" height="141.1055" rx="2.5" ry="2.5" style="stroke:#181818;stroke-width:0.5;" width="159.0342" x="533.5" y="956.5137"/><ellipse cx="574.8483" cy="972.5137" fill="#EB937F" rx="11" ry="11" style="stroke:#181818;stroke-width:1;"/><path d="M573.7077,973.3105 L573.7077,975.8105 L578.0358,975.8105 L578.0358,974.8887 Q578.0358,974.2793 578.2702,974.0137 Q578.5202,973.748 578.8952,973.748 Q579.2702,973.748 579.5045,974.0137 Q579.7389,974.2793 579.7389,974.8887 L579.7389,977.5137 L571.7389,977.5137 Q571.1139,977.5137 570.8483,977.2793 Q570.5983,977.0449 570.5983,976.6543 Q570.5983,976.2793 570.8639,976.0449 Q571.1295,975.8105 571.7389,975.8105 L572.0045,975.8105 L572.0045,969.1543 L571.7389,969.1543 Q571.1139,969.1543 570.8483,968.9199 Q570.5983,968.6855 570.5983,968.2949 Q570.5983,967.9199 570.8483,967.6855 Q571.1139,967.4512 571.7389,967.4512 L579.3639,967.4512 L579.3639,970.0449 Q579.3639,970.6543 579.1295,970.9199 Q578.9108,971.1699 578.5202,971.1699 Q578.1452,971.1699 577.9108,970.9199 Q577.6764,970.6543 577.6764,970.0449 L577.6764,969.1543 L573.7077,969.1543 L573.7077,971.6074 L575.192,971.6074 Q575.192,970.9512 575.317,970.7637 Q575.5827,970.3574 576.0514,970.3574 Q576.4264,970.3574 576.6608,970.623 Q576.8952,970.873 576.8952,971.4824 L576.8952,973.4512 Q576.8952,973.998 576.7702,974.1855 Q576.5045,974.5762 576.0514,974.5762 Q575.5827,974.5762 575.317,974.1699 Q575.192,973.9824 575.192,973.3105 L573.7077,973.3105 Z " fill="#000000"/><text fill="#000000" font-family="sans-serif" font-size="14" lengthAdjust="spacing" textLength="68.4824" x="594.7035" y="978.3105">RideStatus</text><line style="stroke:#181818;stroke-width:0.5;" x1="534.5" x2="691.5342" y1="988.5137" y2="988.5137"/><ellipse cx="544.5" cy="1003.3242" fill="none" rx="3" ry="3" style="stroke:#038048;stroke-width:1;"/><text fill="#000000" font-family="sans-serif" font-size="14" lengthAdjust="spacing" textLength="87.124" x="553.5" y="1007.6211">REQUESTED</text><ellipse cx="544.5" cy="1021.9453" fill="none" rx="3" ry="3" style="stroke:#038048;stroke-width:1;"/><text fill="#000000" font-family="sans-serif" font-size="14" lengthAdjust="spacing" textLength="133.0342" x="553.5" y="1026.2422">DRIVER_ASSIGNED</text><ellipse cx="544.5" cy="1040.5664" fill="none" rx="3" ry="3" style="stroke:#038048;stroke-width:1;"/><text fill="#000000" font-family="sans-serif" font-size="14" lengthAdjust="spacing" textLength="101.1377" x="553.5" y="1044.8633">IN_PROGRESS</text><ellipse cx="544.5" cy="1059.1875" fill="none" rx="3" ry="3" style="stroke:#038048;stroke-width:1;"/><text fill="#000000" font-family="sans-serif" font-size="14" lengthAdjust="spacing" textLength="87.124" x="553.5" y="1063.4844">COMPLETED</text><ellipse cx="544.5" cy="1077.8086" fill="none" rx="3" ry="3" style="stroke:#038048;stroke-width:1;"/><text fill="#000000" font-family="sans-serif" font-size="14" lengthAdjust="spacing" textLength="84.0273" x="553.5" y="1082.1055">CANCELLED</text><line style="stroke:#181818;stroke-width:0.5;" x1="534.5" x2="691.5342" y1="1089.6191" y2="1089.6191"/></g><!--class VehicleType--><g class="entity" data-entity="VehicleType" data-source-line="44" data-uid="ent0008" id="entity_VehicleType"><rect fill="#F1F1F1" filter="url(#fc5gbnyie0sej)" height="103.8633" rx="2.5" ry="2.5" style="stroke:#181818;stroke-width:0.5;" width="109.041" x="98.5" y="1442.5137"/><ellipse cx="113.5" cy="1458.5137" fill="#EB937F" rx="11" ry="11" style="stroke:#181818;stroke-width:1;"/><path d="M112.3594,1459.3105 L112.3594,1461.8105 L116.6875,1461.8105 L116.6875,1460.8887 Q116.6875,1460.2793 116.9219,1460.0137 Q117.1719,1459.748 117.5469,1459.748 Q117.9219,1459.748 118.1563,1460.0137 Q118.3906,1460.2793 118.3906,1460.8887 L118.3906,1463.5137 L110.3906,1463.5137 Q109.7656,1463.5137 109.5,1463.2793 Q109.25,1463.0449 109.25,1462.6543 Q109.25,1462.2793 109.5156,1462.0449 Q109.7813,1461.8105 110.3906,1461.8105 L110.6563,1461.8105 L110.6563,1455.1543 L110.3906,1455.1543 Q109.7656,1455.1543 109.5,1454.9199 Q109.25,1454.6855 109.25,1454.2949 Q109.25,1453.9199 109.5,1453.6855 Q109.7656,1453.4512 110.3906,1453.4512 L118.0156,1453.4512 L118.0156,1456.0449 Q118.0156,1456.6543 117.7813,1456.9199 Q117.5625,1457.1699 117.1719,1457.1699 Q116.7969,1457.1699 116.5625,1456.9199 Q116.3281,1456.6543 116.3281,1456.0449 L116.3281,1455.1543 L112.3594,1455.1543 L112.3594,1457.6074 L113.8438,1457.6074 Q113.8438,1456.9512 113.9688,1456.7637 Q114.2344,1456.3574 114.7031,1456.3574 Q115.0781,1456.3574 115.3125,1456.623 Q115.5469,1456.873 115.5469,1457.4824 L115.5469,1459.4512 Q115.5469,1459.998 115.4219,1460.1855 Q115.1563,1460.5762 114.7031,1460.5762 Q114.2344,1460.5762 113.9688,1460.1699 Q113.8438,1459.9824 113.8438,1459.3105 L112.3594,1459.3105 Z " fill="#000000"/><text fill="#000000" font-family="sans-serif" font-size="14" lengthAdjust="spacing" textLength="77.041" x="127.5" y="1464.3105">VehicleType</text><line style="stroke:#181818;stroke-width:0.5;" x1="99.5" x2="206.541" y1="1474.5137" y2="1474.5137"/><ellipse cx="109.5" cy="1489.3242" fill="none" rx="3" ry="3" style="stroke:#038048;stroke-width:1;"/><text fill="#000000" font-family="sans-serif" font-size="14" lengthAdjust="spacing" textLength="29.5518" x="118.5" y="1493.6211">MINI</text><ellipse cx="109.5" cy="1507.9453" fill="none" rx="3" ry="3" style="stroke:#038048;stroke-width:1;"/><text fill="#000000" font-family="sans-serif" font-size="14" lengthAdjust="spacing" textLength="48.2344" x="118.5" y="1512.2422">SEDAN</text><ellipse cx="109.5" cy="1526.5664" fill="none" rx="3" ry="3" style="stroke:#038048;stroke-width:1;"/><text fill="#000000" font-family="sans-serif" font-size="14" lengthAdjust="spacing" textLength="28.7861" x="118.5" y="1530.8633">SUV</text><line style="stroke:#181818;stroke-width:0.5;" x1="99.5" x2="206.541" y1="1538.377" y2="1538.377"/></g><!--class Ride--><g class="entity" data-entity="Ride" data-source-line="50" data-uid="ent0009" id="entity_Ride"><rect fill="#F1F1F1" filter="url(#fc5gbnyie0sej)" height="420.4219" rx="2.5" ry="2.5" style="stroke:#181818;stroke-width:0.5;" width="236.082" x="358" y="392.5137"/><ellipse cx="457.3945" cy="408.5137" fill="#ADD1B2" rx="11" ry="11" style="stroke:#181818;stroke-width:1;"/><path d="M460.1602,404.3887 Q460.3164,404.1699 460.5039,404.0605 Q460.6914,403.9512 460.9102,403.9512 Q461.2852,403.9512 461.5195,404.2168 Q461.7539,404.4668 461.7539,405.0762 L461.7539,406.5293 Q461.7539,407.1387 461.5195,407.4043 Q461.2852,407.6699 460.9102,407.6699 Q460.5664,407.6699 460.3633,407.4668 Q460.1602,407.2793 460.0508,406.7637 Q460.0039,406.4043 459.8164,406.2168 Q459.4883,405.8418 458.8789,405.623 Q458.2695,405.4043 457.6445,405.4043 Q456.8789,405.4043 456.2383,405.7324 Q455.6133,406.0605 455.1133,406.8105 Q454.6289,407.5605 454.6289,408.5918 L454.6289,409.6855 Q454.6289,410.9199 455.5195,411.748 Q456.4102,412.5605 458.0039,412.5605 Q458.9414,412.5605 459.5977,412.3105 Q459.9883,412.1543 460.4102,411.7168 Q460.6758,411.4512 460.8164,411.373 Q460.9727,411.2949 461.1758,411.2949 Q461.5039,411.2949 461.7539,411.5605 Q462.0195,411.8105 462.0195,412.1543 Q462.0195,412.498 461.6758,412.9043 Q461.1758,413.4824 460.3789,413.8105 Q459.3008,414.2637 458.0039,414.2637 Q456.4883,414.2637 455.2852,413.6387 Q454.3008,413.1387 453.6133,412.0762 Q452.9258,410.998 452.9258,409.7168 L452.9258,408.5605 Q452.9258,407.2324 453.5352,406.0918 Q454.1602,404.9355 455.2539,404.3262 Q456.3477,403.7012 457.582,403.7012 Q458.3164,403.7012 458.957,403.873 Q459.6133,404.0293 460.1602,404.3887 Z " fill="#000000"/><text fill="#000000" font-family="sans-serif" font-size="14" lengthAdjust="spacing" textLength="28.793" x="477.8945" y="414.3105">Ride</text><line style="stroke:#181818;stroke-width:0.5;" x1="359" x2="593.082" y1="424.5137" y2="424.5137"/><rect fill="none" height="6" style="stroke:#C82930;stroke-width:1;" width="6" x="366" y="436.3242"/><text fill="#000000" font-family="sans-serif" font-size="14" lengthAdjust="spacing" textLength="75.4824" x="378" y="443.6211">String rideId</text><rect fill="none" height="6" style="stroke:#C82930;stroke-width:1;" width="6" x="366" y="454.9453"/><text fill="#000000" font-family="sans-serif" font-size="14" lengthAdjust="spacing" textLength="65.3516" x="378" y="462.2422">Rider rider</text><rect fill="none" height="6" style="stroke:#C82930;stroke-width:1;" width="6" x="366" y="473.5664"/><text fill="#000000" font-family="sans-serif" font-size="14" lengthAdjust="spacing" textLength="76.2275" x="378" y="480.8633">Driver driver</text><rect fill="none" height="6" style="stroke:#C82930;stroke-width:1;" width="6" x="366" y="492.1875"/><text fill="#000000" font-family="sans-serif" font-size="14" lengthAdjust="spacing" textLength="150.2197" x="378" y="499.4844">Location pickupLocation</text><rect fill="none" height="6" style="stroke:#C82930;stroke-width:1;" width="6" x="366" y="510.8086"/><text fill="#000000" font-family="sans-serif" font-size="14" lengthAdjust="spacing" textLength="137.7715" x="378" y="518.1055">Location dropLocation</text><rect fill="none" height="6" style="stroke:#C82930;stroke-width:1;" width="6" x="366" y="529.4297"/><text fill="#000000" font-family="sans-serif" font-size="14" lengthAdjust="spacing" textLength="135.4063" x="378" y="536.7266">RideStatus rideStatus</text><rect fill="none" height="6" style="stroke:#C82930;stroke-width:1;" width="6" x="366" y="548.0508"/><text fill="#000000" font-family="sans-serif" font-size="14" lengthAdjust="spacing" textLength="175.8477" x="378" y="555.3477">LocalDateTime requestTime</text><rect fill="none" height="6" style="stroke:#C82930;stroke-width:1;" width="6" x="366" y="566.6719"/><text fill="#000000" font-family="sans-serif" font-size="14" lengthAdjust="spacing" textLength="70.0547" x="378" y="573.9688">double fare</text><line style="stroke:#181818;stroke-width:0.5;" x1="359" x2="593.082" y1="581.4824" y2="581.4824"/><ellipse cx="369" cy="596.293" fill="#84BE84" rx="3" ry="3" style="stroke:#038048;stroke-width:1;"/><text fill="#000000" font-family="sans-serif" font-size="14" lengthAdjust="spacing" textLength="109.7168" x="378" y="600.5898">String getRideId()</text><ellipse cx="369" cy="614.9141" fill="#84BE84" rx="3" ry="3" style="stroke:#038048;stroke-width:1;"/><text fill="#000000" font-family="sans-serif" font-size="14" lengthAdjust="spacing" textLength="99.5859" x="378" y="619.2109">Rider getRider()</text><ellipse cx="369" cy="633.5352" fill="#84BE84" rx="3" ry="3" style="stroke:#038048;stroke-width:1;"/><text fill="#000000" font-family="sans-serif" font-size="14" lengthAdjust="spacing" textLength="107.3379" x="378" y="637.832">Driver getDriver()</text><ellipse cx="369" cy="652.1563" fill="#84BE84" rx="3" ry="3" style="stroke:#038048;stroke-width:1;"/><text fill="#000000" font-family="sans-serif" font-size="14" lengthAdjust="spacing" textLength="180.5576" x="378" y="656.4531">Location getPickupLocation()</text><ellipse cx="369" cy="670.7773" fill="#84BE84" rx="3" ry="3" style="stroke:#038048;stroke-width:1;"/><text fill="#000000" font-family="sans-serif" font-size="14" lengthAdjust="spacing" textLength="168.8818" x="378" y="675.0742">Location getDropLocation()</text><ellipse cx="369" cy="689.3984" fill="#84BE84" rx="3" ry="3" style="stroke:#038048;stroke-width:1;"/><text fill="#000000" font-family="sans-serif" font-size="14" lengthAdjust="spacing" textLength="169.6406" x="378" y="693.6953">RideStatus getRideStatus()</text><ellipse cx="369" cy="708.0195" fill="#84BE84" rx="3" ry="3" style="stroke:#038048;stroke-width:1;"/><text fill="#000000" font-family="sans-serif" font-size="14" lengthAdjust="spacing" textLength="210.082" x="378" y="712.3164">LocalDateTime getRequestTime()</text><ellipse cx="369" cy="726.6406" fill="#84BE84" rx="3" ry="3" style="stroke:#038048;stroke-width:1;"/><text fill="#000000" font-family="sans-serif" font-size="14" lengthAdjust="spacing" textLength="103.5029" x="378" y="730.9375">double getFare()</text><ellipse cx="369" cy="745.2617" fill="#84BE84" rx="3" ry="3" style="stroke:#038048;stroke-width:1;"/><text fill="#000000" font-family="sans-serif" font-size="14" lengthAdjust="spacing" textLength="199.958" x="378" y="749.5586">void assignDriver(Driver,double)</text><ellipse cx="369" cy="763.8828" fill="#84BE84" rx="3" ry="3" style="stroke:#038048;stroke-width:1;"/><text fill="#000000" font-family="sans-serif" font-size="14" lengthAdjust="spacing" textLength="94.917" x="378" y="768.1797">void startRide()</text><ellipse cx="369" cy="782.5039" fill="#84BE84" rx="3" ry="3" style="stroke:#038048;stroke-width:1;"/><text fill="#000000" font-family="sans-serif" font-size="14" lengthAdjust="spacing" textLength="124.4961" x="378" y="786.8008">void completeRide()</text><ellipse cx="369" cy="801.125" fill="#84BE84" rx="3" ry="3" style="stroke:#038048;stroke-width:1;"/><text fill="#000000" font-family="sans-serif" font-size="14" lengthAdjust="spacing" textLength="98.0342" x="378" y="805.4219">String toString()</text></g><!--class CabBookingService--><g class="entity" data-entity="CabBookingService" data-source-line="74" data-uid="ent0010" id="entity_CabBookingService"><rect fill="#F1F1F1" filter="url(#fc5gbnyie0sej)" height="215.5898" rx="2.5" ry="2.5" style="stroke:#181818;stroke-width:0.5;" width="295.2129" x="328.5" y="88.0137"/><ellipse cx="410.3774" cy="104.0137" fill="#ADD1B2" rx="11" ry="11" style="stroke:#181818;stroke-width:1;"/><path d="M413.1431,99.8887 Q413.2993,99.6699 413.4868,99.5605 Q413.6743,99.4512 413.8931,99.4512 Q414.2681,99.4512 414.5024,99.7168 Q414.7368,99.9668 414.7368,100.5762 L414.7368,102.0293 Q414.7368,102.6387 414.5024,102.9043 Q414.2681,103.1699 413.8931,103.1699 Q413.5493,103.1699 413.3462,102.9668 Q413.1431,102.7793 413.0337,102.2637 Q412.9868,101.9043 412.7993,101.7168 Q412.4712,101.3418 411.8618,101.123 Q411.2524,100.9043 410.6274,100.9043 Q409.8618,100.9043 409.2212,101.2324 Q408.5962,101.5605 408.0962,102.3105 Q407.6118,103.0605 407.6118,104.0918 L407.6118,105.1855 Q407.6118,106.4199 408.5024,107.248 Q409.3931,108.0605 410.9868,108.0605 Q411.9243,108.0605 412.5806,107.8105 Q412.9712,107.6543 413.3931,107.2168 Q413.6587,106.9512 413.7993,106.873 Q413.9556,106.7949 414.1587,106.7949 Q414.4868,106.7949 414.7368,107.0605 Q415.0024,107.3105 415.0024,107.6543 Q415.0024,107.998 414.6587,108.4043 Q414.1587,108.9824 413.3618,109.3105 Q412.2837,109.7637 410.9868,109.7637 Q409.4712,109.7637 408.2681,109.1387 Q407.2837,108.6387 406.5962,107.5762 Q405.9087,106.498 405.9087,105.2168 L405.9087,104.0605 Q405.9087,102.7324 406.5181,101.5918 Q407.1431,100.4355 408.2368,99.8262 Q409.3306,99.2012 410.5649,99.2012 Q411.2993,99.2012 411.9399,99.373 Q412.5962,99.5293 413.1431,99.8887 Z " fill="#000000"/><text fill="#000000" font-family="sans-serif" font-size="14" lengthAdjust="spacing" textLength="122.958" x="430.8774" y="109.8105">CabBookingService</text><line style="stroke:#181818;stroke-width:0.5;" x1="329.5" x2="622.7129" y1="120.0137" y2="120.0137"/><rect fill="none" height="6" style="stroke:#C82930;stroke-width:1;" width="6" x="336.5" y="131.8242"/><text fill="#000000" font-family="sans-serif" font-size="14" lengthAdjust="spacing" textLength="187.5098" x="348.5" y="139.1211">Map&lt;String,Driver&gt; driverMap</text><rect fill="none" height="6" style="stroke:#C82930;stroke-width:1;" width="6" x="336.5" y="150.4453"/><text fill="#000000" font-family="sans-serif" font-size="14" lengthAdjust="spacing" textLength="167.3096" x="348.5" y="157.7422">Map&lt;String,Ride&gt; rideMap</text><line style="stroke:#181818;stroke-width:0.5;" x1="329.5" x2="622.7129" y1="165.2559" y2="165.2559"/><ellipse cx="339.5" cy="180.0664" fill="#84BE84" rx="3" ry="3" style="stroke:#038048;stroke-width:1;"/><text fill="#000000" font-family="sans-serif" font-size="14" lengthAdjust="spacing" textLength="164.9375" x="348.5" y="184.3633">void onboardDriver(Driver)</text><ellipse cx="339.5" cy="198.6875" fill="#84BE84" rx="3" ry="3" style="stroke:#038048;stroke-width:1;"/><text fill="#000000" font-family="sans-serif" font-size="14" lengthAdjust="spacing" textLength="264.5918" x="348.5" y="202.9844">Ride requestRide(Rider,Location,Location)</text><rect fill="#F24D5C" height="6" style="stroke:#C82930;stroke-width:1;" width="6" x="336.5" y="214.3086"/><text fill="#000000" font-family="sans-serif" font-size="14" lengthAdjust="spacing" textLength="269.2129" x="348.5" y="221.6055">Driver findNearestAvailableDriver(Location)</text><rect fill="#F24D5C" height="6" style="stroke:#C82930;stroke-width:1;" width="6" x="336.5" y="232.9297"/><text fill="#000000" font-family="sans-serif" font-size="14" lengthAdjust="spacing" textLength="249.0469" x="348.5" y="240.2266">double calculateFare(Location,Location)</text><ellipse cx="339.5" cy="254.5508" fill="#84BE84" rx="3" ry="3" style="stroke:#038048;stroke-width:1;"/><text fill="#000000" font-family="sans-serif" font-size="14" lengthAdjust="spacing" textLength="131.4893" x="348.5" y="258.8477">void startRide(String)</text><ellipse cx="339.5" cy="273.1719" fill="#84BE84" rx="3" ry="3" style="stroke:#038048;stroke-width:1;"/><text fill="#000000" font-family="sans-serif" font-size="14" lengthAdjust="spacing" textLength="161.0684" x="348.5" y="277.4688">void completeRide(String)</text><ellipse cx="339.5" cy="291.793" fill="#84BE84" rx="3" ry="3" style="stroke:#038048;stroke-width:1;"/><text fill="#000000" font-family="sans-serif" font-size="14" lengthAdjust="spacing" textLength="179.7373" x="348.5" y="296.0898">void showRideDetails(String)</text></g><!--class Rider--><g class="entity" data-entity="Rider" data-source-line="87" data-uid="ent0011" id="entity_Rider"><rect fill="#F1F1F1" filter="url(#fc5gbnyie0sej)" height="122.4844" rx="2.5" ry="2.5" style="stroke:#181818;stroke-width:0.5;" width="166.0479" x="728" y="966.0137"/><ellipse cx="790.0464" cy="982.0137" fill="#ADD1B2" rx="11" ry="11" style="stroke:#181818;stroke-width:1;"/><path d="M792.812,977.8887 Q792.9683,977.6699 793.1558,977.5605 Q793.3433,977.4512 793.562,977.4512 Q793.937,977.4512 794.1714,977.7168 Q794.4058,977.9668 794.4058,978.5762 L794.4058,980.0293 Q794.4058,980.6387 794.1714,980.9043 Q793.937,981.1699 793.562,981.1699 Q793.2183,981.1699 793.0151,980.9668 Q792.812,980.7793 792.7026,980.2637 Q792.6558,979.9043 792.4683,979.7168 Q792.1401,979.3418 791.5308,979.123 Q790.9214,978.9043 790.2964,978.9043 Q789.5308,978.9043 788.8901,979.2324 Q788.2651,979.5605 787.7651,980.3105 Q787.2808,981.0605 787.2808,982.0918 L787.2808,983.1855 Q787.2808,984.4199 788.1714,985.248 Q789.062,986.0605 790.6558,986.0605 Q791.5933,986.0605 792.2495,985.8105 Q792.6401,985.6543 793.062,985.2168 Q793.3276,984.9512 793.4683,984.873 Q793.6245,984.7949 793.8276,984.7949 Q794.1558,984.7949 794.4058,985.0605 Q794.6714,985.3105 794.6714,985.6543 Q794.6714,985.998 794.3276,986.4043 Q793.8276,986.9824 793.0308,987.3105 Q791.9526,987.7637 790.6558,987.7637 Q789.1401,987.7637 787.937,987.1387 Q786.9526,986.6387 786.2651,985.5762 Q785.5776,984.498 785.5776,983.2168 L785.5776,982.0605 Q785.5776,980.7324 786.187,979.5918 Q786.812,978.4355 787.9058,977.8262 Q788.9995,977.2012 790.2339,977.2012 Q790.9683,977.2012 791.6089,977.373 Q792.2651,977.5293 792.812,977.8887 Z " fill="#000000"/><text fill="#000000" font-family="sans-serif" font-size="14" lengthAdjust="spacing" textLength="33.4551" x="810.5464" y="987.8105">Rider</text><line style="stroke:#181818;stroke-width:0.5;" x1="729" x2="893.0479" y1="998.0137" y2="998.0137"/><rect fill="none" height="6" style="stroke:#C82930;stroke-width:1;" width="6" x="736" y="1009.8242"/><text fill="#000000" font-family="sans-serif" font-size="14" lengthAdjust="spacing" textLength="80.1445" x="748" y="1017.1211">String riderId</text><rect fill="none" height="6" style="stroke:#C82930;stroke-width:1;" width="6" x="736" y="1028.4453"/><text fill="#000000" font-family="sans-serif" font-size="14" lengthAdjust="spacing" textLength="105.8135" x="748" y="1035.7422">String riderName</text><line style="stroke:#181818;stroke-width:0.5;" x1="729" x2="893.0479" y1="1043.2559" y2="1043.2559"/><ellipse cx="739" cy="1058.0664" fill="#84BE84" rx="3" ry="3" style="stroke:#038048;stroke-width:1;"/><text fill="#000000" font-family="sans-serif" font-size="14" lengthAdjust="spacing" textLength="114.3789" x="748" y="1062.3633">String getRiderId()</text><ellipse cx="739" cy="1076.6875" fill="#84BE84" rx="3" ry="3" style="stroke:#038048;stroke-width:1;"/><text fill="#000000" font-family="sans-serif" font-size="14" lengthAdjust="spacing" textLength="140.0479" x="748" y="1080.9844">String getRiderName()</text></g><g class="entity" data-entity="GMN14" data-source-line="106" data-uid="ent0015" id="entity_GMN14"><path d="M950.5,78.5137 L950.5,192.0137 L623.55,196.0137 L950.5,200.0137 L950.5,313.2969 A0,0 0 0 0 950.5,313.2969 L1137.2881,313.2969 A0,0 0 0 0 1137.2881,313.2969 L1137.2881,88.5137 L1127.2881,78.5137 L950.5,78.5137 A0,0 0 0 0 950.5,78.5137" fill="#FEFFDD" filter="url(#fc5gbnyie0sej)" style="stroke:#181818;stroke-width:0.5;"/><path d="M1127.2881,78.5137 L1127.2881,88.5137 L1137.2881,88.5137 L1127.2881,78.5137" fill="#FEFFDD" style="stroke:#181818;stroke-width:0.5;"/><text fill="#000000" font-family="sans-serif" font-size="13" lengthAdjust="spacing" textLength="3.6118" x="956.5" y="97.542">&#160;</text><text fill="#000000" font-family="sans-serif" font-size="13" lengthAdjust="spacing" textLength="165.7881" x="956.5" y="114.833">driverMap : driverId -&gt; Driver</text><text fill="#000000" font-family="sans-serif" font-size="13" lengthAdjust="spacing" textLength="136.2017" x="956.5" y="132.124">rideMap : rideId -&gt; Ride</text><text fill="#000000" font-family="sans-serif" font-size="13" lengthAdjust="spacing" textLength="3.6118" x="956.5" y="149.415">&#160;</text><text fill="#000000" font-family="sans-serif" font-size="13" lengthAdjust="spacing" textLength="67.9136" x="956.5" y="166.7061">Admin APIs</text><text fill="#000000" font-family="sans-serif" font-size="13" lengthAdjust="spacing" textLength="102.2354" x="956.5" y="183.9971">+ onboardDriver()</text><text fill="#000000" font-family="sans-serif" font-size="13" lengthAdjust="spacing" textLength="3.6118" x="956.5" y="201.2881">&#160;</text><text fill="#000000" font-family="sans-serif" font-size="13" lengthAdjust="spacing" textLength="118.4727" x="956.5" y="218.5791">User/Customer APIs</text><text fill="#000000" font-family="sans-serif" font-size="13" lengthAdjust="spacing" textLength="89.959" x="956.5" y="235.8701">+ requestRide()</text><text fill="#000000" font-family="sans-serif" font-size="13" lengthAdjust="spacing" textLength="71.8809" x="956.5" y="253.1611">+ startRide()</text><text fill="#000000" font-family="sans-serif" font-size="13" lengthAdjust="spacing" textLength="99.3472" x="956.5" y="270.4521">+ completeRide()</text><text fill="#000000" font-family="sans-serif" font-size="13" lengthAdjust="spacing" textLength="116.6826" x="956.5" y="287.7432">+ showRideDetails()</text><text fill="#000000" font-family="sans-serif" font-size="13" lengthAdjust="spacing" textLength="3.6118" x="956.5" y="305.0342">&#160;</text></g><!--reverse link CabBookingService to Driver--><g class="link" data-entity-1="CabBookingService" data-entity-2="Driver" data-source-line="102" data-uid="lnk12" id="link_CabBookingService_Driver"><path codeLine="102" d="M342.934,313.0073 C318.174,339.6073 302.84,360.8637 286,392.5137 C201.79,550.7537 170.89,757.7237 159.55,891.2837" fill="none" id="CabBookingService-backto-Driver" style="stroke:#181818;stroke-width:1;"/><polygon fill="none" points="351.11,304.2237,344.0941,305.8901,342.934,313.0073,349.9499,311.3408,351.11,304.2237" style="stroke:#181818;stroke-width:1;"/><text fill="#000000" font-family="sans-serif" font-size="13" lengthAdjust="spacing" textLength="53.479" x="287" y="608.042">manages</text><text fill="#000000" font-family="sans-serif" font-size="13" lengthAdjust="spacing" textLength="31.7891" x="128.0937" y="880.42">many</text></g><!--reverse link CabBookingService to Ride--><g class="link" data-entity-1="CabBookingService" data-entity-2="Ride" data-source-line="103" data-uid="lnk13" id="link_CabBookingService_Ride"><path codeLine="103" d="M476,316.0837 C476,343.4737 476,361.8737 476,392.4837" fill="none" id="CabBookingService-backto-Ride" style="stroke:#181818;stroke-width:1;"/><polygon fill="none" points="476,304.0837,472,310.0837,476,316.0837,480,310.0837,476,304.0837" style="stroke:#181818;stroke-width:1;"/><text fill="#000000" font-family="sans-serif" font-size="13" lengthAdjust="spacing" textLength="53.479" x="477" y="358.542">manages</text><text fill="#000000" font-family="sans-serif" font-size="13" lengthAdjust="spacing" textLength="31.7891" x="444.4083" y="380.9731">many</text></g><!--reverse link Driver to Vehicle--><g class="link" data-entity-1="Driver" data-entity-2="Vehicle" data-source-line="122" data-uid="lnk17" id="link_Driver_Vehicle"><path codeLine="122" d="M153,1174.7637 C153,1202.4037 153,1218.1537 153,1241.4937" fill="none" id="Driver-backto-Vehicle" style="stroke:#181818;stroke-width:1;"/><polygon fill="#181818" points="153,1162.7637,149,1168.7637,153,1174.7637,157,1168.7637,153,1162.7637" style="stroke:#181818;stroke-width:1;"/><text fill="#000000" font-family="sans-serif" font-size="13" lengthAdjust="spacing" textLength="30.3481" x="154" y="1207.542">owns</text><text fill="#000000" font-family="sans-serif" font-size="13" lengthAdjust="spacing" textLength="7.23" x="145.8165" y="1185.1268">1</text><text fill="#000000" font-family="sans-serif" font-size="13" lengthAdjust="spacing" textLength="7.23" x="145.6022" y="1230.0375">1</text></g><!--link Ride to Rider--><g class="link" data-entity-1="Ride" data-entity-2="Rider" data-source-line="125" data-uid="lnk18" id="link_Ride_Rider"><path codeLine="125" d="M594.03,746.5737 C631.49,792.5637 672.82,843.9237 710,891.5137 C728.79,915.5637 745.4802,937.576 762.9002,960.906" fill="none" id="Ride-to-Rider" style="stroke:#181818;stroke-width:1;"/><polygon fill="#181818" points="766.49,965.7137,764.3104,956.109,763.4985,961.7073,757.9002,960.8954,766.49,965.7137" style="stroke:#181818;stroke-width:1;"/><text fill="#000000" font-family="sans-serif" font-size="13" lengthAdjust="spacing" textLength="106.9517" x="686" y="857.542">Ride requested By</text><text fill="#000000" font-family="sans-serif" font-size="13" lengthAdjust="spacing" textLength="7.23" x="602.2003" y="752.7055">1</text><text fill="#000000" font-family="sans-serif" font-size="13" lengthAdjust="spacing" textLength="7.23" x="753.9494" y="954.6602">1</text></g><!--link Ride to Driver--><g class="link" data-entity-1="Ride" data-entity-2="Driver" data-source-line="126" data-uid="lnk19" id="link_Ride_Driver"><path codeLine="126" d="M357.79,758.1337 C324.38,801.8437 291.9335,844.2766 259.5035,886.7066" fill="none" id="Ride-to-Driver" style="stroke:#181818;stroke-width:1;"/><polygon fill="#181818" points="255.86,891.4737,264.5033,886.7521,258.8963,887.5011,258.1473,881.8941,255.86,891.4737" style="stroke:#181818;stroke-width:1;"/><text fill="#000000" font-family="sans-serif" font-size="13" lengthAdjust="spacing" textLength="66.4917" x="286" y="857.542">assigned to</text><text fill="#000000" font-family="sans-serif" font-size="13" lengthAdjust="spacing" textLength="7.23" x="342.6176" y="765.0422">1</text><text fill="#000000" font-family="sans-serif" font-size="13" lengthAdjust="spacing" textLength="7.23" x="254.6231" y="880.17">1</text></g><!--link Ride to Location--><g class="link" data-entity-1="Ride" data-entity-2="Location" data-source-line="127" data-uid="lnk20" id="link_Ride_Location"><path codeLine="127" d="M399.92,812.6737 C397.64,822.6837 395.64,832.6737 394,842.5137 C392.61,850.8437 393.92,853.0737 394,861.5137 C394.23,886.2237 394.5304,907.0147 394.9804,931.6547" fill="none" id="Ride-to-Location" style="stroke:#181818;stroke-width:1;"/><polygon fill="#181818" points="395.09,937.6537,398.925,928.5821,394.9987,932.6545,390.9263,928.7282,395.09,937.6537" style="stroke:#181818;stroke-width:1;"/><text fill="#000000" font-family="sans-serif" font-size="13" lengthAdjust="spacing" textLength="37.5781" x="395" y="857.542">pickup</text><text fill="#000000" font-family="sans-serif" font-size="13" lengthAdjust="spacing" textLength="7.23" x="389.8143" y="835.2408">1</text><text fill="#000000" font-family="sans-serif" font-size="13" lengthAdjust="spacing" textLength="7.23" x="387.6813" y="926.8815">1</text></g><!--link Ride to Location--><g class="link" data-entity-1="Ride" data-entity-2="Location" data-source-line="128" data-uid="lnk21" id="link_Ride_Location"><path codeLine="128" d="M446.01,812.5337 C443.14,829.1437 440.13,845.6237 437,861.5137 C432.09,886.4637 427.349,907.4939 421.349,932.1439" fill="none" id="Ride-to-Location-1" style="stroke:#181818;stroke-width:1;"/><polygon fill="#181818" points="419.93,937.9737,425.945,930.175,421.1125,933.1155,418.172,928.283,419.93,937.9737" style="stroke:#181818;stroke-width:1;"/><text fill="#000000" font-family="sans-serif" font-size="13" lengthAdjust="spacing" textLength="26.019" x="440" y="857.542">drop</text><text fill="#000000" font-family="sans-serif" font-size="13" lengthAdjust="spacing" textLength="7.23" x="437.7047" y="835.0954">1</text><text fill="#000000" font-family="sans-serif" font-size="13" lengthAdjust="spacing" textLength="7.23" x="414.6239" y="926.6172">1</text></g><!--link Ride to RideStatus--><g class="link" data-entity-1="Ride" data-entity-2="RideStatus" data-source-line="131" data-uid="lnk22" id="link_Ride_RideStatus"><path codeLine="131" d="M543.8,812.5937 C560.63,864.5237 575.6793,910.9162 588.5593,950.6362" fill="none" id="Ride-to-RideStatus" style="stroke:#181818;stroke-width:1;"/><polygon fill="#181818" points="590.41,956.3437,591.4388,946.5487,588.8677,951.5875,583.8289,949.0164,590.41,956.3437" style="stroke:#181818;stroke-width:1;"/><text fill="#000000" font-family="sans-serif" font-size="13" lengthAdjust="spacing" textLength="27.46" x="557" y="857.542">uses</text></g><!--link Vehicle to VehicleType--><g class="link" data-entity-1="Vehicle" data-entity-2="VehicleType" data-source-line="132" data-uid="lnk23" id="link_Vehicle_VehicleType"><path codeLine="132" d="M153,1363.6337 C153,1388.9637 153,1412.1337 153,1436.4137" fill="none" id="Vehicle-to-VehicleType" style="stroke:#181818;stroke-width:1;"/><polygon fill="#181818" points="153,1442.4137,157,1433.4137,153,1437.4137,149,1433.4137,153,1442.4137" style="stroke:#181818;stroke-width:1;"/><text fill="#000000" font-family="sans-serif" font-size="13" lengthAdjust="spacing" textLength="27.46" x="154" y="1408.542">uses</text></g><!--SRC=[ZLRVRziu37xtNo7aPStQxBQN3SWT2dY9RmkGPhsuxUkWM6mYr9OyIKxH3VlVZ_fXMtPonUN5qaTIf3wIOegIQatAahqhw6udvHCN-tTBnO-WoAzaHdAZ427C8IisHZQq0iGUuC2B4iZHVn5Pou8QBWKf6gL0c7QF8lHI0XM4w_H8UKbtQ73P7hi7imo-BgPdOElG2LgNA0bB1tT-4LyCNJlv6USEFqhEY0RJeq6p4pOremQwmzh5DFcT94bnZiOkbeX8ge3YZia6VP0IvQPX425Ix3qKtpr5AnTcq49e7Kp7S6iVuunhGqK1T_B_XDqo6qKTyhffgXseFjztBtMNSxiUnFmGsyGfSrQzWjrU-710DDKucYrda1jg6eq1NHAopVwvp_AxR6ato-tg8Tj-J_DyzMNZeTNc- -tssvTjbkTsk_XsSxlEWleYtIoozHetlyyxYoDqtcvMcvNzvjaotRZ5_OCrFakS3JLcJU7UjOmLABUrv8NkyWqKjqhDYwUcZZgbap0bOppYH7NBe5ykiKhlU0L4mOy6jB7hlhuUiG07QTgw85r-V9W1yoaBiNRjTz9ZjuEOJyJBAF3EHmWzEFAxphAFtyhxAupg_6-yHz-uc0o-5o54_xdokdrl6wgSlzwga5LTWe4E3QmOwHSNhpJ9Wku- -sKEwiWBd_WRMl_bRQzy5DSXpIWOYgtFQvSzAme1IR6JLB71FLhIsdIwO5s2hbfYh_gcxghhaGks0IH9zqzQE3VM3eGYxKM3Zn4uMi-SUqAYlyPvAaSoVP3F5b-2mK1q9_vFRdqTZXffC7mSu6RFk9HFvyQsrVNfV9Cg9PyreO8XfQMxdpxmMYSQdTTKqOe8oK13JJw-_pD25HLF5lqqGFM1ClbiVJtIKaCiggIGnK59h6MZce78tJir6EIkCR0gfCZvJo1uSlAcBQYA2he7ZTmg83Z7kE6WazF2axCPcQ3oowHD_horVLtRbLMlcmXfiCpu_c28V2Gdfab2yDVLCrgs_mh8x3guTYgXgb71lu1MR7tv0r9MSK7IsvLssyjHrK-zrhq6zSUYqGRPKx5st0RJWCMzxP5HQmUrKI5ExH1Wn5uRQISBj96QkwVB5YbEKZBvIlKidKoJmEpamuIyjGpYjvsJSoAVXROdf5hBWll7xwAYUCr1XKqJnxYrdI4bzkjBVJxeS63ayykfQfTR_zYXbf6dMjtZEm_Zv5KLErSmyCoEmaQxAd3giv2ny5BFKOYYzi9M6a_A8FuN]--></g></svg>