<svg xmlns="http://www.w3.org/2000/svg" xmlns:xlink="http://www.w3.org/1999/xlink" contentStyleType="text/css" data-diagram-type="CLASS" height="608px" preserveAspectRatio="none" style="width:663px;height:608px;background:#FFFFFF;" version="1.1" viewBox="0 0 663 608" width="663px" zoomAndPan="magnify"><defs><filter height="300%" id="f1fdkn89kcawjd" width="300%" x="-1" y="-1"><feGaussianBlur result="blurOut" stdDeviation="2"/><feColorMatrix in="blurOut" result="blurOut2" type="matrix" values="0 0 0 0 0 0 0 0 0 0 0 0 0 0 0 0 0 0 .4 0"/><feOffset dx="4" dy="4" in="blurOut2" result="blurOut3"/><feBlend in="SourceGraphic" in2="blurOut3" mode="normal"/></filter></defs><g><!--cluster lld--><g class="cluster" data-entity="lld" data-source-line="1" data-uid="ent0003" id="cluster_lld"><path d="M8.5,6.0137 L25.8311,6.0137 A3.75,3.75 0 0 1 28.3311,8.5137 L35.3311,30.6348 L384.5,30.6348 A2.5,2.5 0 0 1 387,33.1348 L387,598.5137 A2.5,2.5 0 0 1 384.5,601.0137 L8.5,601.0137 A2.5,2.5 0 0 1 6,598.5137 L6,8.5137 A2.5,2.5 0 0 1 8.5,6.0137" fill="none" filter="url(#f1fdkn89kcawjd)" style="stroke:#000000;stroke-width:1.5;"/><line style="stroke:#000000;stroke-width:1.5;" x1="6" x2="35.3311" y1="30.6348" y2="30.6348"/><text fill="#000000" font-family="sans-serif" font-size="14" font-weight="bold" lengthAdjust="spacing" textLength="16.3311" x="10" y="23.1211">lld</text></g><!--cluster VendingMachine--><g class="cluster" data-entity="VendingMachine" data-source-line="1" data-uid="ent0004" id="cluster_VendingMachine"><path d="M32.5,51.0137 L144.7344,51.0137 A3.75,3.75 0 0 1 147.2344,53.5137 L154.2344,75.6348 L360.5,75.6348 A2.5,2.5 0 0 1 363,78.1348 L363,574.5137 A2.5,2.5 0 0 1 360.5,577.0137 L32.5,577.0137 A2.5,2.5 0 0 1 30,574.5137 L30,53.5137 A2.5,2.5 0 0 1 32.5,51.0137" fill="none" filter="url(#f1fdkn89kcawjd)" style="stroke:#000000;stroke-width:1.5;"/><line style="stroke:#000000;stroke-width:1.5;" x1="30" x2="154.2344" y1="75.6348" y2="75.6348"/><text fill="#000000" font-family="sans-serif" font-size="14" font-weight="bold" lengthAdjust="spacing" textLength="111.2344" x="34" y="68.1211">VendingMachine</text></g><!--class Product--><g class="entity" data-entity="Product" data-source-line="1" data-uid="ent0002" id="entity_Product"><rect fill="#F1F1F1" filter="url(#f1fdkn89kcawjd)" height="196.9688" rx="2.5" ry="2.5" style="stroke:#181818;stroke-width:0.5;" width="155.9648" x="46" y="364.0137"/><ellipse cx="95.6084" cy="380.0137" fill="#ADD1B2" rx="11" ry="11" style="stroke:#181818;stroke-width:1;"/><path d="M98.374,375.8887 Q98.5303,375.6699 98.7178,375.5605 Q98.9053,375.4512 99.124,375.4512 Q99.499,375.4512 99.7334,375.7168 Q99.9678,375.9668 99.9678,376.5762 L99.9678,378.0293 Q99.9678,378.6387 99.7334,378.9043 Q99.499,379.1699 99.124,379.1699 Q98.7803,379.1699 98.5771,378.9668 Q98.374,378.7793 98.2646,378.2637 Q98.2178,377.9043 98.0303,377.7168 Q97.7021,377.3418 97.0928,377.123 Q96.4834,376.9043 95.8584,376.9043 Q95.0928,376.9043 94.4521,377.2324 Q93.8271,377.5605 93.3271,378.3105 Q92.8428,379.0605 92.8428,380.0918 L92.8428,381.1855 Q92.8428,382.4199 93.7334,383.248 Q94.624,384.0605 96.2178,384.0605 Q97.1553,384.0605 97.8115,383.8105 Q98.2021,383.6543 98.624,383.2168 Q98.8896,382.9512 99.0303,382.873 Q99.1865,382.7949 99.3896,382.7949 Q99.7178,382.7949 99.9678,383.0605 Q100.2334,383.3105 100.2334,383.6543 Q100.2334,383.998 99.8896,384.4043 Q99.3896,384.9824 98.5928,385.3105 Q97.5146,385.7637 96.2178,385.7637 Q94.7021,385.7637 93.499,385.1387 Q92.5146,384.6387 91.8271,383.5762 Q91.1396,382.498 91.1396,381.2168 L91.1396,380.0605 Q91.1396,378.7324 91.749,377.5918 Q92.374,376.4355 93.4678,375.8262 Q94.5615,375.2012 95.7959,375.2012 Q96.5303,375.2012 97.1709,375.373 Q97.8271,375.5293 98.374,375.8887 Z " fill="#000000"/><text fill="#000000" font-family="sans-serif" font-size="14" lengthAdjust="spacing" textLength="48.248" x="116.1084" y="385.8105">Product</text><line style="stroke:#181818;stroke-width:0.5;" x1="47" x2="200.9648" y1="396.0137" y2="396.0137"/><rect fill="none" height="6" style="stroke:#C82930;stroke-width:1;" width="6" x="54" y="407.8242"/><text fill="#000000" font-family="sans-serif" font-size="14" lengthAdjust="spacing" textLength="75.4824" x="66" y="415.1211">String name</text><rect fill="none" height="6" style="stroke:#C82930;stroke-width:1;" width="6" x="54" y="426.4453"/><text fill="#000000" font-family="sans-serif" font-size="14" lengthAdjust="spacing" textLength="49.0205" x="66" y="433.7422">int price</text><rect fill="none" height="6" style="stroke:#C82930;stroke-width:1;" width="6" x="54" y="445.0664"/><text fill="#000000" font-family="sans-serif" font-size="14" lengthAdjust="spacing" textLength="67.71" x="66" y="452.3633">int quantity</text><line style="stroke:#181818;stroke-width:0.5;" x1="47" x2="200.9648" y1="459.877" y2="459.877"/><ellipse cx="57" cy="474.6875" fill="#84BE84" rx="3" ry="3" style="stroke:#038048;stroke-width:1;"/><text fill="#000000" font-family="sans-serif" font-size="14" lengthAdjust="spacing" textLength="106.5928" x="66" y="478.9844">String getName()</text><ellipse cx="57" cy="493.3086" fill="#84BE84" rx="3" ry="3" style="stroke:#038048;stroke-width:1;"/><text fill="#000000" font-family="sans-serif" font-size="14" lengthAdjust="spacing" textLength="79.3584" x="66" y="497.6055">int getPrice()</text><ellipse cx="57" cy="511.9297" fill="#84BE84" rx="3" ry="3" style="stroke:#038048;stroke-width:1;"/><text fill="#000000" font-family="sans-serif" font-size="14" lengthAdjust="spacing" textLength="99.5996" x="66" y="516.2266">int getQuantity()</text><ellipse cx="57" cy="530.5508" fill="#84BE84" rx="3" ry="3" style="stroke:#038048;stroke-width:1;"/><text fill="#000000" font-family="sans-serif" font-size="14" lengthAdjust="spacing" textLength="129.9648" x="66" y="534.8477">boolean isAvailable()</text><ellipse cx="57" cy="549.1719" fill="#84BE84" rx="3" ry="3" style="stroke:#038048;stroke-width:1;"/><text fill="#000000" font-family="sans-serif" font-size="14" lengthAdjust="spacing" textLength="94.9375" x="66" y="553.4688">void dispense()</text></g><!--class VendingMachine--><g class="entity" data-entity="VendingMachine" data-source-line="13" data-uid="ent0005" id="entity_VendingMachine"><rect fill="#F1F1F1" filter="url(#f1fdkn89kcawjd)" height="196.9688" rx="2.5" ry="2.5" style="stroke:#181818;stroke-width:0.5;" width="246.2266" x="101" y="88.0137"/><ellipse cx="167.7153" cy="104.0137" fill="#ADD1B2" rx="11" ry="11" style="stroke:#181818;stroke-width:1;"/><path d="M170.481,99.8887 Q170.6372,99.6699 170.8247,99.5605 Q171.0122,99.4512 171.231,99.4512 Q171.606,99.4512 171.8403,99.7168 Q172.0747,99.9668 172.0747,100.5762 L172.0747,102.0293 Q172.0747,102.6387 171.8403,102.9043 Q171.606,103.1699 171.231,103.1699 Q170.8872,103.1699 170.6841,102.9668 Q170.481,102.7793 170.3716,102.2637 Q170.3247,101.9043 170.1372,101.7168 Q169.8091,101.3418 169.1997,101.123 Q168.5903,100.9043 167.9653,100.9043 Q167.1997,100.9043 166.5591,101.2324 Q165.9341,101.5605 165.4341,102.3105 Q164.9497,103.0605 164.9497,104.0918 L164.9497,105.1855 Q164.9497,106.4199 165.8403,107.248 Q166.731,108.0605 168.3247,108.0605 Q169.2622,108.0605 169.9185,107.8105 Q170.3091,107.6543 170.731,107.2168 Q170.9966,106.9512 171.1372,106.873 Q171.2935,106.7949 171.4966,106.7949 Q171.8247,106.7949 172.0747,107.0605 Q172.3403,107.3105 172.3403,107.6543 Q172.3403,107.998 171.9966,108.4043 Q171.4966,108.9824 170.6997,109.3105 Q169.6216,109.7637 168.3247,109.7637 Q166.8091,109.7637 165.606,109.1387 Q164.6216,108.6387 163.9341,107.5762 Q163.2466,106.498 163.2466,105.2168 L163.2466,104.0605 Q163.2466,102.7324 163.856,101.5918 Q164.481,100.4355 165.5747,99.8262 Q166.6685,99.2012 167.9028,99.2012 Q168.6372,99.2012 169.2778,99.373 Q169.9341,99.5293 170.481,99.8887 Z " fill="#000000"/><text fill="#000000" font-family="sans-serif" font-size="14" lengthAdjust="spacing" textLength="104.2959" x="188.2153" y="109.8105">VendingMachine</text><line style="stroke:#181818;stroke-width:0.5;" x1="102" x2="346.2266" y1="120.0137" y2="120.0137"/><rect fill="none" height="6" style="stroke:#C82930;stroke-width:1;" width="6" x="109" y="131.8242"/><text fill="#000000" font-family="sans-serif" font-size="14" lengthAdjust="spacing" textLength="220.2266" x="121" y="139.1211">Map&lt;String,Product&gt; inventoryMap</text><rect fill="none" height="6" style="stroke:#C82930;stroke-width:1;" width="6" x="109" y="150.4453"/><text fill="#000000" font-family="sans-serif" font-size="14" lengthAdjust="spacing" textLength="112.8408" x="121" y="157.7422">int currentBalance</text><rect fill="none" height="6" style="stroke:#C82930;stroke-width:1;" width="6" x="109" y="169.0664"/><text fill="#000000" font-family="sans-serif" font-size="14" lengthAdjust="spacing" textLength="152.5303" x="121" y="176.3633">Product selectedProduct</text><line style="stroke:#181818;stroke-width:0.5;" x1="102" x2="346.2266" y1="183.877" y2="183.877"/><ellipse cx="112" cy="198.6875" fill="#84BE84" rx="3" ry="3" style="stroke:#038048;stroke-width:1;"/><text fill="#000000" font-family="sans-serif" font-size="14" lengthAdjust="spacing" textLength="130.7168" x="121" y="202.9844">void insertCoin(Coin)</text><ellipse cx="112" cy="217.3086" fill="#84BE84" rx="3" ry="3" style="stroke:#038048;stroke-width:1;"/><text fill="#000000" font-family="sans-serif" font-size="14" lengthAdjust="spacing" textLength="160.2891" x="121" y="221.6055">void selectProduct(String)</text><ellipse cx="112" cy="235.9297" fill="#84BE84" rx="3" ry="3" style="stroke:#038048;stroke-width:1;"/><text fill="#000000" font-family="sans-serif" font-size="14" lengthAdjust="spacing" textLength="94.9375" x="121" y="240.2266">void dispense()</text><ellipse cx="112" cy="254.5508" fill="#84BE84" rx="3" ry="3" style="stroke:#038048;stroke-width:1;"/><text fill="#000000" font-family="sans-serif" font-size="14" lengthAdjust="spacing" textLength="129.165" x="121" y="258.8477">void showInventory()</text><ellipse cx="112" cy="273.1719" fill="#84BE84" rx="3" ry="3" style="stroke:#038048;stroke-width:1;"/><text fill="#000000" font-family="sans-serif" font-size="14" lengthAdjust="spacing" textLength="152.5098" x="121" y="277.4688">void cancelTransaction()</text></g><!--class Coin--><g class="entity" data-entity="Coin" data-source-line="25" data-uid="ent0006" id="entity_Coin"><rect fill="#F1F1F1" filter="url(#f1fdkn89kcawjd)" height="196.9688" rx="2.5" ry="2.5" style="stroke:#181818;stroke-width:0.5;" width="109.2686" x="237.5" y="364.0137"/><ellipse cx="274.314" cy="380.0137" fill="#EB937F" rx="11" ry="11" style="stroke:#181818;stroke-width:1;"/><path d="M273.1734,380.8105 L273.1734,383.3105 L277.5015,383.3105 L277.5015,382.3887 Q277.5015,381.7793 277.7359,381.5137 Q277.9859,381.248 278.3609,381.248 Q278.7359,381.248 278.9703,381.5137 Q279.2046,381.7793 279.2046,382.3887 L279.2046,385.0137 L271.2046,385.0137 Q270.5796,385.0137 270.314,384.7793 Q270.064,384.5449 270.064,384.1543 Q270.064,383.7793 270.3296,383.5449 Q270.5953,383.3105 271.2046,383.3105 L271.4703,383.3105 L271.4703,376.6543 L271.2046,376.6543 Q270.5796,376.6543 270.314,376.4199 Q270.064,376.1855 270.064,375.7949 Q270.064,375.4199 270.314,375.1855 Q270.5796,374.9512 271.2046,374.9512 L278.8296,374.9512 L278.8296,377.5449 Q278.8296,378.1543 278.5953,378.4199 Q278.3765,378.6699 277.9859,378.6699 Q277.6109,378.6699 277.3765,378.4199 Q277.1421,378.1543 277.1421,377.5449 L277.1421,376.6543 L273.1734,376.6543 L273.1734,379.1074 L274.6578,379.1074 Q274.6578,378.4512 274.7828,378.2637 Q275.0484,377.8574 275.5171,377.8574 Q275.8921,377.8574 276.1265,378.123 Q276.3609,378.373 276.3609,378.9824 L276.3609,380.9512 Q276.3609,381.498 276.2359,381.6855 Q275.9703,382.0762 275.5171,382.0762 Q275.0484,382.0762 274.7828,381.6699 Q274.6578,381.4824 274.6578,380.8105 L273.1734,380.8105 Z " fill="#000000"/><text fill="#000000" font-family="sans-serif" font-size="14" lengthAdjust="spacing" textLength="28.793" x="293.1616" y="385.8105">Coin</text><line style="stroke:#181818;stroke-width:0.5;" x1="238.5" x2="345.7686" y1="396.0137" y2="396.0137"/><ellipse cx="248.5" cy="410.8242" fill="none" rx="3" ry="3" style="stroke:#038048;stroke-width:1;"/><text fill="#000000" font-family="sans-serif" font-size="14" lengthAdjust="spacing" textLength="30.3379" x="257.5" y="415.1211">ONE</text><ellipse cx="248.5" cy="429.4453" fill="none" rx="3" ry="3" style="stroke:#038048;stroke-width:1;"/><text fill="#000000" font-family="sans-serif" font-size="14" lengthAdjust="spacing" textLength="32.6553" x="257.5" y="433.7422">TWO</text><ellipse cx="248.5" cy="448.0664" fill="none" rx="3" ry="3" style="stroke:#038048;stroke-width:1;"/><text fill="#000000" font-family="sans-serif" font-size="14" lengthAdjust="spacing" textLength="31.1172" x="257.5" y="452.3633">FIVE</text><ellipse cx="248.5" cy="466.6875" fill="none" rx="3" ry="3" style="stroke:#038048;stroke-width:1;"/><text fill="#000000" font-family="sans-serif" font-size="14" lengthAdjust="spacing" textLength="28" x="257.5" y="470.9844">TEN</text><ellipse cx="248.5" cy="485.3086" fill="none" rx="3" ry="3" style="stroke:#038048;stroke-width:1;"/><text fill="#000000" font-family="sans-serif" font-size="14" lengthAdjust="spacing" textLength="59.1035" x="257.5" y="489.6055">TWENTY</text><ellipse cx="248.5" cy="503.9297" fill="none" rx="3" ry="3" style="stroke:#038048;stroke-width:1;"/><text fill="#000000" font-family="sans-serif" font-size="14" lengthAdjust="spacing" textLength="38.8828" x="257.5" y="508.2266">FIFTY</text><rect fill="none" height="6" style="stroke:#C82930;stroke-width:1;" width="6" x="245.5" y="519.5508"/><text fill="#000000" font-family="sans-serif" font-size="14" lengthAdjust="spacing" textLength="52.1445" x="257.5" y="526.8477">int value</text><line style="stroke:#181818;stroke-width:0.5;" x1="238.5" x2="345.7686" y1="534.3613" y2="534.3613"/><ellipse cx="248.5" cy="549.1719" fill="#84BE84" rx="3" ry="3" style="stroke:#038048;stroke-width:1;"/><text fill="#000000" font-family="sans-serif" font-size="14" lengthAdjust="spacing" textLength="83.2686" x="257.5" y="553.4688">int getValue()</text></g><g class="entity" data-entity="GMN9" data-source-line="47" data-uid="ent0010" id="entity_GMN9"><path d="M403.5,164.0137 L403.5,182.5137 L347.12,186.5137 L403.5,190.5137 L403.5,208.5957 A0,0 0 0 0 403.5,208.5957 L656.8115,208.5957 A0,0 0 0 0 656.8115,208.5957 L656.8115,174.0137 L646.8115,164.0137 L403.5,164.0137 A0,0 0 0 0 403.5,164.0137" fill="#FEFFDD" filter="url(#f1fdkn89kcawjd)" style="stroke:#181818;stroke-width:0.5;"/><path d="M646.8115,164.0137 L646.8115,174.0137 L656.8115,174.0137 L646.8115,164.0137" fill="#FEFFDD" style="stroke:#181818;stroke-width:0.5;"/><text fill="#000000" font-family="sans-serif" font-size="13" lengthAdjust="spacing" textLength="232.3115" x="409.5" y="183.042">inventoryMap : product name -&gt; Product</text><text fill="#000000" font-family="sans-serif" font-size="13" lengthAdjust="spacing" textLength="225.437" x="409.5" y="200.333">currentBalance : tracks inserted money</text></g><!--link VendingMachine to Product--><g class="link" data-entity-1="VendingMachine" data-entity-2="Product" data-source-line="43" data-uid="lnk7" id="link_VendingMachine_Product"><path codeLine="43" d="M184.206,296.5464 C174.896,322.0564 171.037,332.6473 161.727,358.1573" fill="none" id="VendingMachine-Product" style="stroke:#181818;stroke-width:1;"/><polygon fill="none" points="188.32,285.2737,182.5054,289.5387,184.206,296.5464,190.0206,292.2814,188.32,285.2737" style="stroke:#181818;stroke-width:1;"/><polygon fill="#181818" points="159.67,363.7937,166.5131,356.7105,161.3842,359.0967,158.998,353.9678,159.67,363.7937" style="stroke:#181818;stroke-width:1;"/><text fill="#000000" font-family="sans-serif" font-size="13" lengthAdjust="spacing" textLength="48.4199" x="177" y="330.042">contains</text><text fill="#000000" font-family="sans-serif" font-size="13" lengthAdjust="spacing" textLength="7.23" x="178.5653" y="306.855">1</text><text fill="#000000" font-family="sans-serif" font-size="13" lengthAdjust="spacing" textLength="31.7891" x="130.2458" y="352.6253">many</text></g><!--link VendingMachine to Coin--><g class="link" data-entity-1="VendingMachine" data-entity-2="Coin" data-source-line="44" data-uid="lnk8" id="link_VendingMachine_Coin"><path codeLine="44" d="M248.26,285.2737 C254.59,310.7837 259.975,332.4603 266.305,357.9703" fill="none" id="VendingMachine-to-Coin" style="stroke:#181818;stroke-width:1;stroke-dasharray:7,7;"/><polygon fill="#181818" points="267.75,363.7937,269.4648,354.0952,266.5458,358.9408,261.7002,356.0219,267.75,363.7937" style="stroke:#181818;stroke-width:1;"/><text fill="#000000" font-family="sans-serif" font-size="13" lengthAdjust="spacing" textLength="27.46" x="261" y="330.042">uses</text></g><!--SRC=[ZLDDQnin4BthLmo-r2MrIIujfCNW1WTyY9CIuz3ZM9fuXRMZZQIrSKl_UqVxaTYGaEnXL_FcQVIUPbOxZ16SC-CLiR6ykK5TMARnNV2crWd-gX7Sfo0PO2n98ii9gc1rltwgaPDD1tNM4pUK5i8TVXOeCoI-onkEWL_ThWPRU-y86MoSxj0wNBkMk_FMWB6n8euP-QUKqcyfFWqRuJTO_MWrVUdyJEJy7N7ouI39pe6kGn3i9phanbPlFf8ZdSXqSQ_8YfgGhhpbONuzAstf7NdO7loQZPvU-FsyL_C2wop2BGDoH9sivyuuSLs-vZjB4BTd0BUBMVui7sxpvtg-QiFPeaLdY-NlDd4jYzRw3brDBrrPvR0zxzCq1B-FW6mWaCEi91QsYYfkBLSOi0JsXY9LyFNy-n4gohSP_NQ2nWADt-VnU4GNwJXLUlQw2BuaIA4-IJNTdYQvodMTQAuztzi_159PlJy2Wui1-D5e0eCI-J1uRkibI9s4qiOF51cF9z1SyINKaQ9Ix1D1i9iYWNzyVn0Lo7CyT5AeweJaFmf4NpzVcNewZ49E0VKsTaD79jyM7MGQ36GbwZy0]--></g></svg>