<svg xmlns="http://www.w3.org/2000/svg" xmlns:xlink="http://www.w3.org/1999/xlink" contentStyleType="text/css" data-diagram-type="CLASS" height="738px" preserveAspectRatio="none" style="width:753px;height:738px;background:#FFFFFF;" version="1.1" viewBox="0 0 753 738" width="753px" zoomAndPan="magnify"><defs><filter height="300%" id="f2x50ji99lwsh" width="300%" x="-1" y="-1"><feGaussianBlur result="blurOut" stdDeviation="2"/><feColorMatrix in="blurOut" result="blurOut2" type="matrix" values="0 0 0 0 0 0 0 0 0 0 0 0 0 0 0 0 0 0 .4 0"/><feOffset dx="4" dy="4" in="blurOut2" result="blurOut3"/><feBlend in="SourceGraphic" in2="blurOut3" mode="normal"/></filter></defs><g><!--cluster lld--><g class="cluster" data-entity="lld" data-source-line="1" data-uid="ent0003" id="cluster_lld"><path d="M8.5,6.0137 L25.8311,6.0137 A3.75,3.75 0 0 1 28.3311,8.5137 L35.3311,30.6348 L456.5,30.6348 A2.5,2.5 0 0 1 459,33.1348 L459,728.5137 A2.5,2.5 0 0 1 456.5,731.0137 L8.5,731.0137 A2.5,2.5 0 0 1 6,728.5137 L6,8.5137 A2.5,2.5 0 0 1 8.5,6.0137" fill="none" filter="url(#f2x50ji99lwsh)" style="stroke:#000000;stroke-width:1.5;"/><line style="stroke:#000000;stroke-width:1.5;" x1="6" x2="35.3311" y1="30.6348" y2="30.6348"/><text fill="#000000" font-family="sans-serif" font-size="14" font-weight="bold" lengthAdjust="spacing" textLength="16.3311" x="10" y="23.1211">lld</text></g><!--cluster tinyurl--><g class="cluster" data-entity="tinyurl" data-source-line="1" data-uid="ent0004" id="cluster_tinyurl"><path d="M32.5,51.0137 L76.2793,51.0137 A3.75,3.75 0 0 1 78.7793,53.5137 L85.7793,75.6348 L432.5,75.6348 A2.5,2.5 0 0 1 435,78.1348 L435,704.5137 A2.5,2.5 0 0 1 432.5,707.0137 L32.5,707.0137 A2.5,2.5 0 0 1 30,704.5137 L30,53.5137 A2.5,2.5 0 0 1 32.5,51.0137" fill="none" filter="url(#f2x50ji99lwsh)" style="stroke:#000000;stroke-width:1.5;"/><line style="stroke:#000000;stroke-width:1.5;" x1="30" x2="85.7793" y1="75.6348" y2="75.6348"/><text fill="#000000" font-family="sans-serif" font-size="14" font-weight="bold" lengthAdjust="spacing" textLength="42.7793" x="34" y="68.1211">tinyurl</text></g><!--class UrlMapping--><g class="entity" data-entity="UrlMapping" data-source-line="1" data-uid="ent0002" id="entity_UrlMapping"><rect fill="#F1F1F1" filter="url(#f2x50ji99lwsh)" height="271.4531" rx="2.5" ry="2.5" style="stroke:#181818;stroke-width:0.5;" width="215.8613" x="46" y="420.0137"/><ellipse cx="113.8877" cy="436.0137" fill="#ADD1B2" rx="11" ry="11" style="stroke:#181818;stroke-width:1;"/><path d="M116.6533,431.8887 Q116.8096,431.6699 116.9971,431.5605 Q117.1846,431.4512 117.4033,431.4512 Q117.7783,431.4512 118.0127,431.7168 Q118.2471,431.9668 118.2471,432.5762 L118.2471,434.0293 Q118.2471,434.6387 118.0127,434.9043 Q117.7783,435.1699 117.4033,435.1699 Q117.0596,435.1699 116.8564,434.9668 Q116.6533,434.7793 116.5439,434.2637 Q116.4971,433.9043 116.3096,433.7168 Q115.9814,433.3418 115.3721,433.123 Q114.7627,432.9043 114.1377,432.9043 Q113.3721,432.9043 112.7314,433.2324 Q112.1064,433.5605 111.6064,434.3105 Q111.1221,435.0605 111.1221,436.0918 L111.1221,437.1855 Q111.1221,438.4199 112.0127,439.248 Q112.9033,440.0605 114.4971,440.0605 Q115.4346,440.0605 116.0908,439.8105 Q116.4814,439.6543 116.9033,439.2168 Q117.1689,438.9512 117.3096,438.873 Q117.4658,438.7949 117.6689,438.7949 Q117.9971,438.7949 118.2471,439.0605 Q118.5127,439.3105 118.5127,439.6543 Q118.5127,439.998 118.1689,440.4043 Q117.6689,440.9824 116.8721,441.3105 Q115.7939,441.7637 114.4971,441.7637 Q112.9814,441.7637 111.7783,441.1387 Q110.7939,440.6387 110.1064,439.5762 Q109.4189,438.498 109.4189,437.2168 L109.4189,436.0605 Q109.4189,434.7324 110.0283,433.5918 Q110.6533,432.4355 111.7471,431.8262 Q112.8408,431.2012 114.0752,431.2012 Q114.8096,431.2012 115.4502,431.373 Q116.1064,431.5293 116.6533,431.8887 Z " fill="#000000"/><text fill="#000000" font-family="sans-serif" font-size="14" lengthAdjust="spacing" textLength="71.5859" x="134.3877" y="441.8105">UrlMapping</text><line style="stroke:#181818;stroke-width:0.5;" x1="47" x2="260.8613" y1="452.0137" y2="452.0137"/><rect fill="none" height="6" style="stroke:#C82930;stroke-width:1;" width="6" x="54" y="463.8242"/><text fill="#000000" font-family="sans-serif" font-size="14" lengthAdjust="spacing" textLength="84.8135" x="66" y="471.1211">String longUrl</text><rect fill="none" height="6" style="stroke:#C82930;stroke-width:1;" width="6" x="54" y="482.4453"/><text fill="#000000" font-family="sans-serif" font-size="14" lengthAdjust="spacing" textLength="105.0547" x="66" y="489.7422">String shortCode</text><rect fill="none" height="6" style="stroke:#C82930;stroke-width:1;" width="6" x="54" y="501.0664"/><text fill="#000000" font-family="sans-serif" font-size="14" lengthAdjust="spacing" textLength="157.9648" x="66" y="508.3633">LocalDateTime createdAt</text><rect fill="none" height="6" style="stroke:#C82930;stroke-width:1;" width="6" x="54" y="519.6875"/><text fill="#000000" font-family="sans-serif" font-size="14" lengthAdjust="spacing" textLength="156.3994" x="66" y="526.9844">LocalDateTime expiresAt</text><rect fill="none" height="6" style="stroke:#C82930;stroke-width:1;" width="6" x="54" y="538.3086"/><text fill="#000000" font-family="sans-serif" font-size="14" lengthAdjust="spacing" textLength="83.2549" x="66" y="545.6055">int clickCount</text><line style="stroke:#181818;stroke-width:0.5;" x1="47" x2="260.8613" y1="553.1191" y2="553.1191"/><ellipse cx="57" cy="567.9297" fill="#84BE84" rx="3" ry="3" style="stroke:#038048;stroke-width:1;"/><text fill="#000000" font-family="sans-serif" font-size="14" lengthAdjust="spacing" textLength="118.2754" x="66" y="572.2266">String getLongUrl()</text><ellipse cx="57" cy="586.5508" fill="#84BE84" rx="3" ry="3" style="stroke:#038048;stroke-width:1;"/><text fill="#000000" font-family="sans-serif" font-size="14" lengthAdjust="spacing" textLength="136.1787" x="66" y="590.8477">String getShortCode()</text><ellipse cx="57" cy="605.1719" fill="#84BE84" rx="3" ry="3" style="stroke:#038048;stroke-width:1;"/><text fill="#000000" font-family="sans-serif" font-size="14" lengthAdjust="spacing" textLength="115.1514" x="66" y="609.4688">int getClickCount()</text><ellipse cx="57" cy="623.793" fill="#84BE84" rx="3" ry="3" style="stroke:#038048;stroke-width:1;"/><text fill="#000000" font-family="sans-serif" font-size="14" lengthAdjust="spacing" textLength="189.8613" x="66" y="628.0898">LocalDateTime getCreatedAt()</text><ellipse cx="57" cy="642.4141" fill="#84BE84" rx="3" ry="3" style="stroke:#038048;stroke-width:1;"/><text fill="#000000" font-family="sans-serif" font-size="14" lengthAdjust="spacing" textLength="186.7373" x="66" y="646.7109">LocalDateTime getExpiresAt()</text><ellipse cx="57" cy="661.0352" fill="#84BE84" rx="3" ry="3" style="stroke:#038048;stroke-width:1;"/><text fill="#000000" font-family="sans-serif" font-size="14" lengthAdjust="spacing" textLength="120.6201" x="66" y="665.332">boolean isExpired()</text><ellipse cx="57" cy="679.6563" fill="#84BE84" rx="3" ry="3" style="stroke:#038048;stroke-width:1;"/><text fill="#000000" font-family="sans-serif" font-size="14" lengthAdjust="spacing" textLength="130.6963" x="66" y="683.9531">void incrementClick()</text></g><!--class TinyUrlService--><g class="entity" data-entity="TinyUrlService" data-source-line="17" data-uid="ent0005" id="entity_TinyUrlService"><rect fill="#F1F1F1" filter="url(#f2x50ji99lwsh)" height="252.832" rx="2.5" ry="2.5" style="stroke:#181818;stroke-width:0.5;" width="306.0957" x="79" y="88.0137"/><ellipse cx="182.291" cy="104.0137" fill="#ADD1B2" rx="11" ry="11" style="stroke:#181818;stroke-width:1;"/><path d="M185.0566,99.8887 Q185.2129,99.6699 185.4004,99.5605 Q185.5879,99.4512 185.8066,99.4512 Q186.1816,99.4512 186.416,99.7168 Q186.6504,99.9668 186.6504,100.5762 L186.6504,102.0293 Q186.6504,102.6387 186.416,102.9043 Q186.1816,103.1699 185.8066,103.1699 Q185.4629,103.1699 185.2598,102.9668 Q185.0566,102.7793 184.9473,102.2637 Q184.9004,101.9043 184.7129,101.7168 Q184.3848,101.3418 183.7754,101.123 Q183.166,100.9043 182.541,100.9043 Q181.7754,100.9043 181.1348,101.2324 Q180.5098,101.5605 180.0098,102.3105 Q179.5254,103.0605 179.5254,104.0918 L179.5254,105.1855 Q179.5254,106.4199 180.416,107.248 Q181.3066,108.0605 182.9004,108.0605 Q183.8379,108.0605 184.4941,107.8105 Q184.8848,107.6543 185.3066,107.2168 Q185.5723,106.9512 185.7129,106.873 Q185.8691,106.7949 186.0723,106.7949 Q186.4004,106.7949 186.6504,107.0605 Q186.916,107.3105 186.916,107.6543 Q186.916,107.998 186.5723,108.4043 Q186.0723,108.9824 185.2754,109.3105 Q184.1973,109.7637 182.9004,109.7637 Q181.3848,109.7637 180.1816,109.1387 Q179.1973,108.6387 178.5098,107.5762 Q177.8223,106.498 177.8223,105.2168 L177.8223,104.0605 Q177.8223,102.7324 178.4316,101.5918 Q179.0566,100.4355 180.1504,99.8262 Q181.2441,99.2012 182.4785,99.2012 Q183.2129,99.2012 183.8535,99.373 Q184.5098,99.5293 185.0566,99.8887 Z " fill="#000000"/><text fill="#000000" font-family="sans-serif" font-size="14" lengthAdjust="spacing" textLength="91.0137" x="202.791" y="109.8105">TinyUrlService</text><line style="stroke:#181818;stroke-width:0.5;" x1="80" x2="384.0957" y1="120.0137" y2="120.0137"/><rect fill="none" height="6" style="stroke:#C82930;stroke-width:1;" width="6" x="87" y="131.8242"/><text fill="#000000" font-family="sans-serif" font-size="14" lengthAdjust="spacing" textLength="260.6885" x="99" y="139.1211">Map&lt;String,UrlMapping&gt; shortToMapping</text><rect fill="none" height="6" style="stroke:#C82930;stroke-width:1;" width="6" x="87" y="150.4453"/><text fill="#000000" font-family="sans-serif" font-size="14" lengthAdjust="spacing" textLength="200.7783" x="99" y="157.7422">Map&lt;String,String&gt; longToShort</text><rect fill="none" height="6" style="stroke:#C82930;stroke-width:1;" width="6" x="87" y="169.0664"/><text fill="#000000" font-family="sans-serif" font-size="14" lengthAdjust="spacing" textLength="77.0547" x="99" y="176.3633">long counter</text><rect fill="none" height="6" style="stroke:#C82930;stroke-width:1;" width="6" x="87" y="187.6875"/><text fill="#000000" font-family="sans-serif" font-size="14" lengthAdjust="spacing" text-decoration="underline" textLength="123.6963" x="99" y="194.9844">int CODE_LENGTH</text><rect fill="none" height="6" style="stroke:#C82930;stroke-width:1;" width="6" x="87" y="206.3086"/><text fill="#000000" font-family="sans-serif" font-size="14" lengthAdjust="spacing" text-decoration="underline" textLength="150.1787" x="99" y="213.6055">String BASE62_CHARS</text><rect fill="none" height="6" style="stroke:#C82930;stroke-width:1;" width="6" x="87" y="224.9297"/><text fill="#000000" font-family="sans-serif" font-size="14" lengthAdjust="spacing" text-decoration="underline" textLength="187.5098" x="99" y="232.2266">int DEFAULT_EXPIRY_DAYS</text><line style="stroke:#181818;stroke-width:0.5;" x1="80" x2="384.0957" y1="239.7402" y2="239.7402"/><ellipse cx="90" cy="254.5508" fill="#84BE84" rx="3" ry="3" style="stroke:#038048;stroke-width:1;"/><text fill="#000000" font-family="sans-serif" font-size="14" lengthAdjust="spacing" textLength="150.9375" x="99" y="258.8477">String shortenUrl(String)</text><ellipse cx="90" cy="273.1719" fill="#84BE84" rx="3" ry="3" style="stroke:#038048;stroke-width:1;"/><text fill="#000000" font-family="sans-serif" font-size="14" lengthAdjust="spacing" textLength="133.041" x="99" y="277.4688">String redirect(String)</text><ellipse cx="90" cy="291.793" fill="#84BE84" rx="3" ry="3" style="stroke:#038048;stroke-width:1;"/><text fill="#000000" font-family="sans-serif" font-size="14" lengthAdjust="spacing" textLength="164.1719" x="99" y="296.0898">void showAnalytics(String)</text><ellipse cx="90" cy="310.4141" fill="#84BE84" rx="3" ry="3" style="stroke:#038048;stroke-width:1;"/><text fill="#000000" font-family="sans-serif" font-size="14" lengthAdjust="spacing" textLength="280.0957" x="99" y="314.7109">String shortenWithCustomAlias(String,String)</text><rect fill="#F24D5C" height="6" style="stroke:#C82930;stroke-width:1;" width="6" x="87" y="326.0352"/><text fill="#000000" font-family="sans-serif" font-size="14" lengthAdjust="spacing" textLength="186.0059" x="99" y="333.332">String generateBase62Code()</text></g><g class="entity" data-entity="GMN7" data-source-line="44" data-uid="ent0008" id="entity_GMN7"><path d="M475.5,192.0137 L475.5,210.5137 L385.23,214.5137 L475.5,218.5137 L475.5,236.5957 A0,0 0 0 0 475.5,236.5957 L746.8706,236.5957 A0,0 0 0 0 746.8706,236.5957 L746.8706,202.0137 L736.8706,192.0137 L475.5,192.0137 A0,0 0 0 0 475.5,192.0137" fill="#FEFFDD" filter="url(#f2x50ji99lwsh)" style="stroke:#181818;stroke-width:0.5;"/><path d="M736.8706,192.0137 L736.8706,202.0137 L746.8706,202.0137 L736.8706,192.0137" fill="#FEFFDD" style="stroke:#181818;stroke-width:0.5;"/><text fill="#000000" font-family="sans-serif" font-size="13" lengthAdjust="spacing" textLength="201.9634" x="481.5" y="211.042">longToShort : longUrl -&gt; shortCode</text><text fill="#000000" font-family="sans-serif" font-size="13" lengthAdjust="spacing" textLength="250.3706" x="481.5" y="228.333">shortToMapping : shortCode -&gt; UrlMapping</text></g><!--link TinyUrlService to UrlMapping--><g class="link" data-entity-1="TinyUrlService" data-entity-2="UrlMapping" data-source-line="40" data-uid="lnk6" id="link_TinyUrlService_UrlMapping"><path codeLine="40" d="M200.378,352.9578 C194.478,378.5878 192.2841,388.0961 186.3241,414.0261" fill="none" id="TinyUrlService-UrlMapping" style="stroke:#181818;stroke-width:1;"/><polygon fill="none" points="203.07,341.2637,197.826,346.2134,200.378,352.9578,205.6221,348.0081,203.07,341.2637" style="stroke:#181818;stroke-width:1;"/><polygon fill="#181818" points="184.98,419.8737,190.8944,411.9984,186.1,415.0007,183.0977,410.2064,184.98,419.8737" style="stroke:#181818;stroke-width:1;"/><text fill="#000000" font-family="sans-serif" font-size="13" lengthAdjust="spacing" textLength="53.479" x="196" y="386.042">manages</text><text fill="#000000" font-family="sans-serif" font-size="13" lengthAdjust="spacing" textLength="7.23" x="194.3002" y="362.701">1</text><text fill="#000000" font-family="sans-serif" font-size="13" lengthAdjust="spacing" textLength="31.7891" x="154.9018" y="408.5642">many</text></g><!--link UrlMapping to UrlMapping--><g class="link" data-entity-1="UrlMapping" data-entity-2="UrlMapping" data-source-line="49" data-uid="lnk10" id="link_UrlMapping_UrlMapping"><path codeLine="49" d="M262.19,524.5037 C282.6,528.2737 297,538.6037 297,555.5137 C297,572.4237 282.6,582.7537 262.19,586.5237" fill="none" id="UrlMapping-UrlMapping" style="stroke:#181818;stroke-width:1;stroke-dasharray:7,7;"/><text fill="#000000" font-family="sans-serif" font-size="13" lengthAdjust="spacing" textLength="127.9116" x="303" y="561.042">mapped by shortCode</text><text fill="#000000" font-family="sans-serif" font-size="13" lengthAdjust="spacing" textLength="7.23" x="269.7066" y="518.872">1</text><text fill="#000000" font-family="sans-serif" font-size="13" lengthAdjust="spacing" textLength="7.23" x="269.7066" y="585.0589">1</text></g><!--SRC=[RLDTRzem57tFhxZYfPjMqDO79cqJKXgo5ObzYAJQ-eICSo4MZXtPXevM_U-xTaX9O7b9VCxn_JZtXajcBKXPZ9nGXvsHetiZlxEw5ce3pz4GCcVyfzHgGym9iAKsBj454ZJNdCafSvYB2e4RfCyYTXSC_gs5GHiOeHnmAVWsqJlbedTjt0swUPFhpTiUchK90-wl4vYyHWXeFvtdsrh-JwTjGO5UQIsHAH2smOk0xhKeA1rrLQ5g4XB-4aKHl_0kfpTLdg7P2ux1F_BoIzF4zSdPIMDVhe_dlgvvJOBdkGvzay2VWFjMqT3nsJhc17y9JYG_f-bodlxubjzrgQDvjt6MZc-MoLsyoCvlJjElyVqyNwP_ViqM3yjf_92TN0z5elApQ93EHCWUieYx3XESeZkFiMBoG2divRLZoD_2bSdEEbt5Kh1MTztAXwUvApGqi5jcSNnpd3vvVnKRenyjC5N00YNrevKjHMsZo6w5gfbX5IYIMwnX_Fvp1pLCRJtwiOVQaXNwqQTSCscnIrLQQLuQJIlZpAv7XGs87TMwsZcSSQqoyOH0aQEhirsec68RjE1AXDCYH6UgmOS1wE5m0WFI7mOT9NngGr3iMLMJZOpcvtHm75QY6OScwqdO15VQ8HYnAHteDVHJHK1FPyCe_l4VX-6aytTxMNzPIVbAUssd6wHn-AHKOePo3UIEvY9C1_Q2dGUYEiC4ksKG5dMwzeQCHk5rvaLTOm6hGwVKVm00]--></g></svg>