<svg xmlns="http://www.w3.org/2000/svg" xmlns:xlink="http://www.w3.org/1999/xlink" contentStyleType="text/css" data-diagram-type="CLASS" height="660px" preserveAspectRatio="none" style="width:744px;height:660px;background:#FFFFFF;" version="1.1" viewBox="0 0 744 660" width="744px" zoomAndPan="magnify"><defs/><g><!--cluster lld--><g class="cluster" data-entity="lld" data-source-line="1" data-uid="ent0003" id="cluster_lld"><path d="M8.5,6.0137 L25.8311,6.0137 A3.75,3.75 0 0 1 28.3311,8.5137 L35.3311,30.6348 L381.5,30.6348 A2.5,2.5 0 0 1 384,33.1348 L384,650.5137 A2.5,2.5 0 0 1 381.5,653.0137 L8.5,653.0137 A2.5,2.5 0 0 1 6,650.5137 L6,8.5137 A2.5,2.5 0 0 1 8.5,6.0137" fill="none" style="stroke:#000000;stroke-width:1.5;"/><line style="stroke:#000000;stroke-width:1.5;" x1="6" x2="35.3311" y1="30.6348" y2="30.6348"/><text fill="#000000" font-family="sans-serif" font-size="14" font-weight="bold" lengthAdjust="spacing" textLength="16.3311" x="10" y="23.1211">lld</text></g><!--cluster tinyurl--><g class="cluster" data-entity="tinyurl" data-source-line="1" data-uid="ent0004" id="cluster_tinyurl"><path d="M32.5,51.0137 L76.2793,51.0137 A3.75,3.75 0 0 1 78.7793,53.5137 L85.7793,75.6348 L357.5,75.6348 A2.5,2.5 0 0 1 360,78.1348 L360,626.5137 A2.5,2.5 0 0 1 357.5,629.0137 L32.5,629.0137 A2.5,2.5 0 0 1 30,626.5137 L30,53.5137 A2.5,2.5 0 0 1 32.5,51.0137" fill="none" style="stroke:#000000;stroke-width:1.5;"/><line style="stroke:#000000;stroke-width:1.5;" x1="30" x2="85.7793" y1="75.6348" y2="75.6348"/><text fill="#000000" font-family="sans-serif" font-size="14" font-weight="bold" lengthAdjust="spacing" textLength="42.7793" x="34" y="68.1211">tinyurl</text></g><!--class UrlShortenerService--><g class="entity" data-entity="UrlShortenerService" data-source-line="1" data-uid="ent0002" id="entity_UrlShortenerService"><rect fill="#F1F1F1" height="141.1055" rx="2.5" ry="2.5" style="stroke:#181818;stroke-width:0.5;" width="296.8125" x="46.5" y="88.0137"/><ellipse cx="127.6323" cy="104.0137" fill="#ADD1B2" rx="11" ry="11" style="stroke:#181818;stroke-width:1;"/><path d="M130.3979,99.8887 Q130.5542,99.6699 130.7417,99.5605 Q130.9292,99.4512 131.1479,99.4512 Q131.5229,99.4512 131.7573,99.7168 Q131.9917,99.9668 131.9917,100.5762 L131.9917,102.0293 Q131.9917,102.6387 131.7573,102.9043 Q131.5229,103.1699 131.1479,103.1699 Q130.8042,103.1699 130.6011,102.9668 Q130.3979,102.7793 130.2886,102.2637 Q130.2417,101.9043 130.0542,101.7168 Q129.7261,101.3418 129.1167,101.123 Q128.5073,100.9043 127.8823,100.9043 Q127.1167,100.9043 126.4761,101.2324 Q125.8511,101.5605 125.3511,102.3105 Q124.8667,103.0605 124.8667,104.0918 L124.8667,105.1855 Q124.8667,106.4199 125.7573,107.248 Q126.6479,108.0605 128.2417,108.0605 Q129.1792,108.0605 129.8354,107.8105 Q130.2261,107.6543 130.6479,107.2168 Q130.9136,106.9512 131.0542,106.873 Q131.2104,106.7949 131.4136,106.7949 Q131.7417,106.7949 131.9917,107.0605 Q132.2573,107.3105 132.2573,107.6543 Q132.2573,107.998 131.9136,108.4043 Q131.4136,108.9824 130.6167,109.3105 Q129.5386,109.7637 128.2417,109.7637 Q126.7261,109.7637 125.5229,109.1387 Q124.5386,108.6387 123.8511,107.5762 Q123.1636,106.498 123.1636,105.2168 L123.1636,104.0605 Q123.1636,102.7324 123.7729,101.5918 Q124.3979,100.4355 125.4917,99.8262 Q126.5854,99.2012 127.8198,99.2012 Q128.5542,99.2012 129.1948,99.373 Q129.8511,99.5293 130.3979,99.8887 Z " fill="#000000"/><text fill="#000000" font-family="sans-serif" font-size="14" lengthAdjust="spacing" textLength="126.0479" x="148.1323" y="109.8105">UrlShortenerService</text><line style="stroke:#181818;stroke-width:0.5;" x1="47.5" x2="342.3125" y1="120.0137" y2="120.0137"/><rect fill="none" height="6" style="stroke:#C82930;stroke-width:1;" width="6" x="54.5" y="131.8242"/><text fill="#000000" font-family="sans-serif" font-size="14" lengthAdjust="spacing" textLength="268.4746" x="66.5" y="139.1211">HashMap&lt;String,UrlMapping&gt; longToShort</text><rect fill="none" height="6" style="stroke:#C82930;stroke-width:1;" width="6" x="54.5" y="150.4453"/><text fill="#000000" font-family="sans-serif" font-size="14" lengthAdjust="spacing" textLength="270.8125" x="66.5" y="157.7422">HashMap&lt;String,UrlMapping&gt; shortToLong</text><line style="stroke:#181818;stroke-width:0.5;" x1="47.5" x2="342.3125" y1="165.2559" y2="165.2559"/><ellipse cx="57.5" cy="180.0664" fill="#84BE84" rx="3" ry="3" style="stroke:#038048;stroke-width:1;"/><text fill="#000000" font-family="sans-serif" font-size="14" lengthAdjust="spacing" textLength="161.0615" x="66.5" y="184.3633">String shortenURL(String)</text><ellipse cx="57.5" cy="198.6875" fill="#84BE84" rx="3" ry="3" style="stroke:#038048;stroke-width:1;"/><text fill="#000000" font-family="sans-serif" font-size="14" lengthAdjust="spacing" textLength="133.041" x="66.5" y="202.9844">String redirect(String)</text><ellipse cx="57.5" cy="217.3086" fill="#84BE84" rx="3" ry="3" style="stroke:#038048;stroke-width:1;"/><text fill="#000000" font-family="sans-serif" font-size="14" lengthAdjust="spacing" textLength="172.7373" x="66.5" y="221.6055">UrlMapping getStats(String)</text></g><!--class UrlMapping--><g class="entity" data-entity="UrlMapping" data-source-line="10" data-uid="ent0005" id="entity_UrlMapping"><rect fill="#F1F1F1" height="141.1055" rx="2.5" ry="2.5" style="stroke:#181818;stroke-width:0.5;" width="183.9648" x="145" y="308.0137"/><ellipse cx="196.9395" cy="324.0137" fill="#ADD1B2" rx="11" ry="11" style="stroke:#181818;stroke-width:1;"/><path d="M199.7051,319.8887 Q199.8613,319.6699 200.0488,319.5605 Q200.2363,319.4512 200.4551,319.4512 Q200.8301,319.4512 201.0645,319.7168 Q201.2988,319.9668 201.2988,320.5762 L201.2988,322.0293 Q201.2988,322.6387 201.0645,322.9043 Q200.8301,323.1699 200.4551,323.1699 Q200.1113,323.1699 199.9082,322.9668 Q199.7051,322.7793 199.5957,322.2637 Q199.5488,321.9043 199.3613,321.7168 Q199.0332,321.3418 198.4238,321.123 Q197.8145,320.9043 197.1895,320.9043 Q196.4238,320.9043 195.7832,321.2324 Q195.1582,321.5605 194.6582,322.3105 Q194.1738,323.0605 194.1738,324.0918 L194.1738,325.1855 Q194.1738,326.4199 195.0645,327.248 Q195.9551,328.0605 197.5488,328.0605 Q198.4863,328.0605 199.1426,327.8105 Q199.5332,327.6543 199.9551,327.2168 Q200.2207,326.9512 200.3613,326.873 Q200.5176,326.7949 200.7207,326.7949 Q201.0488,326.7949 201.2988,327.0605 Q201.5645,327.3105 201.5645,327.6543 Q201.5645,327.998 201.2207,328.4043 Q200.7207,328.9824 199.9238,329.3105 Q198.8457,329.7637 197.5488,329.7637 Q196.0332,329.7637 194.8301,329.1387 Q193.8457,328.6387 193.1582,327.5762 Q192.4707,326.498 192.4707,325.2168 L192.4707,324.0605 Q192.4707,322.7324 193.0801,321.5918 Q193.7051,320.4355 194.7988,319.8262 Q195.8926,319.2012 197.127,319.2012 Q197.8613,319.2012 198.502,319.373 Q199.1582,319.5293 199.7051,319.8887 Z " fill="#000000"/><text fill="#000000" font-family="sans-serif" font-size="14" lengthAdjust="spacing" textLength="71.5859" x="217.4395" y="329.8105">UrlMapping</text><line style="stroke:#181818;stroke-width:0.5;" x1="146" x2="327.9648" y1="340.0137" y2="340.0137"/><rect fill="none" height="6" style="stroke:#C82930;stroke-width:1;" width="6" x="153" y="351.8242"/><text fill="#000000" font-family="sans-serif" font-size="14" lengthAdjust="spacing" textLength="84.8135" x="165" y="359.1211">String longUrl</text><rect fill="none" height="6" style="stroke:#C82930;stroke-width:1;" width="6" x="153" y="370.4453"/><text fill="#000000" font-family="sans-serif" font-size="14" lengthAdjust="spacing" textLength="89.4688" x="165" y="377.7422">String shortUrl</text><rect fill="none" height="6" style="stroke:#C82930;stroke-width:1;" width="6" x="153" y="389.0664"/><text fill="#000000" font-family="sans-serif" font-size="14" lengthAdjust="spacing" textLength="96.4824" x="165" y="396.3633">User createdBy</text><rect fill="none" height="6" style="stroke:#C82930;stroke-width:1;" width="6" x="153" y="407.6875"/><text fill="#000000" font-family="sans-serif" font-size="14" lengthAdjust="spacing" textLength="157.9648" x="165" y="414.9844">LocalDateTime createdAt</text><rect fill="none" height="6" style="stroke:#C82930;stroke-width:1;" width="6" x="153" y="426.3086"/><text fill="#000000" font-family="sans-serif" font-size="14" lengthAdjust="spacing" textLength="156.3994" x="165" y="433.6055">LocalDateTime expiresAt</text><line style="stroke:#181818;stroke-width:0.5;" x1="146" x2="327.9648" y1="441.1191" y2="441.1191"/></g><!--class User--><g class="entity" data-entity="User" data-source-line="18" data-uid="ent0006" id="entity_User"><rect fill="#F1F1F1" height="85.2422" rx="2.5" ry="2.5" style="stroke:#181818;stroke-width:0.5;" width="128.7168" x="172.5" y="528.0137"/><ellipse cx="217.8291" cy="544.0137" fill="#ADD1B2" rx="11" ry="11" style="stroke:#181818;stroke-width:1;"/><path d="M220.5947,539.8887 Q220.751,539.6699 220.9385,539.5605 Q221.126,539.4512 221.3447,539.4512 Q221.7197,539.4512 221.9541,539.7168 Q222.1885,539.9668 222.1885,540.5762 L222.1885,542.0293 Q222.1885,542.6387 221.9541,542.9043 Q221.7197,543.1699 221.3447,543.1699 Q221.001,543.1699 220.7979,542.9668 Q220.5947,542.7793 220.4854,542.2637 Q220.4385,541.9043 220.251,541.7168 Q219.9229,541.3418 219.3135,541.123 Q218.7041,540.9043 218.0791,540.9043 Q217.3135,540.9043 216.6729,541.2324 Q216.0479,541.5605 215.5479,542.3105 Q215.0635,543.0605 215.0635,544.0918 L215.0635,545.1855 Q215.0635,546.4199 215.9541,547.248 Q216.8447,548.0605 218.4385,548.0605 Q219.376,548.0605 220.0322,547.8105 Q220.4229,547.6543 220.8447,547.2168 Q221.1104,546.9512 221.251,546.873 Q221.4072,546.7949 221.6104,546.7949 Q221.9385,546.7949 222.1885,547.0605 Q222.4541,547.3105 222.4541,547.6543 Q222.4541,547.998 222.1104,548.4043 Q221.6104,548.9824 220.8135,549.3105 Q219.7354,549.7637 218.4385,549.7637 Q216.9229,549.7637 215.7197,549.1387 Q214.7354,548.6387 214.0479,547.5762 Q213.3604,546.498 213.3604,545.2168 L213.3604,544.0605 Q213.3604,542.7324 213.9697,541.5918 Q214.5947,540.4355 215.6885,539.8262 Q216.7822,539.2012 218.0166,539.2012 Q218.751,539.2012 219.3916,539.373 Q220.0479,539.5293 220.5947,539.8887 Z " fill="#000000"/><text fill="#000000" font-family="sans-serif" font-size="14" lengthAdjust="spacing" textLength="29.5586" x="238.3291" y="549.8105">User</text><line style="stroke:#181818;stroke-width:0.5;" x1="173.5" x2="300.2168" y1="560.0137" y2="560.0137"/><rect fill="none" height="6" style="stroke:#C82930;stroke-width:1;" width="6" x="180.5" y="571.8242"/><text fill="#000000" font-family="sans-serif" font-size="14" lengthAdjust="spacing" textLength="79.3721" x="192.5" y="579.1211">String userId</text><rect fill="none" height="6" style="stroke:#C82930;stroke-width:1;" width="6" x="180.5" y="590.4453"/><text fill="#000000" font-family="sans-serif" font-size="14" lengthAdjust="spacing" textLength="102.7168" x="192.5" y="597.7422">String username</text><line style="stroke:#181818;stroke-width:0.5;" x1="173.5" x2="300.2168" y1="605.2559" y2="605.2559"/></g><g class="entity" data-entity="GMN9" data-source-line="33" data-uid="ent0010" id="entity_GMN9"><path d="M400.5,127.5137 L400.5,154.5137 L343.65,158.5137 L400.5,162.5137 L400.5,189.3867 A0,0 0 0 0 400.5,189.3867 L737.2705,189.3867 A0,0 0 0 0 737.2705,189.3867 L737.2705,137.5137 L727.2705,127.5137 L400.5,127.5137 A0,0 0 0 0 400.5,127.5137" fill="#FEFFDD" style="stroke:#181818;stroke-width:0.5;"/><path d="M727.2705,127.5137 L727.2705,137.5137 L737.2705,137.5137 L727.2705,127.5137" fill="#FEFFDD" style="stroke:#181818;stroke-width:0.5;"/><text fill="#000000" font-family="sans-serif" font-size="13" lengthAdjust="spacing" textLength="179.1753" x="406.5" y="146.542">Uses two maps for O(1) lookup</text><text fill="#000000" font-family="sans-serif" font-size="13" lengthAdjust="spacing" textLength="299.1523" x="420.9473" y="163.833">private HashMap&lt;String, UrlMapping&gt; longToShort;</text><text fill="#000000" font-family="sans-serif" font-size="13" lengthAdjust="spacing" textLength="301.3232" x="420.9473" y="181.124">private HashMap&lt;String, UrlMapping&gt; shortToLong;</text></g><g class="entity" data-entity="GMN12" data-source-line="39" data-uid="ent0013" id="entity_GMN12"><path d="M400.5,339.0137 L400.5,374.5137 L329.12,378.5137 L400.5,382.5137 L400.5,418.1777 A0,0 0 0 0 400.5,418.1777 L547.2217,418.1777 A0,0 0 0 0 547.2217,418.1777 L547.2217,349.0137 L537.2217,339.0137 L400.5,339.0137 A0,0 0 0 0 400.5,339.0137" fill="#FEFFDD" style="stroke:#181818;stroke-width:0.5;"/><path d="M537.2217,339.0137 L537.2217,349.0137 L547.2217,349.0137 L537.2217,339.0137" fill="#FEFFDD" style="stroke:#181818;stroke-width:0.5;"/><text fill="#000000" font-family="sans-serif" font-size="13" lengthAdjust="spacing" textLength="125.7217" x="406.5" y="358.042">Contains stats as well</text><text fill="#000000" font-family="sans-serif" font-size="13" lengthAdjust="spacing" textLength="59.9663" x="420.9473" y="375.333">clickCount</text><text fill="#000000" font-family="sans-serif" font-size="13" lengthAdjust="spacing" textLength="55.6436" x="420.9473" y="392.624">createdAt</text><text fill="#000000" font-family="sans-serif" font-size="13" lengthAdjust="spacing" textLength="54.1899" x="420.9473" y="409.915">expiresAt</text></g><!--reverse link UrlShortenerService to UrlMapping--><g class="link" data-entity-1="UrlShortenerService" data-entity-2="UrlMapping" data-source-line="24" data-uid="lnk7" id="link_UrlShortenerService_UrlMapping"><path codeLine="24" d="M210.6705,240.8769 C215.5205,266.0469 218.73,282.6737 223.58,307.8537" fill="none" id="UrlShortenerService-backto-UrlMapping" style="stroke:#181818;stroke-width:1;"/><polygon fill="#181818" points="208.4,229.0937,205.6075,235.7421,210.6705,240.8769,213.463,234.2285,208.4,229.0937" style="stroke:#181818;stroke-width:1;"/><text fill="#000000" font-family="sans-serif" font-size="13" lengthAdjust="spacing" textLength="53.479" x="218" y="274.042">manages</text><text fill="#000000" font-family="sans-serif" font-size="13" lengthAdjust="spacing" textLength="7.23" x="202.4425" y="251.2867">1</text><text fill="#000000" font-family="sans-serif" font-size="13" lengthAdjust="spacing" textLength="5.0591" x="216.9431" y="296.7282">*</text></g><!--link UrlMapping to User--><g class="link" data-entity-1="UrlMapping" data-entity-2="User" data-source-line="25" data-uid="lnk8" id="link_UrlMapping_User"><path codeLine="25" d="M237,449.1837 C237,475.5537 237,504.7337 237,527.7537" fill="none" id="UrlMapping-User" style="stroke:#181818;stroke-width:1;"/><text fill="#000000" font-family="sans-serif" font-size="13" lengthAdjust="spacing" textLength="58.5317" x="238" y="494.042">createdBy</text><text fill="#000000" font-family="sans-serif" font-size="13" lengthAdjust="spacing" textLength="7.23" x="229.6527" y="471.386">1</text><text fill="#000000" font-family="sans-serif" font-size="13" lengthAdjust="spacing" textLength="7.23" x="229.4831" y="516.6163">1</text></g><!--SRC=[bLB1Rjim3BthAuXSadHBiHvsQOS2NNVOW6m3vkG3D9brX2YIGDBDYg7_FifkOg_D1bGNcUyzaeyMNR3C449zBZu-j1JErnIgJIB1Y5GXtNk7yDiiuBFbpLURFrH2FZPlLQPHrizh22asgzHb_L_8HR9AIzMRDz0BUX3Z-iTorYFpWIEiFQ6J4JFKWmQb4YjyP1-DCUxKH8UCCiXJwM9QcG7eVFJ8cf704Lh1-kE30ilaRFYauShlyC3So0i6VsNroyeyddHIweuyj1f_gV-EezrXoPxU4AKzmummMF4fyiPddfjJxpEvcC3POW6Jiydu_rp2paRR89iHMBH5gbTdvt8qg9bMsJeqlFKnMx8xYAb6nWpltpq3oSPjGStqMn9ak4i4Fr54AxPHQHORQ-rdej90lja8f3iuuTw07hN28FkaZdDVxFliOgwFbBPjxXJbPFBtQlNvYi4_bl7gLOcZvRmo66iepirB_qy9NUtR5CNwoC1b3y4ox364OriNlDlUfZRA01rtvu0CEpCq_GC0]--></g></svg>