<svg xmlns="http://www.w3.org/2000/svg" xmlns:xlink="http://www.w3.org/1999/xlink" contentStyleType="text/css" data-diagram-type="CLASS" height="791px" preserveAspectRatio="none" style="width:731px;height:791px;background:#FFFFFF;" version="1.1" viewBox="0 0 731 791" width="731px" zoomAndPan="magnify"><defs><filter height="300%" id="fulz1q3uykp00" width="300%" x="-1" y="-1"><feGaussianBlur result="blurOut" stdDeviation="2"/><feColorMatrix in="blurOut" result="blurOut2" type="matrix" values="0 0 0 0 0 0 0 0 0 0 0 0 0 0 0 0 0 0 .4 0"/><feOffset dx="4" dy="4" in="blurOut2" result="blurOut3"/><feBlend in="SourceGraphic" in2="blurOut3" mode="normal"/></filter></defs><g><!--cluster lld--><g class="cluster" data-entity="lld" data-source-line="1" data-uid="ent0003" id="cluster_lld"><path d="M8.5,6.0137 L25.8311,6.0137 A3.75,3.75 0 0 1 28.3311,8.5137 L35.3311,30.6348 L721.5,30.6348 A2.5,2.5 0 0 1 724,33.1348 L724,781.5137 A2.5,2.5 0 0 1 721.5,784.0137 L8.5,784.0137 A2.5,2.5 0 0 1 6,781.5137 L6,8.5137 A2.5,2.5 0 0 1 8.5,6.0137" fill="none" filter="url(#fulz1q3uykp00)" style="stroke:#000000;stroke-width:1.5;"/><line style="stroke:#000000;stroke-width:1.5;" x1="6" x2="35.3311" y1="30.6348" y2="30.6348"/><text fill="#000000" font-family="sans-serif" font-size="14" font-weight="bold" lengthAdjust="spacing" textLength="16.3311" x="10" y="23.1211">lld</text></g><!--cluster elevatorcontroller--><g class="cluster" data-entity="elevatorcontroller" data-source-line="1" data-uid="ent0004" id="cluster_elevatorcontroller"><path d="M32.5,51.0137 L151.7617,51.0137 A3.75,3.75 0 0 1 154.2617,53.5137 L161.2617,75.6348 L697.5,75.6348 A2.5,2.5 0 0 1 700,78.1348 L700,757.5137 A2.5,2.5 0 0 1 697.5,760.0137 L32.5,760.0137 A2.5,2.5 0 0 1 30,757.5137 L30,53.5137 A2.5,2.5 0 0 1 32.5,51.0137" fill="none" filter="url(#fulz1q3uykp00)" style="stroke:#000000;stroke-width:1.5;"/><line style="stroke:#000000;stroke-width:1.5;" x1="30" x2="161.2617" y1="75.6348" y2="75.6348"/><text fill="#000000" font-family="sans-serif" font-size="14" font-weight="bold" lengthAdjust="spacing" textLength="118.2617" x="34" y="68.1211">elevatorcontroller</text></g><!--class ElevatorRequest--><g class="entity" data-entity="ElevatorRequest" data-source-line="1" data-uid="ent0002" id="entity_ElevatorRequest"><rect fill="#F1F1F1" filter="url(#fulz1q3uykp00)" height="122.4844" rx="2.5" ry="2.5" style="stroke:#181818;stroke-width:0.5;" width="157.4961" x="46.5" y="373.5137"/><ellipse cx="71.3969" cy="389.5137" fill="#ADD1B2" rx="11" ry="11" style="stroke:#181818;stroke-width:1;"/><path d="M74.1625,385.3887 Q74.3188,385.1699 74.5063,385.0605 Q74.6938,384.9512 74.9125,384.9512 Q75.2875,384.9512 75.5219,385.2168 Q75.7563,385.4668 75.7563,386.0762 L75.7563,387.5293 Q75.7563,388.1387 75.5219,388.4043 Q75.2875,388.6699 74.9125,388.6699 Q74.5688,388.6699 74.3657,388.4668 Q74.1625,388.2793 74.0532,387.7637 Q74.0063,387.4043 73.8188,387.2168 Q73.4907,386.8418 72.8813,386.623 Q72.2719,386.4043 71.6469,386.4043 Q70.8813,386.4043 70.2407,386.7324 Q69.6157,387.0605 69.1157,387.8105 Q68.6313,388.5605 68.6313,389.5918 L68.6313,390.6855 Q68.6313,391.9199 69.5219,392.748 Q70.4125,393.5605 72.0063,393.5605 Q72.9438,393.5605 73.6,393.3105 Q73.9907,393.1543 74.4125,392.7168 Q74.6782,392.4512 74.8188,392.373 Q74.975,392.2949 75.1782,392.2949 Q75.5063,392.2949 75.7563,392.5605 Q76.0219,392.8105 76.0219,393.1543 Q76.0219,393.498 75.6782,393.9043 Q75.1782,394.4824 74.3813,394.8105 Q73.3032,395.2637 72.0063,395.2637 Q70.4907,395.2637 69.2875,394.6387 Q68.3032,394.1387 67.6157,393.0762 Q66.9282,391.998 66.9282,390.7168 L66.9282,389.5605 Q66.9282,388.2324 67.5375,387.0918 Q68.1625,385.9355 69.2563,385.3262 Q70.35,384.7012 71.5844,384.7012 Q72.3188,384.7012 72.9594,384.873 Q73.6157,385.0293 74.1625,385.3887 Z " fill="#000000"/><text fill="#000000" font-family="sans-serif" font-size="14" lengthAdjust="spacing" textLength="103.5029" x="87.5962" y="395.3105">ElevatorRequest</text><line style="stroke:#181818;stroke-width:0.5;" x1="47.5" x2="202.9961" y1="405.5137" y2="405.5137"/><rect fill="none" height="6" style="stroke:#C82930;stroke-width:1;" width="6" x="54.5" y="417.3242"/><text fill="#000000" font-family="sans-serif" font-size="14" lengthAdjust="spacing" textLength="80.1582" x="66.5" y="424.6211">int elevatorId</text><rect fill="none" height="6" style="stroke:#C82930;stroke-width:1;" width="6" x="54.5" y="435.9453"/><text fill="#000000" font-family="sans-serif" font-size="14" lengthAdjust="spacing" textLength="98.0479" x="66.5" y="443.2422">int targetFloorId</text><line style="stroke:#181818;stroke-width:0.5;" x1="47.5" x2="202.9961" y1="450.7559" y2="450.7559"/><ellipse cx="57.5" cy="465.5664" fill="#84BE84" rx="3" ry="3" style="stroke:#038048;stroke-width:1;"/><text fill="#000000" font-family="sans-serif" font-size="14" lengthAdjust="spacing" textLength="110.4961" x="66.5" y="469.8633">int getElevatorId()</text><ellipse cx="57.5" cy="484.1875" fill="#84BE84" rx="3" ry="3" style="stroke:#038048;stroke-width:1;"/><text fill="#000000" font-family="sans-serif" font-size="14" lengthAdjust="spacing" textLength="131.4961" x="66.5" y="488.4844">int getTargetFloorId()</text></g><!--class ElevatorController--><g class="entity" data-entity="ElevatorController" data-source-line="9" data-uid="ent0005" id="entity_ElevatorController"><rect fill="#F1F1F1" filter="url(#fulz1q3uykp00)" height="141.1055" rx="2.5" ry="2.5" style="stroke:#181818;stroke-width:0.5;" width="266.4336" x="190" y="88.0137"/><ellipse cx="262.9429" cy="104.0137" fill="#ADD1B2" rx="11" ry="11" style="stroke:#181818;stroke-width:1;"/><path d="M265.7085,99.8887 Q265.8647,99.6699 266.0522,99.5605 Q266.2397,99.4512 266.4585,99.4512 Q266.8335,99.4512 267.0679,99.7168 Q267.3022,99.9668 267.3022,100.5762 L267.3022,102.0293 Q267.3022,102.6387 267.0679,102.9043 Q266.8335,103.1699 266.4585,103.1699 Q266.1147,103.1699 265.9116,102.9668 Q265.7085,102.7793 265.5991,102.2637 Q265.5522,101.9043 265.3647,101.7168 Q265.0366,101.3418 264.4272,101.123 Q263.8179,100.9043 263.1929,100.9043 Q262.4272,100.9043 261.7866,101.2324 Q261.1616,101.5605 260.6616,102.3105 Q260.1772,103.0605 260.1772,104.0918 L260.1772,105.1855 Q260.1772,106.4199 261.0679,107.248 Q261.9585,108.0605 263.5522,108.0605 Q264.4897,108.0605 265.146,107.8105 Q265.5366,107.6543 265.9585,107.2168 Q266.2241,106.9512 266.3647,106.873 Q266.521,106.7949 266.7241,106.7949 Q267.0522,106.7949 267.3022,107.0605 Q267.5679,107.3105 267.5679,107.6543 Q267.5679,107.998 267.2241,108.4043 Q266.7241,108.9824 265.9272,109.3105 Q264.8491,109.7637 263.5522,109.7637 Q262.0366,109.7637 260.8335,109.1387 Q259.8491,108.6387 259.1616,107.5762 Q258.4741,106.498 258.4741,105.2168 L258.4741,104.0605 Q258.4741,102.7324 259.0835,101.5918 Q259.7085,100.4355 260.8022,99.8262 Q261.896,99.2012 263.1304,99.2012 Q263.8647,99.2012 264.5054,99.373 Q265.1616,99.5293 265.7085,99.8887 Z " fill="#000000"/><text fill="#000000" font-family="sans-serif" font-size="14" lengthAdjust="spacing" textLength="112.0479" x="283.4429" y="109.8105">ElevatorController</text><line style="stroke:#181818;stroke-width:0.5;" x1="191" x2="455.4336" y1="120.0137" y2="120.0137"/><rect fill="none" height="6" style="stroke:#C82930;stroke-width:1;" width="6" x="198" y="131.8242"/><text fill="#000000" font-family="sans-serif" font-size="14" lengthAdjust="spacing" textLength="150.1924" x="210" y="139.1211">List&lt;Elevator&gt; elevators</text><line style="stroke:#181818;stroke-width:0.5;" x1="191" x2="455.4336" y1="146.6348" y2="146.6348"/><ellipse cx="201" cy="161.4453" fill="#84BE84" rx="3" ry="3" style="stroke:#038048;stroke-width:1;"/><text fill="#000000" font-family="sans-serif" font-size="14" lengthAdjust="spacing" textLength="210.8682" x="210" y="165.7422">void requestElevator(int,Direction)</text><ellipse cx="201" cy="180.0664" fill="#84BE84" rx="3" ry="3" style="stroke:#038048;stroke-width:1;"/><text fill="#000000" font-family="sans-serif" font-size="14" lengthAdjust="spacing" textLength="150.9512" x="210" y="184.3633">void requestFloor(int,int)</text><rect fill="#F24D5C" height="6" style="stroke:#C82930;stroke-width:1;" width="6" x="198" y="195.6875"/><text fill="#000000" font-family="sans-serif" font-size="14" lengthAdjust="spacing" textLength="240.4336" x="210" y="202.9844">Elevator findBestElevator(int,Direction)</text><ellipse cx="201" cy="217.3086" fill="#84BE84" rx="3" ry="3" style="stroke:#038048;stroke-width:1;"/><text fill="#000000" font-family="sans-serif" font-size="14" lengthAdjust="spacing" textLength="156.3857" x="210" y="221.6055">void simulateMovement()</text></g><!--class FloorRequest--><g class="entity" data-entity="FloorRequest" data-source-line="18" data-uid="ent0006" id="entity_FloorRequest"><rect fill="#F1F1F1" filter="url(#fulz1q3uykp00)" height="122.4844" rx="2.5" ry="2.5" style="stroke:#181818;stroke-width:0.5;" width="169.1582" x="238.5" y="373.5137"/><ellipse cx="277.4027" cy="389.5137" fill="#ADD1B2" rx="11" ry="11" style="stroke:#181818;stroke-width:1;"/><path d="M280.1684,385.3887 Q280.3246,385.1699 280.5121,385.0605 Q280.6996,384.9512 280.9184,384.9512 Q281.2934,384.9512 281.5277,385.2168 Q281.7621,385.4668 281.7621,386.0762 L281.7621,387.5293 Q281.7621,388.1387 281.5277,388.4043 Q281.2934,388.6699 280.9184,388.6699 Q280.5746,388.6699 280.3715,388.4668 Q280.1684,388.2793 280.059,387.7637 Q280.0121,387.4043 279.8246,387.2168 Q279.4965,386.8418 278.8871,386.623 Q278.2777,386.4043 277.6527,386.4043 Q276.8871,386.4043 276.2465,386.7324 Q275.6215,387.0605 275.1215,387.8105 Q274.6371,388.5605 274.6371,389.5918 L274.6371,390.6855 Q274.6371,391.9199 275.5277,392.748 Q276.4184,393.5605 278.0121,393.5605 Q278.9496,393.5605 279.6059,393.3105 Q279.9965,393.1543 280.4184,392.7168 Q280.684,392.4512 280.8246,392.373 Q280.9809,392.2949 281.184,392.2949 Q281.5121,392.2949 281.7621,392.5605 Q282.0277,392.8105 282.0277,393.1543 Q282.0277,393.498 281.684,393.9043 Q281.184,394.4824 280.3871,394.8105 Q279.309,395.2637 278.0121,395.2637 Q276.4965,395.2637 275.2934,394.6387 Q274.309,394.1387 273.6215,393.0762 Q272.934,391.998 272.934,390.7168 L272.934,389.5605 Q272.934,388.2324 273.5434,387.0918 Q274.1684,385.9355 275.2621,385.3262 Q276.3559,384.7012 277.5902,384.7012 Q278.3246,384.7012 278.9652,384.873 Q279.6215,385.0293 280.1684,385.3887 Z " fill="#000000"/><text fill="#000000" font-family="sans-serif" font-size="14" lengthAdjust="spacing" textLength="84.041" x="296.7145" y="395.3105">FloorRequest</text><line style="stroke:#181818;stroke-width:0.5;" x1="239.5" x2="406.6582" y1="405.5137" y2="405.5137"/><rect fill="none" height="6" style="stroke:#C82930;stroke-width:1;" width="6" x="246.5" y="417.3242"/><text fill="#000000" font-family="sans-serif" font-size="14" lengthAdjust="spacing" textLength="57.5859" x="258.5" y="424.6211">int floorId</text><rect fill="none" height="6" style="stroke:#C82930;stroke-width:1;" width="6" x="246.5" y="435.9453"/><text fill="#000000" font-family="sans-serif" font-size="14" lengthAdjust="spacing" textLength="112.0479" x="258.5" y="443.2422">Direction direction</text><line style="stroke:#181818;stroke-width:0.5;" x1="239.5" x2="406.6582" y1="450.7559" y2="450.7559"/><ellipse cx="249.5" cy="465.5664" fill="#84BE84" rx="3" ry="3" style="stroke:#038048;stroke-width:1;"/><text fill="#000000" font-family="sans-serif" font-size="14" lengthAdjust="spacing" textLength="91.0342" x="258.5" y="469.8633">int getFloorId()</text><ellipse cx="249.5" cy="484.1875" fill="#84BE84" rx="3" ry="3" style="stroke:#038048;stroke-width:1;"/><text fill="#000000" font-family="sans-serif" font-size="14" lengthAdjust="spacing" textLength="143.1582" x="258.5" y="488.4844">Direction getDirection()</text></g><!--class ElevatorStatus--><g class="entity" data-entity="ElevatorStatus" data-source-line="26" data-uid="ent0007" id="entity_ElevatorStatus"><rect fill="#F1F1F1" filter="url(#fulz1q3uykp00)" height="103.8633" rx="2.5" ry="2.5" style="stroke:#181818;stroke-width:0.5;" width="127.8965" x="493" y="640.0137"/><ellipse cx="510.1819" cy="656.0137" fill="#EB937F" rx="11" ry="11" style="stroke:#181818;stroke-width:1;"/><path d="M509.0413,656.8105 L509.0413,659.3105 L513.3694,659.3105 L513.3694,658.3887 Q513.3694,657.7793 513.6038,657.5137 Q513.8538,657.248 514.2288,657.248 Q514.6038,657.248 514.8381,657.5137 Q515.0725,657.7793 515.0725,658.3887 L515.0725,661.0137 L507.0725,661.0137 Q506.4475,661.0137 506.1819,660.7793 Q505.9319,660.5449 505.9319,660.1543 Q505.9319,659.7793 506.1975,659.5449 Q506.4631,659.3105 507.0725,659.3105 L507.3381,659.3105 L507.3381,652.6543 L507.0725,652.6543 Q506.4475,652.6543 506.1819,652.4199 Q505.9319,652.1855 505.9319,651.7949 Q505.9319,651.4199 506.1819,651.1855 Q506.4475,650.9512 507.0725,650.9512 L514.6975,650.9512 L514.6975,653.5449 Q514.6975,654.1543 514.4631,654.4199 Q514.2444,654.6699 513.8538,654.6699 Q513.4788,654.6699 513.2444,654.4199 Q513.01,654.1543 513.01,653.5449 L513.01,652.6543 L509.0413,652.6543 L509.0413,655.1074 L510.5256,655.1074 Q510.5256,654.4512 510.6506,654.2637 Q510.9163,653.8574 511.385,653.8574 Q511.76,653.8574 511.9944,654.123 Q512.2288,654.373 512.2288,654.9824 L512.2288,656.9512 Q512.2288,657.498 512.1038,657.6855 Q511.8381,658.0762 511.385,658.0762 Q510.9163,658.0762 510.6506,657.6699 Q510.5256,657.4824 510.5256,656.8105 L509.0413,656.8105 Z " fill="#000000"/><text fill="#000000" font-family="sans-serif" font-size="14" lengthAdjust="spacing" textLength="91.0479" x="524.6667" y="661.8105">ElevatorStatus</text><line style="stroke:#181818;stroke-width:0.5;" x1="494" x2="619.8965" y1="672.0137" y2="672.0137"/><ellipse cx="504" cy="686.8242" fill="none" rx="3" ry="3" style="stroke:#038048;stroke-width:1;"/><text fill="#000000" font-family="sans-serif" font-size="14" lengthAdjust="spacing" textLength="56.7793" x="513" y="691.1211">MOVING</text><ellipse cx="504" cy="705.4453" fill="none" rx="3" ry="3" style="stroke:#038048;stroke-width:1;"/><text fill="#000000" font-family="sans-serif" font-size="14" lengthAdjust="spacing" textLength="66.9033" x="513" y="709.7422">STOPPED</text><ellipse cx="504" cy="724.0664" fill="none" rx="3" ry="3" style="stroke:#038048;stroke-width:1;"/><text fill="#000000" font-family="sans-serif" font-size="14" lengthAdjust="spacing" textLength="101.8965" x="513" y="728.3633">MAINTENANCE</text><line style="stroke:#181818;stroke-width:0.5;" x1="494" x2="619.8965" y1="735.877" y2="735.877"/></g><!--class Elevator--><g class="entity" data-entity="Elevator" data-source-line="32" data-uid="ent0008" id="entity_Elevator"><rect fill="#F1F1F1" filter="url(#fulz1q3uykp00)" height="252.832" rx="2.5" ry="2.5" style="stroke:#181818;stroke-width:0.5;" width="240.7715" x="442.5" y="308.0137"/><ellipse cx="532.9565" cy="324.0137" fill="#ADD1B2" rx="11" ry="11" style="stroke:#181818;stroke-width:1;"/><path d="M535.7222,319.8887 Q535.8784,319.6699 536.0659,319.5605 Q536.2534,319.4512 536.4722,319.4512 Q536.8472,319.4512 537.0815,319.7168 Q537.3159,319.9668 537.3159,320.5762 L537.3159,322.0293 Q537.3159,322.6387 537.0815,322.9043 Q536.8472,323.1699 536.4722,323.1699 Q536.1284,323.1699 535.9253,322.9668 Q535.7222,322.7793 535.6128,322.2637 Q535.5659,321.9043 535.3784,321.7168 Q535.0503,321.3418 534.4409,321.123 Q533.8315,320.9043 533.2065,320.9043 Q532.4409,320.9043 531.8003,321.2324 Q531.1753,321.5605 530.6753,322.3105 Q530.1909,323.0605 530.1909,324.0918 L530.1909,325.1855 Q530.1909,326.4199 531.0815,327.248 Q531.9722,328.0605 533.5659,328.0605 Q534.5034,328.0605 535.1597,327.8105 Q535.5503,327.6543 535.9722,327.2168 Q536.2378,326.9512 536.3784,326.873 Q536.5347,326.7949 536.7378,326.7949 Q537.0659,326.7949 537.3159,327.0605 Q537.5815,327.3105 537.5815,327.6543 Q537.5815,327.998 537.2378,328.4043 Q536.7378,328.9824 535.9409,329.3105 Q534.8628,329.7637 533.5659,329.7637 Q532.0503,329.7637 530.8472,329.1387 Q529.8628,328.6387 529.1753,327.5762 Q528.4878,326.498 528.4878,325.2168 L528.4878,324.0605 Q528.4878,322.7324 529.0972,321.5918 Q529.7222,320.4355 530.8159,319.8262 Q531.9097,319.2012 533.144,319.2012 Q533.8784,319.2012 534.519,319.373 Q535.1753,319.5293 535.7222,319.8887 Z " fill="#000000"/><text fill="#000000" font-family="sans-serif" font-size="14" lengthAdjust="spacing" textLength="51.3584" x="553.4565" y="329.8105">Elevator</text><line style="stroke:#181818;stroke-width:0.5;" x1="443.5" x2="682.2715" y1="340.0137" y2="340.0137"/><rect fill="none" height="6" style="stroke:#C82930;stroke-width:1;" width="6" x="450.5" y="351.8242"/><text fill="#000000" font-family="sans-serif" font-size="14" lengthAdjust="spacing" textLength="80.1582" x="462.5" y="359.1211">int elevatorId</text><rect fill="none" height="6" style="stroke:#C82930;stroke-width:1;" width="6" x="450.5" y="370.4453"/><text fill="#000000" font-family="sans-serif" font-size="14" lengthAdjust="spacing" textLength="105.8203" x="462.5" y="377.7422">int currentFloorId</text><rect fill="none" height="6" style="stroke:#C82930;stroke-width:1;" width="6" x="450.5" y="389.0664"/><text fill="#000000" font-family="sans-serif" font-size="14" lengthAdjust="spacing" textLength="112.0479" x="462.5" y="396.3633">Direction direction</text><rect fill="none" height="6" style="stroke:#C82930;stroke-width:1;" width="6" x="450.5" y="407.6875"/><text fill="#000000" font-family="sans-serif" font-size="14" lengthAdjust="spacing" textLength="184.4336" x="462.5" y="414.9844">ElevatorStatus elevatorStatus</text><rect fill="none" height="6" style="stroke:#C82930;stroke-width:1;" width="6" x="450.5" y="426.3086"/><text fill="#000000" font-family="sans-serif" font-size="14" lengthAdjust="spacing" textLength="191.4609" x="462.5" y="433.6055">Set&lt;Integer&gt; stopRequestsSet</text><line style="stroke:#181818;stroke-width:0.5;" x1="443.5" x2="682.2715" y1="441.1191" y2="441.1191"/><ellipse cx="453.5" cy="455.9297" fill="#84BE84" rx="3" ry="3" style="stroke:#038048;stroke-width:1;"/><text fill="#000000" font-family="sans-serif" font-size="14" lengthAdjust="spacing" textLength="110.4961" x="462.5" y="460.2266">int getElevatorId()</text><ellipse cx="453.5" cy="474.5508" fill="#84BE84" rx="3" ry="3" style="stroke:#038048;stroke-width:1;"/><text fill="#000000" font-family="sans-serif" font-size="14" lengthAdjust="spacing" textLength="137.7168" x="462.5" y="478.8477">int getCurrentFloorId()</text><ellipse cx="453.5" cy="493.1719" fill="#84BE84" rx="3" ry="3" style="stroke:#038048;stroke-width:1;"/><text fill="#000000" font-family="sans-serif" font-size="14" lengthAdjust="spacing" textLength="143.1582" x="462.5" y="497.4688">Direction getDirection()</text><ellipse cx="453.5" cy="511.793" fill="#84BE84" rx="3" ry="3" style="stroke:#038048;stroke-width:1;"/><text fill="#000000" font-family="sans-serif" font-size="14" lengthAdjust="spacing" textLength="214.7715" x="462.5" y="516.0898">ElevatorStatus getElevatorStatus()</text><ellipse cx="453.5" cy="530.4141" fill="#84BE84" rx="3" ry="3" style="stroke:#038048;stroke-width:1;"/><text fill="#000000" font-family="sans-serif" font-size="14" lengthAdjust="spacing" textLength="105.8408" x="462.5" y="534.7109">void addStop(int)</text><ellipse cx="453.5" cy="549.0352" fill="#84BE84" rx="3" ry="3" style="stroke:#038048;stroke-width:1;"/><text fill="#000000" font-family="sans-serif" font-size="14" lengthAdjust="spacing" textLength="73.1309" x="462.5" y="553.332">void move()</text></g><!--class Direction--><g class="entity" data-entity="Direction" data-source-line="47" data-uid="ent0009" id="entity_Direction"><rect fill="#F1F1F1" filter="url(#fulz1q3uykp00)" height="103.8633" rx="2.5" ry="2.5" style="stroke:#181818;stroke-width:0.5;" width="87.2412" x="228.5" y="640.0137"/><ellipse cx="243.5" cy="656.0137" fill="#EB937F" rx="11" ry="11" style="stroke:#181818;stroke-width:1;"/><path d="M242.3594,656.8105 L242.3594,659.3105 L246.6875,659.3105 L246.6875,658.3887 Q246.6875,657.7793 246.9219,657.5137 Q247.1719,657.248 247.5469,657.248 Q247.9219,657.248 248.1563,657.5137 Q248.3906,657.7793 248.3906,658.3887 L248.3906,661.0137 L240.3906,661.0137 Q239.7656,661.0137 239.5,660.7793 Q239.25,660.5449 239.25,660.1543 Q239.25,659.7793 239.5156,659.5449 Q239.7813,659.3105 240.3906,659.3105 L240.6563,659.3105 L240.6563,652.6543 L240.3906,652.6543 Q239.7656,652.6543 239.5,652.4199 Q239.25,652.1855 239.25,651.7949 Q239.25,651.4199 239.5,651.1855 Q239.7656,650.9512 240.3906,650.9512 L248.0156,650.9512 L248.0156,653.5449 Q248.0156,654.1543 247.7813,654.4199 Q247.5625,654.6699 247.1719,654.6699 Q246.7969,654.6699 246.5625,654.4199 Q246.3281,654.1543 246.3281,653.5449 L246.3281,652.6543 L242.3594,652.6543 L242.3594,655.1074 L243.8438,655.1074 Q243.8438,654.4512 243.9688,654.2637 Q244.2344,653.8574 244.7031,653.8574 Q245.0781,653.8574 245.3125,654.123 Q245.5469,654.373 245.5469,654.9824 L245.5469,656.9512 Q245.5469,657.498 245.4219,657.6855 Q245.1563,658.0762 244.7031,658.0762 Q244.2344,658.0762 243.9688,657.6699 Q243.8438,657.4824 243.8438,656.8105 L242.3594,656.8105 Z " fill="#000000"/><text fill="#000000" font-family="sans-serif" font-size="14" lengthAdjust="spacing" textLength="55.2412" x="257.5" y="661.8105">Direction</text><line style="stroke:#181818;stroke-width:0.5;" x1="229.5" x2="314.7412" y1="672.0137" y2="672.0137"/><ellipse cx="239.5" cy="686.8242" fill="none" rx="3" ry="3" style="stroke:#038048;stroke-width:1;"/><text fill="#000000" font-family="sans-serif" font-size="14" lengthAdjust="spacing" textLength="19.4482" x="248.5" y="691.1211">UP</text><ellipse cx="239.5" cy="705.4453" fill="none" rx="3" ry="3" style="stroke:#038048;stroke-width:1;"/><text fill="#000000" font-family="sans-serif" font-size="14" lengthAdjust="spacing" textLength="44.3242" x="248.5" y="709.7422">DOWN</text><ellipse cx="239.5" cy="724.0664" fill="none" rx="3" ry="3" style="stroke:#038048;stroke-width:1;"/><text fill="#000000" font-family="sans-serif" font-size="14" lengthAdjust="spacing" textLength="31.124" x="248.5" y="728.3633">IDLE</text><line style="stroke:#181818;stroke-width:0.5;" x1="229.5" x2="314.7412" y1="735.877" y2="735.877"/></g><!--reverse link ElevatorController to Elevator--><g class="link" data-entity-1="ElevatorController" data-entity-2="Elevator" data-source-line="62" data-uid="lnk10" id="link_ElevatorController_Elevator"><path codeLine="62" d="M392.0869,238.3904 C413.0569,262.3304 429.31,280.8837 452.94,307.8637" fill="none" id="ElevatorController-backto-Elevator" style="stroke:#181818;stroke-width:1;"/><polygon fill="none" points="384.18,229.3637,385.1245,236.5126,392.0869,238.3904,391.1423,231.2414,384.18,229.3637" style="stroke:#181818;stroke-width:1;"/><text fill="#000000" font-family="sans-serif" font-size="13" lengthAdjust="spacing" textLength="53.479" x="422" y="274.042">manages</text><text fill="#000000" font-family="sans-serif" font-size="13" lengthAdjust="spacing" textLength="7.23" x="382.8479" y="251.2121">1</text><text fill="#000000" font-family="sans-serif" font-size="13" lengthAdjust="spacing" textLength="31.7891" x="414.3197" y="296.6703">many</text></g><!--link ElevatorController to ElevatorRequest--><g class="link" data-entity-1="ElevatorController" data-entity-2="ElevatorRequest" data-source-line="65" data-uid="lnk11" id="link_ElevatorController_ElevatorRequest"><path codeLine="65" d="M272.52,229.3637 C240.44,273.7637 202.8444,325.7906 172.1744,368.2306" fill="none" id="ElevatorController-to-ElevatorRequest" style="stroke:#181818;stroke-width:1;stroke-dasharray:7,7;"/><polygon fill="#181818" points="168.66,373.0937,177.1736,368.142,171.5886,369.0411,170.6895,363.4562,168.66,373.0937" style="stroke:#181818;stroke-width:1;"/><text fill="#000000" font-family="sans-serif" font-size="13" lengthAdjust="spacing" textLength="45.5381" x="248" y="274.042">handles</text></g><!--link ElevatorController to FloorRequest--><g class="link" data-entity-1="ElevatorController" data-entity-2="FloorRequest" data-source-line="66" data-uid="lnk12" id="link_ElevatorController_FloorRequest"><path codeLine="66" d="M323,229.3637 C323,273.7637 323,324.6537 323,367.0937" fill="none" id="ElevatorController-to-FloorRequest" style="stroke:#181818;stroke-width:1;stroke-dasharray:7,7;"/><polygon fill="#181818" points="323,373.0937,327,364.0937,323,368.0937,319,364.0937,323,373.0937" style="stroke:#181818;stroke-width:1;"/><text fill="#000000" font-family="sans-serif" font-size="13" lengthAdjust="spacing" textLength="45.5381" x="324" y="274.042">handles</text></g><!--link Elevator to Direction--><g class="link" data-entity-1="Elevator" data-entity-2="Direction" data-source-line="69" data-uid="lnk13" id="link_Elevator_Direction"><path codeLine="69" d="M442.42,545.6037 C436.54,550.8337 430.72,555.9937 425,561.0137 C388.48,593.1137 350.9251,624.9756 320.1251,650.8356" fill="none" id="Elevator-to-Direction" style="stroke:#181818;stroke-width:1;"/><polygon fill="#181818" points="315.53,654.6937,324.9947,651.9699,319.3593,651.4786,319.8506,645.8431,315.53,654.6937" style="stroke:#181818;stroke-width:1;"/><text fill="#000000" font-family="sans-serif" font-size="13" lengthAdjust="spacing" textLength="140.1689" x="388" y="606.042">uses as currentDirection</text></g><!--link Elevator to ElevatorStatus--><g class="link" data-entity-1="Elevator" data-entity-2="ElevatorStatus" data-source-line="70" data-uid="lnk14" id="link_Elevator_ElevatorStatus"><path codeLine="70" d="M560.05,561.0137 C559.4,588.9037 558.8818,610.9453 558.3418,633.7953" fill="none" id="Elevator-to-ElevatorStatus" style="stroke:#181818;stroke-width:1;"/><polygon fill="#181818" points="558.2,639.7937,562.4115,630.8907,558.3181,634.7951,554.4137,630.7017,558.2,639.7937" style="stroke:#181818;stroke-width:1;"/><text fill="#000000" font-family="sans-serif" font-size="13" lengthAdjust="spacing" textLength="125.728" x="560" y="606.042">uses as currentStatus</text></g><!--link FloorRequest to Direction--><g class="link" data-entity-1="FloorRequest" data-entity-2="Direction" data-source-line="71" data-uid="lnk15" id="link_FloorRequest_Direction"><path codeLine="71" d="M281.81,495.6337 C264.69,517.8937 243.56,542.2537 221,561.0137 C199.59,578.8237 180.21,567.0737 166,591.0137 C145.6,625.3837 185.3367,652.8359 222.9067,670.7959" fill="none" id="FloorRequest-to-Direction" style="stroke:#181818;stroke-width:1;"/><polygon fill="#181818" points="228.32,673.3837,221.9253,665.8932,223.8089,671.2272,218.4749,673.1109,228.32,673.3837" style="stroke:#181818;stroke-width:1;"/><text fill="#000000" font-family="sans-serif" font-size="13" lengthAdjust="spacing" textLength="164.0425" x="167" y="606.042">uses as destination direction</text></g><!--SRC=[ZLHDRzf04BtxLuou0A96xQMLQ8H4mQaiXG_5j3rll0EiOk_ItJLHMlM_PxpnTqFW0DXlPcVUldb3d31Z84du61CyCQjqhAJLAabGZuC2kiVV6HeBVpqVXBHGfeQy02pJUxItYNBOo64415NUO5YZssOo1VvvdXTVGsDUGOx9dJ3sfenDArA6EfsKuA1VMPSP0sh_OI4qnbOeEUnaEJekXJv3gbuUWvsG_DlbEaQaMS8iBjK9KvJscekvfbrnTuMAFbHDW9TFjOgrVgD68WMgbu81oYozf6nacSqCKHW1BDS_mzNt_2dQhZUROE70MRZQ1glPQXxaHQyQrtcxn9dM9D7jkpUjHr2mmzOhnIEqDw6qk4SQlx7gM4XfA739XFCMXVTL77MPDAg-8eFA1eppY9WCd8iAB2LBN36Ckh-RmuzD_hrO_rhbl-7YpYdVdscjdWmmoU4UoN2KRmxYQ3pFF0fvP9gb81L7WqVu_F5h0zLCFkRebnPg3eoh9o7ti6E9mMOeLLB51wrI1AkpLiWPO6Qj5W-PnP1k4Oa_25JPwyEI2KbxLPC37ngxcpB9zcWgKOttneBtFlL0-JxqAFkvLs_Zf3oUDohd3KmZ74YI13ayF3UQlLLwF9v2zvzjKXmtvmwqLhNEzlf1Fj7CE4eLIz-VDkmqeJZTbvdI-5MeVQBZil-E5SPlKJdNYGnWXMITdNe1]--></g></svg>