<svg xmlns="http://www.w3.org/2000/svg" xmlns:xlink="http://www.w3.org/1999/xlink" contentStyleType="text/css" data-diagram-type="CLASS" height="1108px" preserveAspectRatio="none" style="width:1299px;height:1108px;background:#FFFFFF;" version="1.1" viewBox="0 0 1299 1108" width="1299px" zoomAndPan="magnify"><defs><filter height="300%" id="f343adnf09icv" width="300%" x="-1" y="-1"><feGaussianBlur result="blurOut" stdDeviation="2"/><feColorMatrix in="blurOut" result="blurOut2" type="matrix" values="0 0 0 0 0 0 0 0 0 0 0 0 0 0 0 0 0 0 .4 0"/><feOffset dx="4" dy="4" in="blurOut2" result="blurOut3"/><feBlend in="SourceGraphic" in2="blurOut3" mode="normal"/></filter></defs><g><!--cluster lld--><g class="cluster" data-entity="lld" data-source-line="1" data-uid="ent0003" id="cluster_lld"><path d="M8.5,6.0137 L25.8311,6.0137 A3.75,3.75 0 0 1 28.3311,8.5137 L35.3311,30.6348 L1138.5,30.6348 A2.5,2.5 0 0 1 1141,33.1348 L1141,1098.5137 A2.5,2.5 0 0 1 1138.5,1101.0137 L8.5,1101.0137 A2.5,2.5 0 0 1 6,1098.5137 L6,8.5137 A2.5,2.5 0 0 1 8.5,6.0137" fill="none" filter="url(#f343adnf09icv)" style="stroke:#000000;stroke-width:1.5;"/><line style="stroke:#000000;stroke-width:1.5;" x1="6" x2="35.3311" y1="30.6348" y2="30.6348"/><text fill="#000000" font-family="sans-serif" font-size="14" font-weight="bold" lengthAdjust="spacing" textLength="16.3311" x="10" y="23.1211">lld</text></g><!--cluster atm--><g class="cluster" data-entity="atm" data-source-line="1" data-uid="ent0004" id="cluster_atm"><path d="M32.5,51.0137 L58.3965,51.0137 A3.75,3.75 0 0 1 60.8965,53.5137 L67.8965,75.6348 L1114.5,75.6348 A2.5,2.5 0 0 1 1117,78.1348 L1117,1074.5137 A2.5,2.5 0 0 1 1114.5,1077.0137 L32.5,1077.0137 A2.5,2.5 0 0 1 30,1074.5137 L30,53.5137 A2.5,2.5 0 0 1 32.5,51.0137" fill="none" filter="url(#f343adnf09icv)" style="stroke:#000000;stroke-width:1.5;"/><line style="stroke:#000000;stroke-width:1.5;" x1="30" x2="67.8965" y1="75.6348" y2="75.6348"/><text fill="#000000" font-family="sans-serif" font-size="14" font-weight="bold" lengthAdjust="spacing" textLength="24.8965" x="34" y="68.1211">atm</text></g><!--class Transaction--><g class="entity" data-entity="Transaction" data-source-line="1" data-uid="ent0002" id="entity_Transaction"><rect fill="#F1F1F1" filter="url(#f343adnf09icv)" height="159.7266" rx="2.5" ry="2.5" style="stroke:#181818;stroke-width:0.5;" width="233.7646" x="46" y="597.0137"/><ellipse cx="122.0601" cy="613.0137" fill="#ADD1B2" rx="11" ry="11" style="stroke:#181818;stroke-width:1;"/><path d="M124.8257,608.8887 Q124.9819,608.6699 125.1694,608.5605 Q125.3569,608.4512 125.5757,608.4512 Q125.9507,608.4512 126.1851,608.7168 Q126.4194,608.9668 126.4194,609.5762 L126.4194,611.0293 Q126.4194,611.6387 126.1851,611.9043 Q125.9507,612.1699 125.5757,612.1699 Q125.2319,612.1699 125.0288,611.9668 Q124.8257,611.7793 124.7163,611.2637 Q124.6694,610.9043 124.4819,610.7168 Q124.1538,610.3418 123.5444,610.123 Q122.9351,609.9043 122.3101,609.9043 Q121.5444,609.9043 120.9038,610.2324 Q120.2788,610.5605 119.7788,611.3105 Q119.2944,612.0605 119.2944,613.0918 L119.2944,614.1855 Q119.2944,615.4199 120.1851,616.248 Q121.0757,617.0605 122.6694,617.0605 Q123.6069,617.0605 124.2632,616.8105 Q124.6538,616.6543 125.0757,616.2168 Q125.3413,615.9512 125.4819,615.873 Q125.6382,615.7949 125.8413,615.7949 Q126.1694,615.7949 126.4194,616.0605 Q126.6851,616.3105 126.6851,616.6543 Q126.6851,616.998 126.3413,617.4043 Q125.8413,617.9824 125.0444,618.3105 Q123.9663,618.7637 122.6694,618.7637 Q121.1538,618.7637 119.9507,618.1387 Q118.9663,617.6387 118.2788,616.5762 Q117.5913,615.498 117.5913,614.2168 L117.5913,613.0605 Q117.5913,611.7324 118.2007,610.5918 Q118.8257,609.4355 119.9194,608.8262 Q121.0132,608.2012 122.2476,608.2012 Q122.9819,608.2012 123.6226,608.373 Q124.2788,608.5293 124.8257,608.8887 Z " fill="#000000"/><text fill="#000000" font-family="sans-serif" font-size="14" lengthAdjust="spacing" textLength="73.1445" x="142.5601" y="618.8105">Transaction</text><line style="stroke:#181818;stroke-width:0.5;" x1="47" x2="278.7646" y1="629.0137" y2="629.0137"/><rect fill="none" height="6" style="stroke:#C82930;stroke-width:1;" width="6" x="54" y="640.8242"/><text fill="#000000" font-family="sans-serif" font-size="14" lengthAdjust="spacing" textLength="120.6201" x="66" y="648.1211">String transactionId</text><rect fill="none" height="6" style="stroke:#C82930;stroke-width:1;" width="6" x="54" y="659.4453"/><text fill="#000000" font-family="sans-serif" font-size="14" lengthAdjust="spacing" textLength="207.7646" x="66" y="666.7422">TransactionType transactionType</text><rect fill="none" height="6" style="stroke:#C82930;stroke-width:1;" width="6" x="54" y="678.0664"/><text fill="#000000" font-family="sans-serif" font-size="14" lengthAdjust="spacing" textLength="164.9512" x="66" y="685.3633">LocalDateTime timeStamp</text><rect fill="none" height="6" style="stroke:#C82930;stroke-width:1;" width="6" x="54" y="696.6875"/><text fill="#000000" font-family="sans-serif" font-size="14" lengthAdjust="spacing" textLength="92.627" x="66" y="703.9844">double amount</text><rect fill="none" height="6" style="stroke:#C82930;stroke-width:1;" width="6" x="54" y="715.3086"/><text fill="#000000" font-family="sans-serif" font-size="14" lengthAdjust="spacing" textLength="148.6475" x="66" y="722.6055">long transactionCounter</text><line style="stroke:#181818;stroke-width:0.5;" x1="47" x2="278.7646" y1="730.1191" y2="730.1191"/><ellipse cx="57" cy="744.9297" fill="#84BE84" rx="3" ry="3" style="stroke:#038048;stroke-width:1;"/><text fill="#000000" font-family="sans-serif" font-size="14" lengthAdjust="spacing" textLength="98.0342" x="66" y="749.2266">String toString()</text></g><!--class Account--><g class="entity" data-entity="Account" data-source-line="11" data-uid="ent0005" id="entity_Account"><rect fill="#F1F1F1" filter="url(#f343adnf09icv)" height="159.7266" rx="2.5" ry="2.5" style="stroke:#181818;stroke-width:0.5;" width="195.627" x="315" y="597.0137"/><ellipse cx="383.2705" cy="613.0137" fill="#ADD1B2" rx="11" ry="11" style="stroke:#181818;stroke-width:1;"/><path d="M386.0361,608.8887 Q386.1924,608.6699 386.3799,608.5605 Q386.5674,608.4512 386.7861,608.4512 Q387.1611,608.4512 387.3955,608.7168 Q387.6299,608.9668 387.6299,609.5762 L387.6299,611.0293 Q387.6299,611.6387 387.3955,611.9043 Q387.1611,612.1699 386.7861,612.1699 Q386.4424,612.1699 386.2393,611.9668 Q386.0361,611.7793 385.9268,611.2637 Q385.8799,610.9043 385.6924,610.7168 Q385.3643,610.3418 384.7549,610.123 Q384.1455,609.9043 383.5205,609.9043 Q382.7549,609.9043 382.1143,610.2324 Q381.4893,610.5605 380.9893,611.3105 Q380.5049,612.0605 380.5049,613.0918 L380.5049,614.1855 Q380.5049,615.4199 381.3955,616.248 Q382.2861,617.0605 383.8799,617.0605 Q384.8174,617.0605 385.4736,616.8105 Q385.8643,616.6543 386.2861,616.2168 Q386.5518,615.9512 386.6924,615.873 Q386.8486,615.7949 387.0518,615.7949 Q387.3799,615.7949 387.6299,616.0605 Q387.8955,616.3105 387.8955,616.6543 Q387.8955,616.998 387.5518,617.4043 Q387.0518,617.9824 386.2549,618.3105 Q385.1768,618.7637 383.8799,618.7637 Q382.3643,618.7637 381.1611,618.1387 Q380.1768,617.6387 379.4893,616.5762 Q378.8018,615.498 378.8018,614.2168 L378.8018,613.0605 Q378.8018,611.7324 379.4111,610.5918 Q380.0361,609.4355 381.1299,608.8262 Q382.2236,608.2012 383.458,608.2012 Q384.1924,608.2012 384.833,608.373 Q385.4893,608.5293 386.0361,608.8887 Z " fill="#000000"/><text fill="#000000" font-family="sans-serif" font-size="14" lengthAdjust="spacing" textLength="50.5859" x="403.7705" y="618.8105">Account</text><line style="stroke:#181818;stroke-width:0.5;" x1="316" x2="509.627" y1="629.0137" y2="629.0137"/><rect fill="none" height="6" style="stroke:#C82930;stroke-width:1;" width="6" x="323" y="640.8242"/><text fill="#000000" font-family="sans-serif" font-size="14" lengthAdjust="spacing" textLength="139.2891" x="335" y="648.1211">String accountNumber</text><rect fill="none" height="6" style="stroke:#C82930;stroke-width:1;" width="6" x="323" y="659.4453"/><text fill="#000000" font-family="sans-serif" font-size="14" lengthAdjust="spacing" textLength="94.9717" x="335" y="666.7422">double balance</text><line style="stroke:#181818;stroke-width:0.5;" x1="316" x2="509.627" y1="674.2559" y2="674.2559"/><ellipse cx="326" cy="689.0664" fill="#84BE84" rx="3" ry="3" style="stroke:#038048;stroke-width:1;"/><text fill="#000000" font-family="sans-serif" font-size="14" lengthAdjust="spacing" textLength="169.627" x="335" y="693.3633">String getAccountNumber()</text><ellipse cx="326" cy="707.6875" fill="#84BE84" rx="3" ry="3" style="stroke:#038048;stroke-width:1;"/><text fill="#000000" font-family="sans-serif" font-size="14" lengthAdjust="spacing" textLength="125.3096" x="335" y="711.9844">double getBalance()</text><ellipse cx="326" cy="726.3086" fill="#84BE84" rx="3" ry="3" style="stroke:#038048;stroke-width:1;"/><text fill="#000000" font-family="sans-serif" font-size="14" lengthAdjust="spacing" textLength="160.3232" x="335" y="730.6055">boolean withdraw(double)</text><ellipse cx="326" cy="744.9297" fill="#84BE84" rx="3" ry="3" style="stroke:#038048;stroke-width:1;"/><text fill="#000000" font-family="sans-serif" font-size="14" lengthAdjust="spacing" textLength="126.082" x="335" y="749.2266">void deposit(double)</text></g><!--class TransactionType--><g class="entity" data-entity="TransactionType" data-source-line="21" data-uid="ent0006" id="entity_TransactionType"><rect fill="#F1F1F1" filter="url(#f343adnf09icv)" height="103.8633" rx="2.5" ry="2.5" style="stroke:#181818;stroke-width:0.5;" width="148.1514" x="46" y="910.5137"/><ellipse cx="66.3473" cy="926.5137" fill="#EB937F" rx="11" ry="11" style="stroke:#181818;stroke-width:1;"/><path d="M65.2066,927.3105 L65.2066,929.8105 L69.5348,929.8105 L69.5348,928.8887 Q69.5348,928.2793 69.7691,928.0137 Q70.0191,927.748 70.3941,927.748 Q70.7691,927.748 71.0035,928.0137 Q71.2379,928.2793 71.2379,928.8887 L71.2379,931.5137 L63.2379,931.5137 Q62.6129,931.5137 62.3473,931.2793 Q62.0973,931.0449 62.0973,930.6543 Q62.0973,930.2793 62.3629,930.0449 Q62.6285,929.8105 63.2379,929.8105 L63.5035,929.8105 L63.5035,923.1543 L63.2379,923.1543 Q62.6129,923.1543 62.3473,922.9199 Q62.0973,922.6855 62.0973,922.2949 Q62.0973,921.9199 62.3473,921.6855 Q62.6129,921.4512 63.2379,921.4512 L70.8629,921.4512 L70.8629,924.0449 Q70.8629,924.6543 70.6285,924.9199 Q70.4098,925.1699 70.0191,925.1699 Q69.6441,925.1699 69.4098,924.9199 Q69.1754,924.6543 69.1754,924.0449 L69.1754,923.1543 L65.2066,923.1543 L65.2066,925.6074 L66.691,925.6074 Q66.691,924.9512 66.816,924.7637 Q67.0816,924.3574 67.5504,924.3574 Q67.9254,924.3574 68.1598,924.623 Q68.3941,924.873 68.3941,925.4824 L68.3941,927.4512 Q68.3941,927.998 68.2691,928.1855 Q68.0035,928.5762 67.5504,928.5762 Q67.0816,928.5762 66.816,928.1699 Q66.691,927.9824 66.691,927.3105 L65.2066,927.3105 Z " fill="#000000"/><text fill="#000000" font-family="sans-serif" font-size="14" lengthAdjust="spacing" textLength="104.2686" x="81.5355" y="932.3105">TransactionType</text><line style="stroke:#181818;stroke-width:0.5;" x1="47" x2="193.1514" y1="942.5137" y2="942.5137"/><ellipse cx="57" cy="957.3242" fill="none" rx="3" ry="3" style="stroke:#038048;stroke-width:1;"/><text fill="#000000" font-family="sans-serif" font-size="14" lengthAdjust="spacing" textLength="122.1514" x="66" y="961.6211">BALANCE_CHECK</text><ellipse cx="57" cy="975.9453" fill="none" rx="3" ry="3" style="stroke:#038048;stroke-width:1;"/><text fill="#000000" font-family="sans-serif" font-size="14" lengthAdjust="spacing" textLength="78.5381" x="66" y="980.2422">WITHDRAW</text><ellipse cx="57" cy="994.5664" fill="none" rx="3" ry="3" style="stroke:#038048;stroke-width:1;"/><text fill="#000000" font-family="sans-serif" font-size="14" lengthAdjust="spacing" textLength="61.4551" x="66" y="998.8633">DEPOSIT</text><line style="stroke:#181818;stroke-width:0.5;" x1="47" x2="193.1514" y1="1006.377" y2="1006.377"/></g><!--class PINVerifiedState--><g class="entity" data-entity="PINVerifiedState" data-source-line="27" data-uid="ent0007" id="entity_PINVerifiedState"><rect fill="#F1F1F1" filter="url(#f343adnf09icv)" height="196.9688" rx="2.5" ry="2.5" style="stroke:#181818;stroke-width:0.5;" width="267.2197" x="229.5" y="864.0137"/><ellipse cx="307.1118" cy="880.0137" fill="#ADD1B2" rx="11" ry="11" style="stroke:#181818;stroke-width:1;"/><path d="M309.8774,875.8887 Q310.0337,875.6699 310.2212,875.5605 Q310.4087,875.4512 310.6274,875.4512 Q311.0024,875.4512 311.2368,875.7168 Q311.4712,875.9668 311.4712,876.5762 L311.4712,878.0293 Q311.4712,878.6387 311.2368,878.9043 Q311.0024,879.1699 310.6274,879.1699 Q310.2837,879.1699 310.0806,878.9668 Q309.8774,878.7793 309.7681,878.2637 Q309.7212,877.9043 309.5337,877.7168 Q309.2056,877.3418 308.5962,877.123 Q307.9868,876.9043 307.3618,876.9043 Q306.5962,876.9043 305.9556,877.2324 Q305.3306,877.5605 304.8306,878.3105 Q304.3462,879.0605 304.3462,880.0918 L304.3462,881.1855 Q304.3462,882.4199 305.2368,883.248 Q306.1274,884.0605 307.7212,884.0605 Q308.6587,884.0605 309.3149,883.8105 Q309.7056,883.6543 310.1274,883.2168 Q310.3931,882.9512 310.5337,882.873 Q310.6899,882.7949 310.8931,882.7949 Q311.2212,882.7949 311.4712,883.0605 Q311.7368,883.3105 311.7368,883.6543 Q311.7368,883.998 311.3931,884.4043 Q310.8931,884.9824 310.0962,885.3105 Q309.0181,885.7637 307.7212,885.7637 Q306.2056,885.7637 305.0024,885.1387 Q304.0181,884.6387 303.3306,883.5762 Q302.6431,882.498 302.6431,881.2168 L302.6431,880.0605 Q302.6431,878.7324 303.2524,877.5918 Q303.8774,876.4355 304.9712,875.8262 Q306.0649,875.2012 307.2993,875.2012 Q308.0337,875.2012 308.6743,875.373 Q309.3306,875.5293 309.8774,875.8887 Z " fill="#000000"/><text fill="#000000" font-family="sans-serif" font-size="14" lengthAdjust="spacing" textLength="103.4961" x="327.6118" y="885.8105">PINVerifiedState</text><line style="stroke:#181818;stroke-width:0.5;" x1="230.5" x2="495.7197" y1="896.0137" y2="896.0137"/><rect fill="none" height="6" style="stroke:#C82930;stroke-width:1;" width="6" x="237.5" y="907.8242"/><text fill="#000000" font-family="sans-serif" font-size="14" lengthAdjust="spacing" textLength="56.7793" x="249.5" y="915.1211">ATM atm</text><line style="stroke:#181818;stroke-width:0.5;" x1="230.5" x2="495.7197" y1="922.6348" y2="922.6348"/><ellipse cx="240.5" cy="937.4453" fill="#84BE84" rx="3" ry="3" style="stroke:#038048;stroke-width:1;"/><text fill="#000000" font-family="sans-serif" font-size="14" lengthAdjust="spacing" textLength="133.8203" x="249.5" y="941.7422">void insertCard(Card)</text><ellipse cx="240.5" cy="956.0664" fill="#84BE84" rx="3" ry="3" style="stroke:#038048;stroke-width:1;"/><text fill="#000000" font-family="sans-serif" font-size="14" lengthAdjust="spacing" textLength="127.6133" x="249.5" y="960.3633">void enterPin(String)</text><ellipse cx="240.5" cy="974.6875" fill="#84BE84" rx="3" ry="3" style="stroke:#038048;stroke-width:1;"/><text fill="#000000" font-family="sans-serif" font-size="14" lengthAdjust="spacing" textLength="241.2197" x="249.5" y="978.9844">void selectOperation(TransactionType)</text><ellipse cx="240.5" cy="993.3086" fill="#84BE84" rx="3" ry="3" style="stroke:#038048;stroke-width:1;"/><text fill="#000000" font-family="sans-serif" font-size="14" lengthAdjust="spacing" textLength="136.1787" x="249.5" y="997.6055">void withdraw(double)</text><ellipse cx="240.5" cy="1011.9297" fill="#84BE84" rx="3" ry="3" style="stroke:#038048;stroke-width:1;"/><text fill="#000000" font-family="sans-serif" font-size="14" lengthAdjust="spacing" textLength="126.082" x="249.5" y="1016.2266">void deposit(double)</text><ellipse cx="240.5" cy="1030.5508" fill="#84BE84" rx="3" ry="3" style="stroke:#038048;stroke-width:1;"/><text fill="#000000" font-family="sans-serif" font-size="14" lengthAdjust="spacing" textLength="126.0615" x="249.5" y="1034.8477">void checkBalance()</text><ellipse cx="240.5" cy="1049.1719" fill="#84BE84" rx="3" ry="3" style="stroke:#038048;stroke-width:1;"/><text fill="#000000" font-family="sans-serif" font-size="14" lengthAdjust="spacing" textLength="98.8135" x="249.5" y="1053.4688">void ejectCard()</text></g><!--class ATMState--><g class="entity" data-entity="ATMState" data-source-line="39" data-uid="ent0008" id="entity_ATMState"><rect fill="#F1F1F1" filter="url(#f343adnf09icv)" height="178.3477" rx="2.5" ry="2.5" style="stroke:#181818;stroke-width:0.5;" width="267.2197" x="546.5" y="588.0137"/><ellipse cx="644.7393" cy="604.0137" fill="#B4A7E5" rx="11" ry="11" style="stroke:#181818;stroke-width:1;"/><path d="M645.6924,600.6543 L645.6924,607.3105 L647.4111,607.3105 Q648.0205,607.3105 648.2861,607.5449 Q648.5518,607.7793 648.5518,608.1699 Q648.5518,608.5449 648.2861,608.7793 Q648.0205,609.0137 647.4111,609.0137 L642.2705,609.0137 Q641.6611,609.0137 641.3955,608.7793 Q641.1299,608.5449 641.1299,608.1543 Q641.1299,607.7793 641.3955,607.5449 Q641.6611,607.3105 642.2705,607.3105 L643.9893,607.3105 L643.9893,600.6543 L642.2705,600.6543 Q641.6611,600.6543 641.3955,600.4199 Q641.1299,600.1855 641.1299,599.7949 Q641.1299,599.4199 641.3955,599.1855 Q641.6611,598.9512 642.2705,598.9512 L647.4111,598.9512 Q648.0205,598.9512 648.2861,599.1855 Q648.5518,599.4199 648.5518,599.7949 Q648.5518,600.1855 648.2861,600.4199 Q648.0205,600.6543 647.4111,600.6543 L645.6924,600.6543 Z " fill="#000000"/><text fill="#000000" font-family="sans-serif" font-size="14" font-style="italic" lengthAdjust="spacing" textLength="62.2412" x="665.2393" y="609.8105">ATMState</text><line style="stroke:#181818;stroke-width:0.5;" x1="547.5" x2="812.7197" y1="620.0137" y2="620.0137"/><line style="stroke:#181818;stroke-width:0.5;" x1="547.5" x2="812.7197" y1="628.0137" y2="628.0137"/><polygon fill="#4177AF" points="557.5,638.8242,553.5,644.8242,561.5,644.8242" style="stroke:#1963A0;stroke-width:1;"/><text fill="#000000" font-family="sans-serif" font-size="14" lengthAdjust="spacing" textLength="133.8203" x="566.5" y="647.1211">void insertCard(Card)</text><polygon fill="#4177AF" points="557.5,657.4453,553.5,663.4453,561.5,663.4453" style="stroke:#1963A0;stroke-width:1;"/><text fill="#000000" font-family="sans-serif" font-size="14" lengthAdjust="spacing" textLength="127.6133" x="566.5" y="665.7422">void enterPin(String)</text><polygon fill="#4177AF" points="557.5,676.0664,553.5,682.0664,561.5,682.0664" style="stroke:#1963A0;stroke-width:1;"/><text fill="#000000" font-family="sans-serif" font-size="14" lengthAdjust="spacing" textLength="241.2197" x="566.5" y="684.3633">void selectOperation(TransactionType)</text><polygon fill="#4177AF" points="557.5,694.6875,553.5,700.6875,561.5,700.6875" style="stroke:#1963A0;stroke-width:1;"/><text fill="#000000" font-family="sans-serif" font-size="14" lengthAdjust="spacing" textLength="136.1787" x="566.5" y="702.9844">void withdraw(double)</text><polygon fill="#4177AF" points="557.5,713.3086,553.5,719.3086,561.5,719.3086" style="stroke:#1963A0;stroke-width:1;"/><text fill="#000000" font-family="sans-serif" font-size="14" lengthAdjust="spacing" textLength="126.082" x="566.5" y="721.6055">void deposit(double)</text><polygon fill="#4177AF" points="557.5,731.9297,553.5,737.9297,561.5,737.9297" style="stroke:#1963A0;stroke-width:1;"/><text fill="#000000" font-family="sans-serif" font-size="14" lengthAdjust="spacing" textLength="126.0615" x="566.5" y="740.2266">void checkBalance()</text><polygon fill="#4177AF" points="557.5,750.5508,553.5,756.5508,561.5,756.5508" style="stroke:#1963A0;stroke-width:1;"/><text fill="#000000" font-family="sans-serif" font-size="14" lengthAdjust="spacing" textLength="98.8135" x="566.5" y="758.8477">void ejectCard()</text></g><!--class Card--><g class="entity" data-entity="Card" data-source-line="49" data-uid="ent0009" id="entity_Card"><rect fill="#F1F1F1" filter="url(#f343adnf09icv)" height="215.5898" rx="2.5" ry="2.5" style="stroke:#181818;stroke-width:0.5;" width="195.627" x="849" y="569.0137"/><ellipse cx="927.3911" cy="585.0137" fill="#ADD1B2" rx="11" ry="11" style="stroke:#181818;stroke-width:1;"/><path d="M930.1567,580.8887 Q930.313,580.6699 930.5005,580.5605 Q930.688,580.4512 930.9067,580.4512 Q931.2817,580.4512 931.5161,580.7168 Q931.7505,580.9668 931.7505,581.5762 L931.7505,583.0293 Q931.7505,583.6387 931.5161,583.9043 Q931.2817,584.1699 930.9067,584.1699 Q930.563,584.1699 930.3599,583.9668 Q930.1567,583.7793 930.0474,583.2637 Q930.0005,582.9043 929.813,582.7168 Q929.4849,582.3418 928.8755,582.123 Q928.2661,581.9043 927.6411,581.9043 Q926.8755,581.9043 926.2349,582.2324 Q925.6099,582.5605 925.1099,583.3105 Q924.6255,584.0605 924.6255,585.0918 L924.6255,586.1855 Q924.6255,587.4199 925.5161,588.248 Q926.4067,589.0605 928.0005,589.0605 Q928.938,589.0605 929.5942,588.8105 Q929.9849,588.6543 930.4067,588.2168 Q930.6724,587.9512 930.813,587.873 Q930.9692,587.7949 931.1724,587.7949 Q931.5005,587.7949 931.7505,588.0605 Q932.0161,588.3105 932.0161,588.6543 Q932.0161,588.998 931.6724,589.4043 Q931.1724,589.9824 930.3755,590.3105 Q929.2974,590.7637 928.0005,590.7637 Q926.4849,590.7637 925.2817,590.1387 Q924.2974,589.6387 923.6099,588.5762 Q922.9224,587.498 922.9224,586.2168 L922.9224,585.0605 Q922.9224,583.7324 923.5317,582.5918 Q924.1567,581.4355 925.2505,580.8262 Q926.3442,580.2012 927.5786,580.2012 Q928.313,580.2012 928.9536,580.373 Q929.6099,580.5293 930.1567,580.8887 Z " fill="#000000"/><text fill="#000000" font-family="sans-serif" font-size="14" lengthAdjust="spacing" textLength="30.3447" x="947.8911" y="590.8105">Card</text><line style="stroke:#181818;stroke-width:0.5;" x1="850" x2="1043.627" y1="601.0137" y2="601.0137"/><rect fill="none" height="6" style="stroke:#C82930;stroke-width:1;" width="6" x="857" y="612.8242"/><text fill="#000000" font-family="sans-serif" font-size="14" lengthAdjust="spacing" textLength="117.4893" x="869" y="620.1211">String cardNumber</text><rect fill="none" height="6" style="stroke:#C82930;stroke-width:1;" width="6" x="857" y="631.4453"/><text fill="#000000" font-family="sans-serif" font-size="14" lengthAdjust="spacing" textLength="139.2891" x="869" y="638.7422">String accountNumber</text><rect fill="none" height="6" style="stroke:#C82930;stroke-width:1;" width="6" x="857" y="650.0664"/><text fill="#000000" font-family="sans-serif" font-size="14" lengthAdjust="spacing" textLength="59.1445" x="869" y="657.3633">String pin</text><rect fill="none" height="6" style="stroke:#C82930;stroke-width:1;" width="6" x="857" y="668.6875"/><text fill="#000000" font-family="sans-serif" font-size="14" lengthAdjust="spacing" textLength="113.6338" x="869" y="675.9844">boolean isBlocked</text><line style="stroke:#181818;stroke-width:0.5;" x1="850" x2="1043.627" y1="683.498" y2="683.498"/><ellipse cx="860" cy="698.3086" fill="#84BE84" rx="3" ry="3" style="stroke:#038048;stroke-width:1;"/><text fill="#000000" font-family="sans-serif" font-size="14" lengthAdjust="spacing" textLength="149.3857" x="869" y="702.6055">String getCardNumber()</text><ellipse cx="860" cy="716.9297" fill="#84BE84" rx="3" ry="3" style="stroke:#038048;stroke-width:1;"/><text fill="#000000" font-family="sans-serif" font-size="14" lengthAdjust="spacing" textLength="169.627" x="869" y="721.2266">String getAccountNumber()</text><ellipse cx="860" cy="735.5508" fill="#84BE84" rx="3" ry="3" style="stroke:#038048;stroke-width:1;"/><text fill="#000000" font-family="sans-serif" font-size="14" lengthAdjust="spacing" textLength="122.958" x="869" y="739.8477">boolean isBlocked()</text><ellipse cx="860" cy="754.1719" fill="#84BE84" rx="3" ry="3" style="stroke:#038048;stroke-width:1;"/><text fill="#000000" font-family="sans-serif" font-size="14" lengthAdjust="spacing" textLength="168.1025" x="869" y="758.4688">boolean validatePin(String)</text><ellipse cx="860" cy="772.793" fill="#84BE84" rx="3" ry="3" style="stroke:#038048;stroke-width:1;"/><text fill="#000000" font-family="sans-serif" font-size="14" lengthAdjust="spacing" textLength="101.9238" x="869" y="777.0898">void blockCard()</text></g><!--class IdleState--><g class="entity" data-entity="IdleState" data-source-line="62" data-uid="ent0010" id="entity_IdleState"><rect fill="#F1F1F1" filter="url(#f343adnf09icv)" height="196.9688" rx="2.5" ry="2.5" style="stroke:#181818;stroke-width:0.5;" width="267.2197" x="531.5" y="864.0137"/><ellipse cx="633.229" cy="880.0137" fill="#ADD1B2" rx="11" ry="11" style="stroke:#181818;stroke-width:1;"/><path d="M635.9946,875.8887 Q636.1509,875.6699 636.3384,875.5605 Q636.5259,875.4512 636.7446,875.4512 Q637.1196,875.4512 637.354,875.7168 Q637.5884,875.9668 637.5884,876.5762 L637.5884,878.0293 Q637.5884,878.6387 637.354,878.9043 Q637.1196,879.1699 636.7446,879.1699 Q636.4009,879.1699 636.1978,878.9668 Q635.9946,878.7793 635.8853,878.2637 Q635.8384,877.9043 635.6509,877.7168 Q635.3228,877.3418 634.7134,877.123 Q634.104,876.9043 633.479,876.9043 Q632.7134,876.9043 632.0728,877.2324 Q631.4478,877.5605 630.9478,878.3105 Q630.4634,879.0605 630.4634,880.0918 L630.4634,881.1855 Q630.4634,882.4199 631.354,883.248 Q632.2446,884.0605 633.8384,884.0605 Q634.7759,884.0605 635.4321,883.8105 Q635.8228,883.6543 636.2446,883.2168 Q636.5103,882.9512 636.6509,882.873 Q636.8071,882.7949 637.0103,882.7949 Q637.3384,882.7949 637.5884,883.0605 Q637.854,883.3105 637.854,883.6543 Q637.854,883.998 637.5103,884.4043 Q637.0103,884.9824 636.2134,885.3105 Q635.1353,885.7637 633.8384,885.7637 Q632.3228,885.7637 631.1196,885.1387 Q630.1353,884.6387 629.4478,883.5762 Q628.7603,882.498 628.7603,881.2168 L628.7603,880.0605 Q628.7603,878.7324 629.3696,877.5918 Q629.9946,876.4355 631.0884,875.8262 Q632.1821,875.2012 633.4165,875.2012 Q634.1509,875.2012 634.7915,875.373 Q635.4478,875.5293 635.9946,875.8887 Z " fill="#000000"/><text fill="#000000" font-family="sans-serif" font-size="14" lengthAdjust="spacing" textLength="55.2617" x="653.729" y="885.8105">IdleState</text><line style="stroke:#181818;stroke-width:0.5;" x1="532.5" x2="797.7197" y1="896.0137" y2="896.0137"/><rect fill="none" height="6" style="stroke:#C82930;stroke-width:1;" width="6" x="539.5" y="907.8242"/><text fill="#000000" font-family="sans-serif" font-size="14" lengthAdjust="spacing" textLength="56.7793" x="551.5" y="915.1211">ATM atm</text><line style="stroke:#181818;stroke-width:0.5;" x1="532.5" x2="797.7197" y1="922.6348" y2="922.6348"/><ellipse cx="542.5" cy="937.4453" fill="#84BE84" rx="3" ry="3" style="stroke:#038048;stroke-width:1;"/><text fill="#000000" font-family="sans-serif" font-size="14" lengthAdjust="spacing" textLength="133.8203" x="551.5" y="941.7422">void insertCard(Card)</text><ellipse cx="542.5" cy="956.0664" fill="#84BE84" rx="3" ry="3" style="stroke:#038048;stroke-width:1;"/><text fill="#000000" font-family="sans-serif" font-size="14" lengthAdjust="spacing" textLength="127.6133" x="551.5" y="960.3633">void enterPin(String)</text><ellipse cx="542.5" cy="974.6875" fill="#84BE84" rx="3" ry="3" style="stroke:#038048;stroke-width:1;"/><text fill="#000000" font-family="sans-serif" font-size="14" lengthAdjust="spacing" textLength="241.2197" x="551.5" y="978.9844">void selectOperation(TransactionType)</text><ellipse cx="542.5" cy="993.3086" fill="#84BE84" rx="3" ry="3" style="stroke:#038048;stroke-width:1;"/><text fill="#000000" font-family="sans-serif" font-size="14" lengthAdjust="spacing" textLength="136.1787" x="551.5" y="997.6055">void withdraw(double)</text><ellipse cx="542.5" cy="1011.9297" fill="#84BE84" rx="3" ry="3" style="stroke:#038048;stroke-width:1;"/><text fill="#000000" font-family="sans-serif" font-size="14" lengthAdjust="spacing" textLength="126.082" x="551.5" y="1016.2266">void deposit(double)</text><ellipse cx="542.5" cy="1030.5508" fill="#84BE84" rx="3" ry="3" style="stroke:#038048;stroke-width:1;"/><text fill="#000000" font-family="sans-serif" font-size="14" lengthAdjust="spacing" textLength="126.0615" x="551.5" y="1034.8477">void checkBalance()</text><ellipse cx="542.5" cy="1049.1719" fill="#84BE84" rx="3" ry="3" style="stroke:#038048;stroke-width:1;"/><text fill="#000000" font-family="sans-serif" font-size="14" lengthAdjust="spacing" textLength="98.8135" x="551.5" y="1053.4688">void ejectCard()</text></g><!--class ATM--><g class="entity" data-entity="ATM" data-source-line="74" data-uid="ent0011" id="entity_ATM"><rect fill="#F1F1F1" filter="url(#f343adnf09icv)" height="401.8008" rx="2.5" ry="2.5" style="stroke:#181818;stroke-width:0.5;" width="267.2197" x="546.5" y="88.0137"/><ellipse cx="661.084" cy="104.0137" fill="#ADD1B2" rx="11" ry="11" style="stroke:#181818;stroke-width:1;"/><path d="M663.8496,99.8887 Q664.0059,99.6699 664.1934,99.5605 Q664.3809,99.4512 664.5996,99.4512 Q664.9746,99.4512 665.209,99.7168 Q665.4434,99.9668 665.4434,100.5762 L665.4434,102.0293 Q665.4434,102.6387 665.209,102.9043 Q664.9746,103.1699 664.5996,103.1699 Q664.2559,103.1699 664.0527,102.9668 Q663.8496,102.7793 663.7402,102.2637 Q663.6934,101.9043 663.5059,101.7168 Q663.1777,101.3418 662.5684,101.123 Q661.959,100.9043 661.334,100.9043 Q660.5684,100.9043 659.9277,101.2324 Q659.3027,101.5605 658.8027,102.3105 Q658.3184,103.0605 658.3184,104.0918 L658.3184,105.1855 Q658.3184,106.4199 659.209,107.248 Q660.0996,108.0605 661.6934,108.0605 Q662.6309,108.0605 663.2871,107.8105 Q663.6777,107.6543 664.0996,107.2168 Q664.3652,106.9512 664.5059,106.873 Q664.6621,106.7949 664.8652,106.7949 Q665.1934,106.7949 665.4434,107.0605 Q665.709,107.3105 665.709,107.6543 Q665.709,107.998 665.3652,108.4043 Q664.8652,108.9824 664.0684,109.3105 Q662.9902,109.7637 661.6934,109.7637 Q660.1777,109.7637 658.9746,109.1387 Q657.9902,108.6387 657.3027,107.5762 Q656.6152,106.498 656.6152,105.2168 L656.6152,104.0605 Q656.6152,102.7324 657.2246,101.5918 Q657.8496,100.4355 658.9434,99.8262 Q660.0371,99.2012 661.2715,99.2012 Q662.0059,99.2012 662.6465,99.373 Q663.3027,99.5293 663.8496,99.8887 Z " fill="#000000"/><text fill="#000000" font-family="sans-serif" font-size="14" lengthAdjust="spacing" textLength="29.5518" x="681.584" y="109.8105">ATM</text><line style="stroke:#181818;stroke-width:0.5;" x1="547.5" x2="812.7197" y1="120.0137" y2="120.0137"/><rect fill="none" height="6" style="stroke:#C82930;stroke-width:1;" width="6" x="554.5" y="131.8242"/><text fill="#000000" font-family="sans-serif" font-size="14" lengthAdjust="spacing" textLength="142.3926" x="566.5" y="139.1211">ATMState currentState</text><rect fill="none" height="6" style="stroke:#C82930;stroke-width:1;" width="6" x="554.5" y="150.4453"/><text fill="#000000" font-family="sans-serif" font-size="14" lengthAdjust="spacing" textLength="108.1514" x="566.5" y="157.7422">Card currentCard</text><rect fill="none" height="6" style="stroke:#C82930;stroke-width:1;" width="6" x="554.5" y="169.0664"/><text fill="#000000" font-family="sans-serif" font-size="14" lengthAdjust="spacing" textLength="148.6338" x="566.5" y="176.3633">Account currentAccount</text><rect fill="none" height="6" style="stroke:#C82930;stroke-width:1;" width="6" x="554.5" y="187.6875"/><text fill="#000000" font-family="sans-serif" font-size="14" lengthAdjust="spacing" textLength="205.4404" x="566.5" y="194.9844">List&lt;Transaction&gt; transactionList</text><line style="stroke:#181818;stroke-width:0.5;" x1="547.5" x2="812.7197" y1="202.498" y2="202.498"/><ellipse cx="557.5" cy="217.3086" fill="#84BE84" rx="3" ry="3" style="stroke:#038048;stroke-width:1;"/><text fill="#000000" font-family="sans-serif" font-size="14" lengthAdjust="spacing" textLength="152.5029" x="566.5" y="221.6055">void setState(ATMState)</text><ellipse cx="557.5" cy="235.9297" fill="#84BE84" rx="3" ry="3" style="stroke:#038048;stroke-width:1;"/><text fill="#000000" font-family="sans-serif" font-size="14" lengthAdjust="spacing" textLength="164.9443" x="566.5" y="240.2266">void setCurrentCard(Card)</text><ellipse cx="557.5" cy="254.5508" fill="#84BE84" rx="3" ry="3" style="stroke:#038048;stroke-width:1;"/><text fill="#000000" font-family="sans-serif" font-size="14" lengthAdjust="spacing" textLength="205.4268" x="566.5" y="258.8477">void setCurrentAccount(Account)</text><ellipse cx="557.5" cy="273.1719" fill="#84BE84" rx="3" ry="3" style="stroke:#038048;stroke-width:1;"/><text fill="#000000" font-family="sans-serif" font-size="14" lengthAdjust="spacing" textLength="133.8203" x="566.5" y="277.4688">void insertCard(Card)</text><ellipse cx="557.5" cy="291.793" fill="#84BE84" rx="3" ry="3" style="stroke:#038048;stroke-width:1;"/><text fill="#000000" font-family="sans-serif" font-size="14" lengthAdjust="spacing" textLength="127.6133" x="566.5" y="296.0898">void enterPin(String)</text><ellipse cx="557.5" cy="310.4141" fill="#84BE84" rx="3" ry="3" style="stroke:#038048;stroke-width:1;"/><text fill="#000000" font-family="sans-serif" font-size="14" lengthAdjust="spacing" textLength="241.2197" x="566.5" y="314.7109">void selectOperation(TransactionType)</text><ellipse cx="557.5" cy="329.0352" fill="#84BE84" rx="3" ry="3" style="stroke:#038048;stroke-width:1;"/><text fill="#000000" font-family="sans-serif" font-size="14" lengthAdjust="spacing" textLength="136.1787" x="566.5" y="333.332">void withdraw(double)</text><ellipse cx="557.5" cy="347.6563" fill="#84BE84" rx="3" ry="3" style="stroke:#038048;stroke-width:1;"/><text fill="#000000" font-family="sans-serif" font-size="14" lengthAdjust="spacing" textLength="126.082" x="566.5" y="351.9531">void deposit(double)</text><ellipse cx="557.5" cy="366.2773" fill="#84BE84" rx="3" ry="3" style="stroke:#038048;stroke-width:1;"/><text fill="#000000" font-family="sans-serif" font-size="14" lengthAdjust="spacing" textLength="126.0615" x="566.5" y="370.5742">void checkBalance()</text><ellipse cx="557.5" cy="384.8984" fill="#84BE84" rx="3" ry="3" style="stroke:#038048;stroke-width:1;"/><text fill="#000000" font-family="sans-serif" font-size="14" lengthAdjust="spacing" textLength="98.8135" x="566.5" y="389.1953">void ejectCard()</text><ellipse cx="557.5" cy="403.5195" fill="#84BE84" rx="3" ry="3" style="stroke:#038048;stroke-width:1;"/><text fill="#000000" font-family="sans-serif" font-size="14" lengthAdjust="spacing" textLength="208.5439" x="566.5" y="407.8164">void addTransaction(Transaction)</text><ellipse cx="557.5" cy="422.1406" fill="#84BE84" rx="3" ry="3" style="stroke:#038048;stroke-width:1;"/><text fill="#000000" font-family="sans-serif" font-size="14" lengthAdjust="spacing" textLength="146.2754" x="566.5" y="426.4375">void printTransactions()</text><ellipse cx="557.5" cy="440.7617" fill="#84BE84" rx="3" ry="3" style="stroke:#038048;stroke-width:1;"/><text fill="#000000" font-family="sans-serif" font-size="14" lengthAdjust="spacing" textLength="174.2891" x="566.5" y="445.0586">ATMState getCurrentState()</text><ellipse cx="557.5" cy="459.3828" fill="#84BE84" rx="3" ry="3" style="stroke:#038048;stroke-width:1;"/><text fill="#000000" font-family="sans-serif" font-size="14" lengthAdjust="spacing" textLength="140.0479" x="566.5" y="463.6797">Card getCurrentCard()</text><ellipse cx="557.5" cy="478.0039" fill="#84BE84" rx="3" ry="3" style="stroke:#038048;stroke-width:1;"/><text fill="#000000" font-family="sans-serif" font-size="14" lengthAdjust="spacing" textLength="180.5303" x="566.5" y="482.3008">Account getCurrentAccount()</text></g><!--class CardInsertedState--><g class="entity" data-entity="CardInsertedState" data-source-line="97" data-uid="ent0012" id="entity_CardInsertedState"><rect fill="#F1F1F1" filter="url(#f343adnf09icv)" height="196.9688" rx="2.5" ry="2.5" style="stroke:#181818;stroke-width:0.5;" width="267.2197" x="833.5" y="864.0137"/><ellipse cx="906.0498" cy="880.0137" fill="#ADD1B2" rx="11" ry="11" style="stroke:#181818;stroke-width:1;"/><path d="M908.8154,875.8887 Q908.9717,875.6699 909.1592,875.5605 Q909.3467,875.4512 909.5654,875.4512 Q909.9404,875.4512 910.1748,875.7168 Q910.4092,875.9668 910.4092,876.5762 L910.4092,878.0293 Q910.4092,878.6387 910.1748,878.9043 Q909.9404,879.1699 909.5654,879.1699 Q909.2217,879.1699 909.0186,878.9668 Q908.8154,878.7793 908.7061,878.2637 Q908.6592,877.9043 908.4717,877.7168 Q908.1436,877.3418 907.5342,877.123 Q906.9248,876.9043 906.2998,876.9043 Q905.5342,876.9043 904.8936,877.2324 Q904.2686,877.5605 903.7686,878.3105 Q903.2842,879.0605 903.2842,880.0918 L903.2842,881.1855 Q903.2842,882.4199 904.1748,883.248 Q905.0654,884.0605 906.6592,884.0605 Q907.5967,884.0605 908.2529,883.8105 Q908.6436,883.6543 909.0654,883.2168 Q909.3311,882.9512 909.4717,882.873 Q909.6279,882.7949 909.8311,882.7949 Q910.1592,882.7949 910.4092,883.0605 Q910.6748,883.3105 910.6748,883.6543 Q910.6748,883.998 910.3311,884.4043 Q909.8311,884.9824 909.0342,885.3105 Q907.9561,885.7637 906.6592,885.7637 Q905.1436,885.7637 903.9404,885.1387 Q902.9561,884.6387 902.2686,883.5762 Q901.5811,882.498 901.5811,881.2168 L901.5811,880.0605 Q901.5811,878.7324 902.1904,877.5918 Q902.8154,876.4355 903.9092,875.8262 Q905.0029,875.2012 906.2373,875.2012 Q906.9717,875.2012 907.6123,875.373 Q908.2686,875.5293 908.8154,875.8887 Z " fill="#000000"/><text fill="#000000" font-family="sans-serif" font-size="14" lengthAdjust="spacing" textLength="113.6201" x="926.5498" y="885.8105">CardInsertedState</text><line style="stroke:#181818;stroke-width:0.5;" x1="834.5" x2="1099.7197" y1="896.0137" y2="896.0137"/><rect fill="none" height="6" style="stroke:#C82930;stroke-width:1;" width="6" x="841.5" y="907.8242"/><text fill="#000000" font-family="sans-serif" font-size="14" lengthAdjust="spacing" textLength="56.7793" x="853.5" y="915.1211">ATM atm</text><line style="stroke:#181818;stroke-width:0.5;" x1="834.5" x2="1099.7197" y1="922.6348" y2="922.6348"/><ellipse cx="844.5" cy="937.4453" fill="#84BE84" rx="3" ry="3" style="stroke:#038048;stroke-width:1;"/><text fill="#000000" font-family="sans-serif" font-size="14" lengthAdjust="spacing" textLength="133.8203" x="853.5" y="941.7422">void insertCard(Card)</text><ellipse cx="844.5" cy="956.0664" fill="#84BE84" rx="3" ry="3" style="stroke:#038048;stroke-width:1;"/><text fill="#000000" font-family="sans-serif" font-size="14" lengthAdjust="spacing" textLength="127.6133" x="853.5" y="960.3633">void enterPin(String)</text><ellipse cx="844.5" cy="974.6875" fill="#84BE84" rx="3" ry="3" style="stroke:#038048;stroke-width:1;"/><text fill="#000000" font-family="sans-serif" font-size="14" lengthAdjust="spacing" textLength="241.2197" x="853.5" y="978.9844">void selectOperation(TransactionType)</text><ellipse cx="844.5" cy="993.3086" fill="#84BE84" rx="3" ry="3" style="stroke:#038048;stroke-width:1;"/><text fill="#000000" font-family="sans-serif" font-size="14" lengthAdjust="spacing" textLength="136.1787" x="853.5" y="997.6055">void withdraw(double)</text><ellipse cx="844.5" cy="1011.9297" fill="#84BE84" rx="3" ry="3" style="stroke:#038048;stroke-width:1;"/><text fill="#000000" font-family="sans-serif" font-size="14" lengthAdjust="spacing" textLength="126.082" x="853.5" y="1016.2266">void deposit(double)</text><ellipse cx="844.5" cy="1030.5508" fill="#84BE84" rx="3" ry="3" style="stroke:#038048;stroke-width:1;"/><text fill="#000000" font-family="sans-serif" font-size="14" lengthAdjust="spacing" textLength="126.0615" x="853.5" y="1034.8477">void checkBalance()</text><ellipse cx="844.5" cy="1049.1719" fill="#84BE84" rx="3" ry="3" style="stroke:#038048;stroke-width:1;"/><text fill="#000000" font-family="sans-serif" font-size="14" lengthAdjust="spacing" textLength="98.8135" x="853.5" y="1053.4688">void ejectCard()</text></g><g class="entity" data-entity="GMN17" data-source-line="127" data-uid="ent0018" id="entity_GMN17"><path d="M1157.5,249.5137 L1157.5,285.0137 L813.59,289.0137 L1157.5,293.0137 L1157.5,328.6777 A0,0 0 0 0 1157.5,328.6777 L1292.8975,328.6777 A0,0 0 0 0 1292.8975,328.6777 L1292.8975,259.5137 L1282.8975,249.5137 L1157.5,249.5137 A0,0 0 0 0 1157.5,249.5137" fill="#FEFFDD" filter="url(#f343adnf09icv)" style="stroke:#181818;stroke-width:0.5;"/><path d="M1282.8975,249.5137 L1282.8975,259.5137 L1292.8975,259.5137 L1282.8975,249.5137" fill="#FEFFDD" style="stroke:#181818;stroke-width:0.5;"/><text fill="#000000" font-family="sans-serif" font-size="13" lengthAdjust="spacing" textLength="109.8398" x="1163.5" y="268.542">State Pattern Used</text><text fill="#000000" font-family="sans-serif" font-size="13" lengthAdjust="spacing" textLength="60.2075" x="1163.5" y="285.833">&#8226; IdleState</text><text fill="#000000" font-family="sans-serif" font-size="13" lengthAdjust="spacing" textLength="114.3975" x="1163.5" y="303.124">&#8226; CardInsertedState</text><text fill="#000000" font-family="sans-serif" font-size="13" lengthAdjust="spacing" textLength="104.9966" x="1163.5" y="320.415">&#8226; PINVerifiedState</text></g><!--reverse link ATM to ATMState--><g class="link" data-entity-1="ATM" data-entity-2="ATMState" data-source-line="118" data-uid="lnk13" id="link_ATM_ATMState"><path codeLine="118" d="M680,502.0837 C680,536.4437 680,558.5137 680,587.9137" fill="none" id="ATM-backto-ATMState" style="stroke:#181818;stroke-width:1;"/><polygon fill="none" points="680,490.0837,676,496.0837,680,502.0837,684,496.0837,680,490.0837" style="stroke:#181818;stroke-width:1;"/><text fill="#000000" font-family="sans-serif" font-size="13" lengthAdjust="spacing" textLength="96.8271" x="681" y="535.042">has current state</text><text fill="#000000" font-family="sans-serif" font-size="13" lengthAdjust="spacing" textLength="7.23" x="672.8744" y="511.6522">1</text><text fill="#000000" font-family="sans-serif" font-size="13" lengthAdjust="spacing" textLength="7.23" x="672.7106" y="576.8571">1</text></g><!--link ATM to Card--><g class="link" data-entity-1="ATM" data-entity-2="Card" data-source-line="121" data-uid="lnk14" id="link_ATM_Card"><path codeLine="121" d="M813.7,483.2937 C834.08,512.7637 851.0466,537.2893 869.5166,563.9893" fill="none" id="ATM-to-Card" style="stroke:#181818;stroke-width:1;"/><polygon fill="#181818" points="872.93,568.9237,871.0995,559.2464,870.0855,564.8117,864.5202,563.7977,872.93,568.9237" style="stroke:#181818;stroke-width:1;"/><text fill="#000000" font-family="sans-serif" font-size="13" lengthAdjust="spacing" textLength="65.0317" x="846" y="535.042">has current</text></g><!--link ATM to Account--><g class="link" data-entity-1="ATM" data-entity-2="Account" data-source-line="122" data-uid="lnk15" id="link_ATM_Account"><path codeLine="122" d="M546.3,483.2937 C518.56,523.4037 494.2432,558.5591 471.3132,591.7091" fill="none" id="ATM-to-Account" style="stroke:#181818;stroke-width:1;"/><polygon fill="#181818" points="467.9,596.6437,476.3096,591.5174,470.7444,592.5316,469.7302,586.9664,467.9,596.6437" style="stroke:#181818;stroke-width:1;"/><text fill="#000000" font-family="sans-serif" font-size="13" lengthAdjust="spacing" textLength="65.0317" x="515" y="535.042">has current</text></g><!--link ATM to Transaction--><g class="link" data-entity-1="ATM" data-entity-2="Transaction" data-source-line="123" data-uid="lnk16" id="link_ATM_Transaction"><path codeLine="123" d="M546.46,385.5837 C472.68,438.8737 379.69,506.8437 298,569.0137 C286.22,577.9837 278.6771,583.7784 266.5371,593.2684" fill="none" id="ATM-to-Transaction" style="stroke:#181818;stroke-width:1;"/><polygon fill="#181818" points="261.81,596.9637,271.3641,594.5722,265.7492,593.8843,266.4371,588.2694,261.81,596.9637" style="stroke:#181818;stroke-width:1;"/><text fill="#000000" font-family="sans-serif" font-size="13" lengthAdjust="spacing" textLength="23.8481" x="360" y="535.042">logs</text></g><!--reverse link ATMState to IdleState--><g class="link" data-entity-1="ATMState" data-entity-2="IdleState" data-source-line="134" data-uid="lnk20" id="link_ATMState_IdleState"><path codeLine="134" d="M674.3854,784.1383 C672.7454,815.0183 671.86,831.9037 670.18,863.5437" fill="none" id="ATMState-backto-IdleState" style="stroke:#181818;stroke-width:1;stroke-dasharray:7,7;"/><polygon fill="none" points="675.34,766.1637,668.3938,783.8201,680.3769,784.4565,675.34,766.1637" style="stroke:#181818;stroke-width:1;"/><text fill="#000000" font-family="sans-serif" font-size="13" lengthAdjust="spacing" textLength="66.4663" x="673" y="830.042">implements</text></g><!--reverse link ATMState to CardInsertedState--><g class="link" data-entity-1="ATMState" data-entity-2="CardInsertedState" data-source-line="135" data-uid="lnk21" id="link_ATMState_CardInsertedState"><path codeLine="135" d="M782.0453,778.8137 C813.3853,809.7737 835.98,832.0937 868.08,863.7937" fill="none" id="ATMState-backto-CardInsertedState" style="stroke:#181818;stroke-width:1;stroke-dasharray:7,7;"/><polygon fill="none" points="769.24,766.1637,777.8286,783.0822,786.262,774.5453,769.24,766.1637" style="stroke:#181818;stroke-width:1;"/><text fill="#000000" font-family="sans-serif" font-size="13" lengthAdjust="spacing" textLength="66.4663" x="833" y="830.042">implements</text></g><!--reverse link ATMState to PINVerifiedState--><g class="link" data-entity-1="ATMState" data-entity-2="PINVerifiedState" data-source-line="136" data-uid="lnk22" id="link_ATMState_PINVerifiedState"><path codeLine="136" d="M568.0209,778.1607 C533.3909,809.1207 507.72,832.0937 472.27,863.7937" fill="none" id="ATMState-backto-PINVerifiedState" style="stroke:#181818;stroke-width:1;stroke-dasharray:7,7;"/><polygon fill="none" points="581.44,766.1637,564.0219,773.6876,572.0199,782.6337,581.44,766.1637" style="stroke:#181818;stroke-width:1;"/><text fill="#000000" font-family="sans-serif" font-size="13" lengthAdjust="spacing" textLength="66.4663" x="522" y="830.042">implements</text></g><!--link Transaction to TransactionType--><g class="link" data-entity-1="Transaction" data-entity-2="TransactionType" data-source-line="139" data-uid="lnk23" id="link_Transaction_TransactionType"><path codeLine="139" d="M150.96,757.3637 C143.54,806.3437 135.1194,861.8015 128.6594,904.4115" fill="none" id="Transaction-to-TransactionType" style="stroke:#181818;stroke-width:1;stroke-dasharray:7,7;"/><polygon fill="#181818" points="127.76,910.3437,133.0639,902.0449,128.5095,905.4002,125.1542,900.8458,127.76,910.3437" style="stroke:#181818;stroke-width:1;"/><text fill="#000000" font-family="sans-serif" font-size="13" lengthAdjust="spacing" textLength="27.46" x="143" y="830.042">uses</text></g><!--SRC=[tLPBRjim4Dth54GsKL3OQ3Sja0O15CT0X2QE4QlDig19Mc9DaG999MZJ6ZrBZzQJT4Z9CkLFa6spaSGtmvatRqO4YS36827e4Djoc6ai3IQMAucUeW6QMSrbZkm6JYd0WLlslMAXtQt1ureHB2wnPHalmGwFcSLb1HQgwhbW29UgbXRMGlKJZ1pETFIcIwwQZ_Wa-XL54UaHJWXn_Y5Pt42Jkfn3c2xX70ii2Tl4pPbDGbU8_sRj3BQBnj-ZSwK4mn8zSbjGZH_ZnisP7XIdYB9A6MuxsF5aiYxtwUe5UuATw2AvJYQZyTVHrNZqoG7tQNPrUPVSk-_ByVHsbcOkLB_YQJhvmZHVS4P1KijywKbsWy2uviEbOTgEiAQnUtGycLDsocNSID3XXWb6x6t5D7OKuoswdTzBwszXKZ2o37LiI7o3N9vR8nHtf1QOi4rJivjrQQi31QqE5BHwOK6h0mMjzXUqsblGQcz1_NOvF9nE0kjkD0zCR0jNNC9YFNlSN0X5beps9dZKXVC2FpVQEu5ww0CMd8BcUwPZxjo3XlKBJAbWhsCGjquMgAIjg2cFr5e3Rxy0t3UsnTotSsqFenPjb-uqvCQU1RMSXmUUCsxgR-B7wwo1CdQqITPNSsDhKyRj- -I_wqCBOKg3b67wpgK2mZOm6B-xwrRUQT88weo-PNbVIB-fxLk-e-E-mN3RKg_dQpc1e-D4Q_Le49OKQIOy1LFmoaHcoMM5DIwHL9GPLg7tRpy6AD1SElH33pK5fkhHdKGBB0mBJQMIYXHQkLk1hdicBtDYGPXvRLbAb9pn7mn1vEWOtM0kUznGF54MOMIiTZS8eaglW1yHruoZTqT83GR-tKt5AIgmMV-ViDNzoX0yCKOHxaFxlOF1UJCiFV_Ej9wN_TRm3dKArvlSk1H0baKI7aZplB18BHoh2A66s1HR60o9FXiuu17w-_iFwWxMThqpTos-VI60cmT5BXEaJMK19klQZ-9qDaZGtVWwoTBRoUmgdNgXclndFuV3JKRWpSjAi1BgCbjEk-F_ZFFEPQNd6nsFtIMfDZXd9Wfr6mxFTowPf-08Rly0]--></g></svg>